<?xml version="1.0" standalone="no"?>
<!DOCTYPE svg PUBLIC "-//W3C//DTD SVG 1.1//EN" "http://www.w3.org/Graphics/SVG/1.1/DTD/svg11.dtd" >
<svg xmlns="http://www.w3.org/2000/svg" xmlns:xlink="http://www.w3.org/1999/xlink" version="1.1">
<metadata></metadata>
<defs>
<font id="automotoregular" horiz-adv-x="638" >
<font-face units-per-em="2048" ascent="1761" descent="-287" />
<missing-glyph horiz-adv-x="614" />
<glyph horiz-adv-x="0" />
<glyph horiz-adv-x="682" />
<glyph unicode=" "  horiz-adv-x="614" />
<glyph unicode="&#x09;" horiz-adv-x="614" />
<glyph unicode="&#xa0;" horiz-adv-x="614" />
<glyph unicode="!" d="M82 0v475h141v-475h-141zM82 616v859h141v-859h-141zM248 0v475h141v-475h-141zM248 616v859h141v-859h-141zM416 0v475h141v-475h-141zM416 616v859h141v-859h-141z" />
<glyph unicode="&#x22;" horiz-adv-x="899" d="M82 750v725h141v-725h-141zM248 750v725h141v-725h-141zM510 750v725h141v-725h-141zM676 750v725h141v-725h-141z" />
<glyph unicode="#" horiz-adv-x="1253" d="M61 498v141h431l-207 -465l-144 -2l146 326h-226zM61 834v141h748l-64 -141h-684zM358 664l66 145h143l-65 -145h-144zM455 498l63 141h674v-141h-737zM479 174l133 301h144l-133 -301h-144zM508 997l145 322h142l-144 -322h-143zM696 664l64 145h143l-65 -145h-142z M772 834l217 485h144l-156 -344h215v-141h-420z" />
<glyph unicode="$" horiz-adv-x="749" d="M72 -8v145q78 0 123 4v-143q-67 -6 -123 -6zM72 164v143q56 0 95.5 2.5t85 12.5t72 27t46.5 49t20 76t-18.5 110t-59.5 149h142q208 -419 -93 -530l-2 -17v-462h-141v446q-49 -6 -147 -6zM72 334v143q33 0 51.5 1t39.5 4.5t29.5 10t16 19.5t5 31t-9 45.5t-21 62.5 t-36.5 82h142q30 -62 48 -114t25 -90.5t1.5 -68.5t-16 -50.5t-34 -34.5t-46 -22t-58.5 -12.5t-65 -5.5t-72 -1zM131 756q-219 477 88 643l2 358h139v-461q-301 -113 -88 -540h-141zM299 756q-208 416 88 522v479h141v-450q68 8 154 8v-146q-46 0 -75.5 -1t-69.5 -5t-64 -12 t-50.5 -23t-38.5 -35.5t-19.5 -52t-1 -71.5t24.5 -94t50 -119h-139zM387 182q307 124 92 551h142q222 -479 -93 -651v-358h-141v458zM388 1001q-3 41 16.5 69t40 42.5t66.5 22t78.5 9t92.5 1.5v-146q-94 0 -116 -10q-37 -15 -21 -81q12 -49 59 -152h-139q-39 80 -56.5 142 t-20.5 103zM559 1335v146q86 4 123 4v-144q-58 0 -123 -6z" />
<glyph unicode="%" horiz-adv-x="1951" d="M41 1034h141q0 -299 357 -299v-141q-119 0 -209.5 27.5t-144 70t-87.5 103t-45.5 117.5t-11.5 122zM41 1057q0 65 11.5 122t45.5 117.5t87.5 103t144 70t209.5 27.5v-141q-357 0 -357 -299h-141zM207 1034h141q0 -30 1.5 -44.5t11 -35t29 -30t57 -16.5t92.5 -7v-141 q-54 0 -98 6t-89 23.5t-75.5 47t-50 80t-19.5 117.5zM207 1057q0 67 19.5 117t50 79t75.5 46.5t89 23.5t98 6v-141q-55 0 -92.5 -7t-57 -16.5t-29 -29.5t-11 -34.5t-1.5 -43.5h-141zM305 -2l330 741q141 16 213 85t72 210h141q0 -55 -8.5 -105t-32 -103t-60.5 -94.5 t-98.5 -75t-142.5 -48.5l-270 -610h-144zM473 -2l264 590h144l-265 -590h-143zM563 760v141q55 0 92.5 7t57 16.5t29 30t11 35t1.5 44.5h141q0 -67 -19.5 -117.5t-50 -80t-75.5 -47t-89 -23.5t-98 -6zM563 1188v141q54 0 98 -6t89 -23.5t75.5 -46.5t50 -79t19.5 -117h-141 q0 29 -1.5 43.5t-11 34.5t-29 29.5t-57 16.5t-92.5 7zM563 1356v141q119 0 209.5 -27.5t144 -70t87.5 -103t45.5 -117.5t11.5 -122h-141q0 299 -357 299zM891 418h141q0 -299 357 -299v-142q-119 0 -209.5 27.5t-144 70.5t-87.5 103.5t-45.5 117.5t-11.5 122zM891 440 q0 55 8.5 104.5t32 102.5t60.5 95t98.5 75.5t142.5 48.5l270 609h142l-328 -740q-142 -16 -213.5 -85t-71.5 -210h-141zM1057 418h141q0 -29 1.5 -43.5t11 -34.5t29 -29.5t57 -16.5t92.5 -7v-142q-54 0 -98 6t-89 24t-75.5 47t-50 79t-19.5 117zM1057 440q0 67 19.5 117 t50 79.5t75.5 48t89 24.5t98 6v-142q-55 0 -92.5 -7.5t-57 -17t-29 -30t-11 -35t-1.5 -43.5h-141zM1069 889l266 586h142l-265 -586h-143zM1411 -23v142q358 0 358 299h142q0 -65 -12 -122.5t-46 -117.5t-87.5 -103t-144.5 -70.5t-210 -27.5zM1411 145v142q55 0 92.5 7 t57 16.5t29 29.5t11 34.5t1.5 43.5h141q0 -67 -19.5 -117t-50 -79t-75.5 -47t-89 -24t-98 -6zM1411 573v142q54 0 98 -6t89 -24.5t75.5 -48t50 -79.5t19.5 -117h-141q0 29 -1.5 43.5t-11 35t-29 30t-57 17t-92.5 7.5zM1411 739v142q119 0 210 -27.5t144.5 -70.5t87.5 -103 t46 -117.5t12 -122.5h-142q0 299 -358 299z" />
<glyph unicode="&#x26;" horiz-adv-x="1525" d="M41 725h141q0 -289 162.5 -442.5t458.5 -153.5v-141q-355 0 -558.5 194t-203.5 543zM113 1075q0 83 29.5 149.5t81.5 110.5t115.5 75t141 47t146.5 23t143 7v-141q-58 0 -111.5 -5t-114.5 -16.5t-110 -35t-90 -56.5t-63.5 -84t-22.5 -115q0 -116 82 -284h-141 q-86 188 -86 325zM207 725h141q0 -223 113 -326.5t342 -103.5v-141q-287 0 -441.5 145t-154.5 426zM287 1026q0 72 31 126t78.5 85t115 50.5t128 25.5t130.5 6v-141q-57 0 -99.5 -3.5t-89.5 -15t-77 -31.5t-50 -55t-20 -84q0 -89 72 -239h-139q-80 159 -80 276zM375 725h141 q0 -153 63 -207.5t224 -54.5v-141q-219 0 -323.5 95.5t-104.5 307.5zM461 983q0 45 18 77t44.5 49.5t70 27.5t83 13t93.5 3v-141q-83 0 -120.5 -15.5t-37.5 -66.5q0 -59 56 -180h-138q-69 141 -69 233zM707 725h141l321 -725h-143zM793 1012v141q69 0 122 -10.5t103.5 -38.5 t78 -84.5t27.5 -140.5h-141q0 21 -0.5 31.5t-4 27.5t-10.5 25.5t-20.5 19.5t-33.5 16t-50.5 9t-70.5 4zM793 1178v141q119 0 209.5 -27.5t144 -70t87 -103t45 -117.5t11.5 -122h-139q0 299 -358 299zM793 1346v141q318 0 491.5 -162t173.5 -446h-141q0 82 -18.5 150.5 t-49 116t-74.5 84t-89.5 58t-99 35t-99.5 18.5t-94 5zM874 725h584v-141h-379l258 -584h-141zM1116 561h342v-141h-137l184 -420h-141z" />
<glyph unicode="'" horiz-adv-x="471" d="M82 750v725h141v-725h-141zM248 750v725h141v-725h-141z" />
<glyph unicode="(" horiz-adv-x="839" d="M61 451h142q0 -293 152 -444.5t444 -151.5v-142q-352 0 -545 193t-193 545zM61 473v533h142v-533h-142zM61 1028q0 352 193 544.5t545 192.5v-141q-292 0 -444 -151.5t-152 -444.5h-142zM227 451h142q0 -226 102 -328.5t328 -102.5v-141q-284 0 -428 144t-144 428z M227 473v533h142v-533h-142zM227 1028q0 284 144 427.5t428 143.5v-141q-226 0 -328 -102t-102 -328h-142z" />
<glyph unicode=")" horiz-adv-x="839" d="M41 20q226 0 328 102.5t102 328.5h141q0 -284 -143.5 -428t-427.5 -144v141zM41 -145q293 0 444.5 151.5t151.5 444.5h141q0 -352 -192.5 -545t-544.5 -193v142zM41 1458v141q571 0 571 -571h-141q0 226 -102 328t-328 102zM41 1624v141q352 0 544.5 -192.5t192.5 -544.5 h-141q0 293 -151.5 444.5t-444.5 151.5zM471 473v533h141v-533h-141zM637 473v533h141v-533h-141z" />
<glyph unicode="*" d="M82 1176v141h143v-141h-143zM250 1014v461h141l-2 -461h-139zM414 1178v139h143v-139h-143z" />
<glyph unicode="+" horiz-adv-x="872" d="M82 668v141h260v-141h-260zM367 381v709h141l-2 -709h-139zM530 670v139h261v-139h-261z" />
<glyph unicode="," horiz-adv-x="718" d="M-82 -248l322 725h141l-320 -725h-143zM86 -248l322 725h143l-322 -725h-143zM256 -248l319 725h144l-322 -725h-141z" />
<glyph unicode="-" d="M82 498v141h475v-141h-475zM82 666v139h475v-139h-475zM82 834v139h475v-139h-475z" />
<glyph unicode="." d="M82 0v475h141v-475h-141zM248 0v475h141v-475h-141zM416 0v475h141v-475h-141z" />
<glyph unicode="/" horiz-adv-x="1155" d="M0 -2l313 727h156l-313 -725zM184 0l312 725h155l-313 -725h-154zM322 748l313 727h153l-311 -727h-155zM367 0l313 725h156l-314 -725h-155zM504 748l313 727h156l-314 -727h-155zM688 748l313 727h154l-311 -727h-156z" />
<glyph unicode="0" horiz-adv-x="1581" d="M41 725h141q0 -292 152 -444t444 -152v-141q-352 0 -544.5 192.5t-192.5 544.5zM41 750q0 352 192.5 544.5t544.5 192.5v-141q-292 0 -444 -152t-152 -444h-141zM207 725h141q0 -226 102 -328t328 -102v-141q-571 0 -571 571zM207 750q0 571 571 571v-141 q-226 0 -328 -102t-102 -328h-141zM375 725h141q0 -157 52.5 -209.5t209.5 -52.5v-141q-215 0 -309 94t-94 309zM375 750q0 215 94 309t309 94v-141q-157 0 -209.5 -52.5t-52.5 -209.5h-141zM803 -12v141q292 0 444 152t152 444h141q0 -352 -192.5 -544.5t-544.5 -192.5z M803 154v141q226 0 328 102t102 328h141q0 -571 -571 -571zM803 322v141q157 0 209.5 52.5t52.5 209.5h141q0 -215 -94 -309t-309 -94zM803 1012v141q215 0 309 -94t94 -309h-141q0 157 -52.5 209.5t-209.5 52.5zM803 1180v141q571 0 571 -571h-141q0 226 -102 328t-328 102 zM803 1346v141q352 0 544.5 -192.5t192.5 -544.5h-141q0 292 -152 444t-444 152z" />
<glyph unicode="1" horiz-adv-x="923" d="M0 750l229 532q44 102 114.5 154.5t186.5 52.5q143 0 226.5 -86t83.5 -273v-380h-142v395q0 96 -45 150.5t-123 54.5q-51 0 -95 -30t-70 -91l-207 -479h-158zM182 750l201 467q23 53 61.5 81.5t85.5 28.5q61 0 103.5 -44t42.5 -134v-399h-141v403q0 18 -13 18 q-8 0 -14 -12l-172 -409h-154zM369 0v725h141v-725h-141zM535 0v725h141v-725h-141zM698 0v725h142v-725h-142z" />
<glyph unicode="2" horiz-adv-x="1435" d="M41 0v141h666v-141h-666zM41 166q0 559 666 559v-141q-148 0 -251.5 -29.5t-162.5 -86.5t-85 -130.5t-26 -171.5h-141zM41 879q0 284 174 446t492 162v-141q-48 0 -94 -5t-99.5 -18.5t-99.5 -35t-89.5 -58t-74.5 -84t-49.5 -116t-18.5 -150.5h-141zM207 166 q0 67 12.5 121.5t46 106t88 86.5t144.5 56t209 21v-141q-253 0 -324 -109h324v-141h-500zM207 879q0 65 12 122t46 117.5t87.5 103t144.5 70t210 27.5v-141q-359 0 -359 -299h-141zM375 879q0 67 19.5 117t50 79.5t75.5 47.5t89 24t98 6v-141q-55 0 -92.5 -7.5t-57 -17 t-29 -30t-11 -35t-1.5 -43.5h-141zM729 0v141h666v-141h-666zM729 166v141h666v-141h-666zM729 416v141q358 0 358 299h142q0 -65 -12 -122t-46 -117.5t-87.5 -103t-144.5 -70t-210 -27.5zM729 584v141q55 0 92.5 7t57 16.5t29 29.5t11 34.5t1.5 43.5h141q0 -67 -19.5 -117 t-50 -79t-75.5 -46.5t-89 -23.5t-98 -6zM729 1012v141q54 0 98 -6t89 -24t75.5 -47.5t50 -79.5t19.5 -117h-141q0 29 -1.5 43.5t-11 35t-29 30t-57 17t-92.5 7.5zM729 1178v141q119 0 210 -27.5t144.5 -70t87.5 -103t46 -117.5t12 -122h-142q0 299 -358 299zM729 1346v141 q318 0 492 -162t174 -446h-142q0 82 -18.5 150.5t-49 116t-74.5 84t-89.5 58t-99 35t-99.5 18.5t-94 5z" />
<glyph unicode="3" horiz-adv-x="1419" d="M41 594h141q0 -95 24 -171t67 -125.5t94 -84t113.5 -52t116 -25t110.5 -7.5v-141q-318 0 -492 161.5t-174 444.5zM41 879q0 284 174 446t492 162v-141q-48 0 -94 -5t-99.5 -18.5t-99.5 -35t-89.5 -58t-74.5 -84t-49.5 -116t-18.5 -150.5h-141zM207 594h141 q0 -299 359 -299v-141q-119 0 -210 27.5t-144.5 70t-87.5 103t-46 117.5t-12 122zM207 879q0 65 12 122t46 117.5t87.5 103t144.5 70t210 27.5v-141q-359 0 -359 -299h-141zM375 594h141q0 -29 1.5 -43.5t11 -34.5t29 -29.5t57 -16.5t92.5 -7v-141q-54 0 -98 6t-89 23.5 t-75.5 46.5t-50 79t-19.5 117zM375 879q0 67 19.5 117.5t50 80t75.5 47t89 23.5t98 6v-141q-55 0 -92.5 -7.5t-57 -17t-29 -30t-11 -35t-1.5 -43.5h-141zM729 -12v141q49 0 94.5 3t97.5 12t96 23.5t85.5 38.5t70.5 55.5t46.5 76.5t17.5 100q0 122 -84 289h137 q86 -185 86 -330q0 -82 -28.5 -148.5t-80 -110t-113.5 -74t-138 -46.5t-144.5 -23t-142.5 -7zM729 154v141q72 0 124 6.5t103.5 25t79 58.5t27.5 100q0 92 -72 242h137q80 -161 80 -278q0 -72 -31 -126.5t-78 -85.5t-113.5 -50.5t-127 -26t-129.5 -6.5zM729 322v141 q82 0 119 15t37 65q0 56 -58 184h138q71 -148 71 -238q0 -44 -17.5 -75.5t-44 -49t-70 -27.5t-82 -12.5t-93.5 -2.5zM729 1012v141q54 0 93 -2.5t82.5 -12.5t70 -28t44 -49.5t17.5 -75.5q0 -87 -71 -235h-138q58 128 58 182q0 50 -37 65t-119 15zM729 1178v141 q69 0 129.5 -6t127 -25t113.5 -50t78 -85t31 -125q0 -119 -80 -278h-137q72 150 72 239q0 49 -19.5 84t-49.5 55t-76.5 31.5t-89.5 15t-99 3.5zM729 1346v141q62 0 121 -4.5t125 -16.5t122.5 -31.5t109 -51.5t89 -73.5t58.5 -100.5t22 -130q0 -144 -86 -329h-137 q84 167 84 286q0 76 -33.5 133.5t-84.5 90t-122 53t-134 27t-134 6.5z" />
<glyph unicode="4" horiz-adv-x="1478" d="M41 664q0 136 80 321h139q-78 -163 -78 -283q0 -76 33 -134t82.5 -91t119.5 -53t133 -26.5t134 -6.5v-141q-62 0 -121 4.5t-124.5 17t-121.5 32t-108 52t-88 74.5t-58 102t-22 132zM211 709q0 114 76 276h143q-68 -150 -68 -242q0 -48 18.5 -83t46.5 -54.5t72.5 -30.5 t86.5 -14.5t98 -3.5v-141q-473 0 -473 293zM295 1008l207 467h143l-207 -467h-143zM385 748q0 88 70 237h141q-59 -130 -59 -188q0 -46 34 -59t113 -13v-141q-55 0 -93 2.5t-80 12t-67 26.5t-42 48t-17 75zM463 1008l207 467h143l-207 -467h-143zM707 0v725h141v-725h-141z M874 0v1475h142l-2 -1475h-140zM1040 0v1475h142v-1475h-142zM1206 250v141h211v-141h-211zM1206 416v141h211v-141h-211zM1206 584v141h211v-141h-211z" />
<glyph unicode="5" horiz-adv-x="1468" d="M20 725h142q0 -292 152 -444t444 -152v-141q-352 0 -545 192.5t-193 544.5zM186 725h142q0 -226 102 -328t328 -102v-141q-284 0 -428 143.5t-144 427.5zM195 915v560h141v-560h-141zM354 725h142q0 -157 52.5 -209.5t209.5 -52.5v-141q-215 0 -309.5 94t-94.5 309z M362 915v560h140v-560h-140zM526 915v142h232v-142h-232zM526 1165v144h750v-142zM526 1333v142h750v-142h-750zM782 -12v141q57 0 110.5 7.5t116 25t113.5 52t94 84t67 125.5t24 171h141q0 -283 -174 -444.5t-492 -161.5zM782 154v141q357 0 357 299h141q0 -65 -11.5 -122 t-45.5 -117.5t-87.5 -103t-144 -70t-209.5 -27.5zM782 322v141q55 0 92.5 7t57 16.5t29 29.5t11 34.5t1.5 43.5h141q0 -67 -19.5 -117t-50 -79t-75.5 -46.5t-89 -23.5t-98 -6zM782 750v141q54 0 98 -6t89 -24t75.5 -47.5t50 -80t19.5 -117.5h-141q0 21 -0.5 32t-4 28 t-10.5 25.5t-21 19.5t-34 16.5t-50.5 9t-70.5 3.5zM782 915v142q119 0 209.5 -27.5t144 -70.5t87.5 -103.5t45.5 -117.5t11.5 -122h-141q0 299 -357 299z" />
<glyph unicode="6" horiz-adv-x="1509" d="M41 723h141q0 -292 152 -444t444 -152v-141q-352 0 -544.5 192.5t-192.5 544.5zM41 748q0 352 192.5 544.5t544.5 192.5v-142q-292 0 -444 -151.5t-152 -443.5h-141zM207 723h141q0 -226 102 -328t328 -102v-139q-571 0 -571 569zM207 748q0 571 571 571v-141 q-226 0 -328 -102t-102 -328h-141zM375 723h141q0 -157 52.5 -209.5t209.5 -52.5v-142q-215 0 -309 94.5t-94 309.5zM375 748q0 215 94 309t309 94v-141q-115 0 -171 -26t-77 -95h248v-141h-403zM803 -14v141q48 0 94 5t99.5 18.5t99 35t89.5 58t74.5 83.5t49 115t18.5 150 h141q0 -283 -173.5 -444.5t-491.5 -161.5zM803 154v139q356 0 356 299h141q0 -64 -11.5 -121t-45 -117t-87 -102.5t-144 -70t-209.5 -27.5zM803 319v142q40 0 70.5 3.5t50.5 8.5t33.5 16t20.5 19t10.5 25t4 27.5t0.5 31.5h142q0 -67 -19.5 -117t-50 -79t-75.5 -47t-89 -24 t-98 -6zM803 748v141q54 0 98 -6t89 -24t75.5 -47t50 -79t19.5 -117h-142q0 21 -0.5 31.5t-4 27.5t-10.5 25.5t-20.5 19.5t-33.5 16t-50.5 8.5t-70.5 3.5zM803 1178v141q119 0 209.5 -26.5t144 -67.5t87 -100t45 -115t11.5 -121h-141q0 46 -6.5 82t-28.5 76.5t-59.5 67.5 t-104 45t-157.5 18zM803 1343v142q312 0 488.5 -158t176.5 -438h-141q0 82 -19 149.5t-50.5 113.5t-76 81.5t-90 55.5t-99.5 33t-98.5 17t-90.5 4z" />
<glyph unicode="7" horiz-adv-x="1366" d="M41 999v142l664 -2v-142zM41 1167v142l664 -2v-142zM41 1333v142h664v-142h-664zM176 0l320 715h143l-322 -713zM344 2l322 713h141l-322 -713h-141zM512 2l322 713h141l-320 -713h-143zM676 739q78 158 145 259t148 167h-242v142h598v-142q-69 0 -127.5 -15 t-106.5 -46.5t-85 -66t-73 -89t-60.5 -99t-57.5 -110.5h-139zM727 1333v142h598v-142h-598zM840 739q37 75 68.5 128t76 108t91.5 88.5t110.5 54.5t138.5 21v-142q-52 1 -90.5 -4t-70.5 -20.5t-52.5 -31.5t-44.5 -51.5t-39 -64.5t-43 -86h-145z" />
<glyph unicode="8" horiz-adv-x="1400" d="M41 397q0 137 86 328h137q-84 -167 -84 -289q0 -55 17.5 -100.5t46.5 -77t70.5 -55.5t85.5 -38t96.5 -23t97.5 -12t94 -3v-141q-62 0 -121 4.5t-125 17t-122.5 32.5t-108.5 52t-89 73.5t-59 101t-22 130.5zM41 1075q0 82 28.5 148.5t79.5 110.5t113.5 75t138.5 47.5 t145 23.5t142 7v-141q-71 0 -134 -6.5t-134 -27t-122 -53.5t-84.5 -91t-33.5 -134q0 -119 84 -286h-137q-86 191 -86 327zM209 444q0 116 82 281h137q-72 -150 -72 -242q0 -60 27.5 -100t79 -58.5t103 -25t122.5 -6.5v-141q-69 0 -129.5 6t-127 25t-113.5 50t-78 85t-31 126 zM209 1026q0 71 31 125t78 85.5t113.5 50.5t127 25.5t129.5 6.5v-141q-71 0 -123 -6.5t-103 -25.5t-78.5 -59t-27.5 -100q0 -89 72 -239h-137q-82 163 -82 278zM383 489q0 90 70 236h137q-55 -121 -55 -182q0 -51 36 -66.5t117 -15.5v-142q-54 0 -92.5 3t-81.5 13 t-69.5 27.5t-44 49.5t-17.5 77zM383 983q0 45 17.5 77t44 49.5t69.5 27.5t81.5 13t92.5 3v-141q-81 0 -117 -15.5t-36 -66.5q0 -64 55 -182h-137q-70 146 -70 235zM711 -14v141q49 0 94.5 3t97.5 12t96 23.5t85.5 38.5t70.5 55.5t46.5 76.5t17.5 100q0 122 -84 289h139 q86 -191 86 -328q0 -99 -42.5 -174.5t-107.5 -119t-155 -71t-172 -37t-172 -9.5zM711 152v141q56 0 99 3.5t89 15t76 31.5t49.5 55.5t19.5 84.5q0 94 -71 242h137q82 -165 82 -281q0 -72 -31 -126t-78.5 -85t-114.5 -50t-127.5 -25t-129.5 -6zM711 319v142q82 0 118.5 15 t36.5 65q0 58 -57 184h139q70 -146 70 -236q0 -45 -17.5 -77t-44 -49.5t-70 -27.5t-82.5 -13t-93 -3zM711 1012v141q54 0 93 -3t82.5 -13t70 -27.5t44 -49.5t17.5 -77q0 -92 -70 -235h-139q57 126 57 182q0 50 -37 66t-118 16zM711 1178v141q56 0 107 -4.5t108 -16 t103 -33.5t83.5 -53t58.5 -78.5t21 -107.5q0 -115 -82 -278h-137q71 148 71 239q0 49 -19.5 84.5t-49.5 55.5t-76 32t-89 15.5t-99 3.5zM711 1346v141q90 0 172 -9.5t172 -37t155 -71.5t107.5 -119.5t42.5 -174.5q0 -136 -86 -327h-139q84 167 84 286q0 76 -33.5 133.5 t-84.5 90.5t-122 53.5t-134.5 27.5t-133.5 7z" />
<glyph unicode="9" horiz-adv-x="1509" d="M41 584h141q0 -82 19 -149.5t50 -113.5t75.5 -81.5t90.5 -56t100 -33t98.5 -17t91.5 -4.5v-141q-313 0 -489.5 158t-176.5 438zM41 881q0 284 174 445t492 161v-141q-48 0 -94 -4.5t-99.5 -18t-99.5 -35t-89.5 -58t-74.5 -83.5t-49.5 -115.5t-18.5 -150.5h-141zM207 584 h141q0 -45 6.5 -81.5t29 -76.5t60 -67t105 -44.5t158.5 -17.5v-141q-119 0 -210 26.5t-144.5 67.5t-87.5 99.5t-46 114.5t-12 120zM207 881q0 65 12 122t46 117.5t87.5 103t144.5 70t210 27.5v-141q-359 0 -359 -299h-141zM375 858h141q0 -29 1.5 -43.5t11 -35t29 -30 t57 -17t92.5 -7.5v-141q-54 0 -98 6t-89 24t-75.5 47.5t-50 79.5t-19.5 117zM375 881q0 67 19.5 117t50 79t75.5 46.5t89 23.5t98 6v-141q-55 0 -92.5 -7t-57 -16.5t-29 -29.5t-11 -34.5t-1.5 -43.5h-141zM729 -12v141q293 0 445.5 152.5t152.5 445.5h141 q0 -352 -193.5 -545.5t-545.5 -193.5zM729 156v141q226 0 328 101.5t102 328.5h141q0 -571 -571 -571zM729 322v141q116 0 172 26.5t76 94.5h-248v141q271 2 406 2q0 -216 -95 -310.5t-311 -94.5zM729 1012v141q216 0 311 -94t95 -309h-142q0 156 -53.5 209t-210.5 53z M729 1180v141q571 0 571 -571h-141q0 226 -102 328t-328 102zM729 1346v141q352 0 545.5 -192.5t193.5 -544.5h-141q0 293 -152.5 444.5t-445.5 151.5z" />
<glyph unicode=":" d="M82 0v475h141v-475h-141zM82 709v475h141v-475h-141zM248 0v475h141v-475h-141zM248 709v475h141v-475h-141zM416 0v475h141v-475h-141zM416 709v475h141v-475h-141z" />
<glyph unicode=";" horiz-adv-x="800" d="M-82 -248l322 725h141l-320 -725h-143zM86 -248l322 725h143l-322 -725h-143zM231 709v475h142v-475h-142zM256 -248l319 725h144l-322 -725h-141zM397 709l2 475h142l-2 -475h-142zM565 709v475h142v-475h-142z" />
<glyph unicode="&#x3c;" horiz-adv-x="641" d="M43 752q9 112 90 188.5t209 108.5l217 53v-146l-205 -51q-157 -41 -170 -160q-13 -138 150 -180l225 -61v-148l-248 66q-148 40 -213 133t-55 197zM209 741q8 104 153 142l197 51v-139l-178 -45q-18 -5 -18 -12.5t18 -12.5l178 -47v-148l-219 58q-74 20 -105 61t-26 92z " />
<glyph unicode="=" horiz-adv-x="872" d="M82 498v141h709v-141h-709zM82 834v139h709v-139h-709z" />
<glyph unicode="&#x3e;" horiz-adv-x="641" d="M82 356v148l225 61q161 42 148 180q-10 119 -170 160l-203 51v146l215 -53q128 -32 209.5 -108.5t91.5 -188.5q5 -66 -16.5 -127.5t-86 -118.5t-165.5 -84zM82 530v148l176 47q12 3 17 7.5t1 9.5t-16 8l-178 45v139l194 -51q148 -38 156 -142q8 -116 -133 -153z" />
<glyph unicode="?" horiz-adv-x="751" d="M82 0v475h141v-475h-141zM82 1012v141q53 0 90 -3t77.5 -12.5t63.5 -26.5t39.5 -47t14.5 -72.5t-20.5 -104t-57.5 -139.5l-66 -134h-137l66 134q36 72 52 119.5t17.5 77t-17.5 44t-46 19t-76 4.5zM82 1178v141q48 0 90.5 -3t90.5 -11.5t87.5 -22t76 -36.5t60.5 -53 t37.5 -73.5t11.5 -96.5t-22.5 -123t-60.5 -152l-66 -134h-137l65 134q40 82 58 147t18 109.5t-18.5 77t-45 50.5t-69 29t-82.5 14t-94 3zM82 1346v141q79 0 153 -8t154 -29.5t142 -56t108.5 -92.5t62.5 -133t-4.5 -182.5t-83.5 -237.5l-65 -134h-137l65 134 q53 109 72.5 198.5t9.5 150.5t-45 107t-81.5 72.5t-109.5 42.5t-119.5 21.5t-121.5 5.5zM248 0v475h141v-475h-141zM416 0v475h141v-475h-141z" />
<glyph unicode="@" horiz-adv-x="1601" d="M41 725h141q0 -290 151 -436t445 -146v-141q-353 0 -545 186.5t-192 536.5zM41 750q0 352 192.5 544.5t544.5 192.5v-141q-292 0 -444 -152t-152 -444h-141zM375 725h141q0 -157 52.5 -209.5t209.5 -52.5v-141q-215 0 -309 94t-94 309zM375 750q0 215 94 309t309 94v-141 q-157 0 -209.5 -52.5t-52.5 -209.5h-141zM803 2v141h725v-141h-725zM803 322v141q157 0 209.5 52.5t52.5 209.5h141v-262h193v262h141v-403h-463v88q-77 -88 -274 -88zM803 1012v141q215 0 309 -94t94 -309h-141q0 157 -52.5 209.5t-209.5 52.5zM803 1346v141 q352 0 544.5 -192.5t192.5 -544.5h-141q0 292 -152 444t-444 152z" />
<glyph unicode="A" horiz-adv-x="1640" d="M0 0l137 725h144l-138 -725h-143zM145 748q21 103 42.5 182.5t52 158t66.5 136t85 108t109 82.5t137.5 51.5t171.5 22.5v-141q-76 -6 -137.5 -23t-109 -42.5t-85.5 -66t-65.5 -85t-50.5 -108.5t-39.5 -126.5t-34.5 -148.5h-142zM168 0l139 725h142l-46 -236q96 65 265 80 v-141q-54 -5 -96.5 -17.5t-75 -29.5t-57.5 -45.5t-43 -58.5t-33.5 -76.5t-26 -90.5t-23.5 -110h-145zM313 748q17 83 32.5 143t37.5 121.5t47.5 103.5t61.5 81t81 63t104 40.5t132 22.5v-141q-63 -6 -110 -20t-82 -42t-59 -59t-43 -83.5t-31.5 -102t-28.5 -127.5h-142z M338 0q15 74 26.5 120t30 94.5t40 76.5t54.5 53t76.5 38t102.5 19v-141q-26 -3 -46.5 -7.5t-37 -14.5t-27.5 -18t-21.5 -28.5t-16.5 -33t-14.5 -44.5t-12.5 -51t-13 -63h-141zM479 748q13 64 23 105t24.5 86.5t30.5 73t39.5 55.5t53 44t69.5 27.5t90 15.5v-141 q-41 -4 -68.5 -16t-45.5 -29.5t-31 -50.5t-21 -67t-20 -92q-1 -7 -2 -11h-142zM690 430v139h326v-139h-326zM692 260v141h324v-141h-324zM831 1014v141q50 -4 90 -15.5t69.5 -27.5t53 -44t39.5 -55.5t30.5 -73t24.5 -86.5t23 -105h-141q-29 140 -48 180q-30 62 -98 79 q-19 5 -43 7zM831 1182v141q73 -6 132 -22.5t104 -40.5t81 -63t61.5 -81t47.5 -103.5t37.5 -121.5t32.5 -143h-141q-16 78 -28 127t-31.5 102t-43.5 84t-59 59t-82.5 42t-110.5 20zM831 1348v141q94 -3 172 -22.5t138.5 -51.5t109.5 -83t84.5 -108t65.5 -136t51.5 -158 t42.5 -182h-141q-18 86 -34.5 149t-40 126.5t-51 108t-65.5 85t-85.5 66t-109 42.5t-137.5 23zM1024 725h141l140 -725h-144zM1192 725h141l140 -725h-144zM1360 725h143l137 -725h-143z" />
<glyph unicode="B" horiz-adv-x="1484" d="M82 0v725h141v-725h-141zM82 748v727h141v-727h-141zM250 0v725h141v-725h-141zM250 748v727h141v-727h-141zM416 0v725h141v-586h236v-139h-377zM416 748v727h377v-142h-236v-585h-141zM580 166v141h213v-141h-213zM580 334v141h213v-141h-213zM580 997v142h213v-142 h-213zM580 1165v142h213v-142h-213zM815 0v139q489 0 489 289q0 122 -87 295h137q62 -131 80 -239q10 -57 9 -104q1 -42 -7 -76q-16 -74 -64 -130t-109 -88.5t-142 -52.5t-153 -26.5t-153 -6.5zM815 166v141q43 0 74 1.5t68 6.5t62 13.5t50 24t37 37.5q14 20 20 52 q3 16 3 35q0 17 -3 37q-6 40 -24 92.5t-49 116.5h139q40 -81 60.5 -150t22.5 -121v-13q0 -43 -12 -81q-14 -42 -38.5 -72t-61.5 -52t-76.5 -34.5t-88.5 -20.5t-91.5 -10.5t-91.5 -2.5zM815 332v141q37 0 57 1t42 6t29 15.5t11.5 27.5t-3 44.5t-21.5 65t-39 90.5h137 q38 -78 55.5 -139t20.5 -102v-8q0 -36 -16 -62q-18 -28 -40.5 -43.5t-64.5 -24t-77.5 -10.5t-90.5 -2zM815 997v142q55 0 90.5 -2t77.5 -10.5t65 -24.5q22 -16 40 -44q16 -26 16 -61v-8q-2 -41 -20 -102t-56 -139h-137q21 46 35.5 80t20.5 60.5t8.5 44.5t-5.5 30.5t-16.5 19 t-29.5 10t-38.5 4t-50.5 0.5zM815 1163v142q49 0 91.5 -2.5t91.5 -10.5t88.5 -20.5t76.5 -34.5t61.5 -51.5t38.5 -71.5q12 -37 12 -82v-13q-2 -52 -22.5 -121t-60.5 -150h-139q31 64 49 117t24 93q3 19 3 36q1 18 -3 34q-6 32 -19 53.5t-38 36.5t-50 24t-62 13.5t-68 6 t-74 1.5zM815 1331v142q81 0 153 -6.5t153 -27t142 -53t109 -88.5t64 -130q8 -35 7 -77q1 -47 -9 -105q-18 -108 -80 -238h-137q53 108 73 196q13 58 13 105q0 23 -3 43q-10 60 -46.5 104.5t-83.5 69.5t-112 40.5t-121 20t-122 4.5z" />
<glyph unicode="C" horiz-adv-x="1560" d="M41 725h141q0 -290 151.5 -437t444.5 -147v-141q-353 0 -545 187.5t-192 537.5zM41 750q0 352 192.5 544.5t544.5 192.5v-141q-292 0 -444 -152t-152 -444h-141zM207 725h141q0 -224 101.5 -321t328.5 -97v-141q-286 0 -428.5 138t-142.5 421zM207 750q0 571 571 571 v-141q-226 0 -328 -102t-102 -328h-141zM375 725h141q0 -81 11 -128t42.5 -76t79 -38.5t129.5 -9.5v-139q-217 0 -310 88.5t-93 302.5zM375 750q0 215 94 309t309 94v-141q-157 0 -209.5 -52.5t-52.5 -209.5h-141zM803 0v141h665v-141h-665zM803 166v141h665v-141h-665z M803 334v139h665v-139h-665zM803 1012v141q215 0 309 -94t94 -309h-141q0 157 -52.5 209.5t-209.5 52.5zM803 1180v141q571 0 571 -571h-141q0 226 -102 328t-328 102zM803 1346v141q352 0 544.5 -192.5t192.5 -544.5h-141q0 292 -152 444t-444 152z" />
<glyph unicode="D" horiz-adv-x="1523" d="M82 0v725h141v-725h-141zM82 748v727h141v-727h-141zM250 0v725h141v-725h-141zM250 748v727h141v-727h-141zM416 0v725h141v-586h164v-139h-305zM416 748v727h305v-142h-164v-585h-141zM580 166v141h141v-141h-141zM580 334v141h141v-141h-141zM580 997v142h141v-142 h-141zM580 1165v142h141v-142h-141zM745 0v141q294 0 445 145.5t151 436.5h142q0 -350 -192 -536.5t-546 -186.5zM745 166v141q228 0 329.5 96t101.5 320h141q0 -282 -143 -419.5t-429 -137.5zM745 334v139q82 0 129.5 9.5t79.5 37.5t43 75t11 128h141q0 -213 -93.5 -301 t-310.5 -88zM745 997v142q217 0 310.5 -89t93.5 -302h-141q0 81 -11 127.5t-43 75t-79 37.5t-130 9zM745 1165v142q286 0 429 -138t143 -421h-141q0 224 -101.5 320.5t-329.5 96.5zM745 1333v142q353 0 545.5 -189t192.5 -538h-142q0 290 -151.5 437.5t-444.5 147.5z" />
<glyph unicode="E" horiz-adv-x="1312" d="M41 727h141q0 -292 151.5 -439t444.5 -147v-141q-353 0 -545 188t-192 539zM41 752q0 350 192 536.5t545 186.5v-142q-294 0 -445 -145t-151 -436h-141zM207 727h141q0 -224 101.5 -321t328.5 -97v-141q-286 0 -428.5 138t-142.5 421zM207 752q0 283 142.5 420t428.5 137 v-142q-228 0 -329 -95.5t-101 -319.5h-141zM375 727h403v-141h-246q20 -64 75.5 -87.5t170.5 -23.5v-141q-217 0 -310 89t-93 304zM375 752q0 213 93 301t310 88v-142q-117 0 -172 -21.5t-74 -84.5h246v-141h-403zM803 0v141h448v-141h-448zM803 168v141h448v-141h-448z M803 334v141h448v-141h-448zM803 586v141h330v-141h-330zM803 752v141h330v-141h-330zM803 999v142h448v-142h-448zM803 1167v142h448v-142h-448zM803 1333v142h448v-142h-448z" />
<glyph unicode="F" horiz-adv-x="1243" d="M61 0v725h142v-725h-142zM61 750q0 350 192.5 537.5t545.5 187.5v-142q-293 0 -444.5 -146.5t-151.5 -436.5h-142zM227 0v725h142v-158q130 160 430 160v-141q-226 0 -328 -102t-102 -328v-156h-142zM227 750q0 283 143 421t429 138v-142q-228 0 -329 -96.5t-101 -320.5 h-142zM395 0q0 211 14 291q27 152 129 214q92 54 261 54v-141q-157 0 -209.5 -52.5t-52.5 -209.5v-156h-142zM395 750q0 213 93.5 302t310.5 89v-142q-83 0 -130 -9t-78.5 -37.5t-42.5 -75t-11 -127.5h-142zM823 418v141h379v-141h-379zM823 586v141h379v-141h-379zM823 999 v142h379v-142h-379zM823 1167v142h379v-142h-379zM823 1333v142h379v-142h-379z" />
<glyph unicode="G" horiz-adv-x="1601" d="M41 725h141q0 -292 152 -444t444 -152v-141q-352 0 -544.5 192.5t-192.5 544.5zM41 750q0 350 192 537.5t545 187.5v-142q-293 0 -444.5 -146.5t-151.5 -436.5h-141zM207 725h141q0 -226 102 -328t328 -102v-141q-571 0 -571 571zM207 750q0 283 142.5 421t428.5 138 v-142q-228 0 -329 -96.5t-101 -320.5h-141zM375 725h141q0 -157 52.5 -209.5t209.5 -52.5v-141q-215 0 -309 94t-94 309zM375 750q0 214 93 302.5t310 88.5v-142q-83 0 -130 -9t-78.5 -37.5t-42.5 -75t-11 -127.5h-141zM799 584v141h407q0 -215 -94 -309t-309 -94v141 q116 0 172 26t76 95h-252zM803 154v141q226 0 328 102t102 328h141v-725h-141v299q-145 -145 -430 -145zM803 999v142h567v-142h-567zM803 1167v142h567v-142h-567zM803 1333v142h567v-142h-567zM1399 0v725h141v-725h-141z" />
<glyph unicode="H" horiz-adv-x="1566" d="M82 0v725h141v-725h-141zM82 750v725h141v-725h-141zM248 0v725h141v-725h-141zM248 750v725h141v-725h-141zM416 0v725h571v-139h-430v-586h-141zM416 750v725h141v-586h430v-141zM582 915v142h405v-142h-405zM1010 0v723h141v-723h-141zM1010 748v727h141v-725zM1176 0 v723h141v-723h-141zM1176 750v725h143v-723zM1343 0v723h142v-723h-142zM1343 752v723h142v-723h-142z" />
<glyph unicode="I" d="M82 0v725h141v-725h-141zM82 750v725h141v-725h-141zM250 0v725h141v-725h-141zM250 750v725h141v-725h-141zM416 0v725h141v-725h-141zM416 750v725h141v-725h-141z" />
<glyph unicode="J" horiz-adv-x="1513" d="M0 725h141q0 -596 574 -596v-141q-349 0 -532 191.5t-183 545.5zM166 725h141q0 -229 92.5 -329.5t315.5 -100.5v-141q-282 0 -415.5 142t-133.5 429zM334 725h141q0 -84 8 -130t34 -78.5t72 -43t126 -10.5v-141q-212 0 -296.5 92t-84.5 311zM737 -12v141q574 0 574 596 h141q0 -354 -183 -545.5t-532 -191.5zM737 154v141q224 0 316 100.5t92 329.5h141q0 -287 -133.5 -429t-415.5 -142zM737 322v141q80 0 126 10.5t72 43t34 78.5t8 130h141q0 -219 -84 -311t-297 -92zM977 750v725h141v-725h-141zM1145 750v725h141v-725h-141zM1311 750v725 h141v-725h-141z" />
<glyph unicode="K" horiz-adv-x="1533" d="M82 0v723h141v-723h-141zM82 750v725h141v-725h-141zM250 0v723h141v-723h-141zM250 750v725h141v-725h-141zM416 0v723h370v-139h-229v-584h-141zM416 750v725h141v-584h229v-141h-370zM580 918v141h206v-141h-206zM809 584v141q59 -6 102.5 -19t76.5 -38t54.5 -53 t40 -76.5t30 -94.5t26.5 -120h-142q-7 36 -10.5 51t-10 43t-10.5 39t-11 31.5t-13.5 27.5t-16.5 20.5t-21 18.5t-25.5 12.5t-31.5 11t-38 5.5zM809 750v141q85 -7 151 -26t115 -54.5t84 -78.5t62 -109.5t45.5 -134t38.5 -164.5h-142q-19 94 -34 149.5t-41 111.5t-61 86 t-88.5 51t-129.5 28zM809 918v141q64 6 111 19t82.5 38.5t59 55t43 79t32.5 98.5t28 126h142q-38 -191 -88 -301.5t-142 -174.5q87 -38 151.5 -99.5t110 -151t76 -187.5t58.5 -237h-142q-21 100 -40.5 171t-48.5 140t-66.5 114.5t-89 83t-120 58t-157.5 27.5zM809 1083v142 q35 4 59.5 10.5t43.5 22t30 30t22 47t17.5 59.5t17.5 81h142q-15 -74 -27 -119.5t-30.5 -92.5t-40.5 -74t-55 -51.5t-76.5 -36.5t-102.5 -18zM1001 299h142l55 -299h-141zM1167 299h144l55 -299h-141zM1335 299h142l57 -299h-141z" />
<glyph unicode="L" horiz-adv-x="1103" d="M61 725h142q0 -290 151.5 -437t444.5 -147v-141q-353 0 -545.5 187.5t-192.5 537.5zM61 750v725h142v-725h-142zM227 725h142q0 -224 101.5 -321t328.5 -97v-141q-286 0 -429 138t-143 421zM227 750v725h142v-725h-142zM395 725h142q0 -81 11 -128t42.5 -76t79 -38.5 t129.5 -9.5v-139q-217 0 -310.5 89t-93.5 302zM395 750v725h142v-725h-142zM823 0v141h260v-141h-260zM823 166v141h260v-141h-260zM823 334v139h260v-139h-260z" />
<glyph unicode="M" horiz-adv-x="2152" d="M0 0l137 717h144l-138 -717h-143zM145 739q21 103 42 181t51 155t65.5 133t84.5 105.5t109.5 81.5t138.5 52.5t173 27.5v-142q-89 -7 -157.5 -27.5t-120 -58t-89 -83t-66.5 -114.5t-48.5 -140t-40.5 -171h-142zM168 0l139 717h142l-138 -717h-143zM313 739 q20 97 38.5 164.5t45.5 134t62 109.5t84 79t115 55t151 26v-142q-63 -6 -110 -19.5t-82 -40.5t-59 -57.5t-43 -81.5t-32 -100.5t-28 -126.5h-142zM336 0l139 717h141l-137 -717h-143zM479 739q15 74 26.5 120t30 94.5t40 77t54.5 53.5t76.5 38t102.5 19v-142 q-21 -2 -38 -5.5t-31.5 -11t-25.5 -12.5t-21 -18.5t-16.5 -20.5t-13.5 -27.5t-11 -31.5t-10.5 -39t-10 -43t-10.5 -51h-142zM831 999v142q59 -6 102.5 -19t76.5 -38t54.5 -53.5t40 -77t30 -94.5t26.5 -120h-141q-9 43 -13 62.5t-12.5 51t-14.5 44.5t-16.5 33t-21.5 28 t-27.5 18.5t-37 15t-46.5 7.5zM831 1165v142h488v-142h-178q75 -58 112.5 -154t73.5 -272h-141q-13 67 -23.5 110t-26 90.5t-32.5 76.5t-42 58t-57 45.5t-74.5 28.5t-96.5 17h-3zM831 1333v142h488v-142h-488zM1024 717h141l140 -717h-144zM1192 717h141l140 -717h-144z M1343 999v142q51 -5 90 -16.5t68.5 -27t53 -42.5t39.5 -54t30.5 -72t24 -85.5t22.5 -104.5h-141q-28 137 -47 176q-28 58 -93 75q-20 6 -47 9zM1343 1165v142q73 -6 132 -22t104 -39.5t80.5 -62t61.5 -79.5t48 -102t37.5 -120.5t32.5 -142.5h-141q-16 78 -29 127 t-32.5 100.5t-43 81.5t-58.5 57t-82 40.5t-110 19.5zM1343 1333v142q111 -8 198.5 -33.5t153 -72t113.5 -104.5t85 -143t62.5 -173.5t49.5 -209.5h-141q-20 100 -39.5 171t-48.5 140t-66 114.5t-89 83t-120.5 58t-157.5 27.5zM1534 717h143l138 -717h-142zM1702 717h143 l137 -717h-141zM1872 717h141l139 -717h-143z" />
<glyph unicode="N" horiz-adv-x="1613" d="M82 1141v8q0 71 18 129q18 61 48.5 99.5t71.5 64.5t83.5 36.5t87.5 10.5q108 0 182.5 -51t126.5 -156l269 -532h-156l-248 479q-32 63 -72.5 91t-101.5 28q-81 0 -124.5 -53t-43.5 -150l2 -395h-141zM84 0v725h141v-725h-141zM246 750v399q0 90 43 134t102 44 q53 0 90 -27.5t66 -82.5l241 -467h-153l-213 409q-7 17 -19 17q-14 0 -14 -27v-399h-143zM248 0v725h141v-725h-141zM414 0v725h141l-2 -725h-139zM645 725h156l248 -479q31 -60 77.5 -90.5t96.5 -30.5q81 0 124.5 54.5t43.5 150.5v395h141v-397q0 -94 -28.5 -163.5 t-75.5 -106.5t-98.5 -54.5t-106.5 -17.5q-204 0 -308 207zM825 725h156l211 -410q10 -16 18 -16q15 0 15 27v399h143v-399q0 -90 -42.5 -134.5t-100.5 -44.5q-97 0 -156 111zM1061 750v725h139v-725h-139zM1225 750v725h141v-725h-141zM1391 750v725h141v-725h-141z" />
<glyph unicode="O" horiz-adv-x="1581" d="M41 725h141q0 -292 152 -444t444 -152v-141q-352 0 -544.5 192.5t-192.5 544.5zM41 750q0 352 192.5 544.5t544.5 192.5v-141q-292 0 -444 -152t-152 -444h-141zM207 725h141q0 -226 102 -328t328 -102v-141q-571 0 -571 571zM207 750q0 571 571 571v-141 q-226 0 -328 -102t-102 -328h-141zM375 725h141q0 -157 52.5 -209.5t209.5 -52.5v-141q-215 0 -309 94t-94 309zM375 750q0 215 94 309t309 94v-141q-157 0 -209.5 -52.5t-52.5 -209.5h-141zM803 -12v141q292 0 444 152t152 444h141q0 -352 -192.5 -544.5t-544.5 -192.5z M803 154v141q226 0 328 102t102 328h141q0 -571 -571 -571zM803 322v141q157 0 209.5 52.5t52.5 209.5h141q0 -215 -94 -309t-309 -94zM803 1012v141q215 0 309 -94t94 -309h-141q0 157 -52.5 209.5t-209.5 52.5zM803 1180v141q571 0 571 -571h-141q0 226 -102 328t-328 102 zM803 1346v141q352 0 544.5 -192.5t192.5 -544.5h-141q0 292 -152 444t-444 152z" />
<glyph unicode="P" horiz-adv-x="1470" d="M82 0v721h141v-721h-141zM82 745v730h141v-730h-141zM250 0v721h141v-721h-141zM250 745v730h141v-730h-141zM416 0v721h141v-721h-141zM416 745v730h325v-144h-184v-586h-141zM580 414v139h161v-139h-161zM580 580v141h161v-141h-161zM580 993v142h161v-142h-161z M580 1163v142h161v-142h-161zM764 246v141q48 0 94 4.5t99.5 18t99 34.5t89.5 57t74.5 82.5t49 114.5t18.5 150h142q0 -282 -174 -442t-492 -160zM764 414v139q356 0 356 295h142q0 -64 -12 -120.5t-45.5 -116t-87 -101.5t-144 -69t-209.5 -27zM764 580v141q63 0 102.5 8.5 t58 27.5t24 38.5t5.5 52.5h142q0 -67 -19.5 -116.5t-49.5 -78t-75.5 -45.5t-89 -22.5t-98.5 -5.5zM764 993v142q55 0 98 -5t89 -21.5t76 -44t49.5 -76.5t19.5 -116h-142q0 33 -5.5 52t-24 36.5t-57.5 25t-103 7.5zM764 1163v144q119 0 209.5 -27t144 -69.5t87.5 -102 t45.5 -116t11.5 -120.5h-142q0 44 -7.5 81.5t-30.5 78t-60.5 68t-103.5 45.5t-154 18zM764 1331v144q318 0 492 -160.5t174 -442.5h-142q0 82 -18.5 149.5t-49 114.5t-74.5 82.5t-89.5 56.5t-99.5 34t-99.5 17.5t-93.5 4.5z" />
<glyph unicode="Q" horiz-adv-x="1583" d="M41 725h141q0 -284 153 -434t445 -150v-141q-352 0 -545.5 192t-193.5 533zM41 750q0 352 193 545.5t546 193.5v-141q-293 0 -445.5 -152.5t-152.5 -445.5h-141zM209 725h141q0 -219 101.5 -317.5t328.5 -98.5v-141q-285 0 -428 140.5t-143 416.5zM209 750q0 571 571 571 v-141q-227 0 -328.5 -102t-101.5 -328h-141zM375 725h141q0 -150 53 -199t211 -49v-141q-216 0 -310.5 91t-94.5 298zM375 750q0 216 94.5 310.5t310.5 94.5v-143q-157 0 -210.5 -53t-53.5 -209h-141zM803 0v141h727v-141h-727zM803 168v141q226 0 328 99t102 317h141 q0 -272 -160 -416h316v-141h-727zM803 336v141q158 0 211 49t53 199h141q0 -207 -94.5 -298t-310.5 -91zM803 1012v143q216 0 310.5 -94.5t94.5 -310.5h-141q0 156 -53.5 209t-210.5 53zM803 1180v141q571 0 571 -571h-141q0 226 -102 328t-328 102zM803 1348v141 q352 0 545.5 -193.5t193.5 -545.5h-141q0 293 -152.5 445.5t-445.5 152.5z" />
<glyph unicode="R" horiz-adv-x="1517" d="M82 0v725h141v-725h-141zM82 750v725h141v-725h-141zM250 0v725h141v-725h-141zM250 750v725h141v-725h-141zM416 0v725h141v-725h-141zM416 750v725h348v-142h-207v-583h-141zM580 420v141h184v-141h-184zM580 584v141h184v-141h-184zM580 997v142h184v-142h-184z M580 1167v142h184v-142h-184zM786 250v143h72q44 0 78.5 -5.5t63 -19t49.5 -29t39 -44t30.5 -54t25 -68.5t21.5 -79t21 -94h-142q-28 138 -45 175q-28 59 -89 71q-23 4 -52 4h-72zM786 420v141h72q73 0 132 -13t103.5 -35t80.5 -60.5t61.5 -80.5t48 -105t38 -122.5 t32.5 -144.5h-142q-14 68 -24.5 111.5t-26.5 93t-33 79t-42.5 58.5t-57 44t-74 24.5t-96.5 9.5h-72zM786 584v141h11q59 0 96.5 8.5t55 27.5t23 39t5.5 52h141q0 -102 -43 -164q81 -27 144.5 -72t109 -102.5t82 -139.5t61 -169.5t48.5 -204.5h-142q-17 86 -33.5 149 t-39.5 128t-50 109t-65 84.5t-85 64t-109 36.5t-138 13h-72zM788 997v142q55 0 98 -5t88.5 -21t75 -43.5t49 -76.5t19.5 -116h-141q0 26 -3 42t-13.5 32.5t-30.5 25.5t-55.5 14.5t-86.5 5.5zM788 1167v142q119 0 209.5 -26.5t144 -68t87 -100.5t45.5 -115.5t12 -121.5h-141 q0 290 -357 290zM788 1333v142q318 0 491 -158t173 -440h-141q0 82 -18.5 149.5t-49 114t-74.5 82t-89.5 56t-99.5 33t-99 17t-93 4.5z" />
<glyph unicode="S" horiz-adv-x="751" d="M49 1183q17 74 65.5 130.5t110 88t145 51.5t156 26t156.5 5v-143q-52 0 -96 -2.5t-97.5 -10t-95.5 -20t-83.5 -35.5t-67.5 -53q-28 -30 -44 -74q-15 -41 -14 -91v-9q2 -55 23 -129t65 -161h-141q-63 134 -81 244q-10 57 -9 104q0 44 8 79zM72 -8v145q67 0 124 4.5t123 20 t113.5 41t84.5 71.5t47 106q3 21 3 45q-1 47 -13 107q-20 90 -75 201h142q63 -134 81 -244q10 -57 9 -105q0 -44 -8 -80q-17 -76 -65 -133.5t-110 -90.5t-144.5 -53.5t-156 -27.5t-155.5 -7zM72 164v143q56 0 95.5 2.5t85 12.5t72 27t46.5 49t20 76t-18.5 110t-59.5 149h142 q41 -83 62 -154t23 -124q0 -8 1 -15q-1 -44 -13 -81q-14 -43 -39 -73t-63 -52.5t-78 -35.5t-90 -21t-93 -10.5t-93 -2.5zM72 334v143q33 0 51.5 1t39 4.5t29 10t16 19.5t5 31t-9.5 45.5t-21.5 62.5t-36.5 82h144q30 -62 48 -114q18 -53 25 -91q4 -22 4 -40q0 -15 -2 -28 q-6 -30 -16.5 -50.5t-34 -34.5t-46 -22t-58.5 -12.5t-65 -5.5t-72 -1zM212 1032v15q0 45 13 81q15 42 39.5 71t63 50.5t78 34t90 19.5t93 9t93.5 3v-146q-46 0 -75.5 -1t-69.5 -5t-64 -12t-50.5 -23t-38.5 -35.5t-20 -52.5q-4 -17 -4 -36q0 -17 4 -35q6 -40 24 -94t50 -119 h-139q-42 83 -63.5 153.5t-23.5 122.5zM388 1001v11q0 34 16 58q20 28 40.5 42.5t66.5 22t78.5 8.5t92.5 2v-146q-93 0 -115 -10q-24 -10 -24 -43q0 -16 5 -37q12 -48 60 -153h-143q-39 80 -56.5 142t-20.5 103z" />
<glyph unicode="T" horiz-adv-x="1421" d="M20 999v142h166v-142h-166zM20 1167v142h166v-142h-166zM20 1333v142h166v-142h-166zM211 999v142q215 0 309 -94.5t94 -309.5h-141q0 157 -52.5 209.5t-209.5 52.5zM211 1167v142h487v-142h-75q53 -35 88 -100q34 63 90 100h-76v142h487v-142q-227 0 -328.5 -102 t-101.5 -328h-141q0 225 -102.5 327.5t-327.5 102.5zM211 1333v142h487v-142h-487zM473 0v713h141v-713h-141zM641 0v713h141v-713h-141zM725 1333v142h487v-142h-487zM807 0v713h141v-713h-141zM807 737q0 215 94.5 309.5t310.5 94.5v-142q-157 0 -210.5 -53t-53.5 -209 h-141zM1235 999v142h166v-142h-166zM1235 1167v142h166v-142h-166zM1235 1333v142h166v-142h-166z" />
<glyph unicode="U" horiz-adv-x="1574" d="M61 725h142q0 -596 573 -596v-141q-349 0 -532 191.5t-183 545.5zM61 750v725h142v-725h-142zM227 725h142q0 -229 92 -329.5t315 -100.5v-141q-282 0 -415.5 142t-133.5 429zM227 750v725h142v-725h-142zM395 725h142q0 -84 7.5 -130t34 -78.5t72 -43t125.5 -10.5v-141 q-212 0 -296.5 92t-84.5 311zM395 750v725h142v-725h-142zM799 -12v141q573 0 573 596h141q0 -355 -182.5 -546t-531.5 -191zM799 154v141q223 0 315 100.5t92 329.5h142q0 -287 -133.5 -429t-415.5 -142zM799 322v141q80 0 125.5 10.5t72 43t34 78.5t7.5 130h142 q0 -219 -84 -311t-297 -92zM1038 750v725h142v-725h-142zM1206 750v725h142v-725h-142zM1372 750v725h141v-725h-141z" />
<glyph unicode="V" horiz-adv-x="1640" d="M0 1475h143l138 -727h-144zM145 727h142q21 -101 40.5 -171.5t48.5 -141t66.5 -117t89 -85t120 -59.5t157.5 -28v-141q-129 5 -228.5 41.5t-168 96t-120.5 155t-84.5 200t-62.5 250.5zM168 1475h143l138 -727h-142zM313 727h142q19 -95 34 -151.5t41.5 -113.5t61.5 -88 t88.5 -52.5t128.5 -28.5v-141q-102 8 -177 37t-125 72.5t-87.5 117.5t-60 152t-46.5 196zM336 1475h143l137 -727h-141zM479 727h142q1 -4 2 -11q28 -135 49 -176q31 -60 104 -76q15 -3 33 -5v-142q-50 5 -90 17t-69.5 28t-53 44t-39.5 56t-30.5 73.5t-24.5 86.5t-23 105z M831 -16v141q89 7 157.5 28t120.5 59.5t89 85t66.5 116.5t49 141.5t40.5 171.5h141q-21 -103 -42.5 -183t-52 -158.5t-67 -136t-85.5 -108t-109 -82.5t-137.5 -52t-170.5 -23zM831 152v141q63 6 110.5 20t82.5 41.5t59 58.5t43.5 83.5t31.5 102t28 128.5h141 q-24 -118 -46.5 -196t-60 -152t-87.5 -117.5t-125 -72.5t-177 -37zM831 317v142q41 5 69 17t46 31t30.5 50.5t22 69.5t20.5 93q1 5 1 7h141q-13 -64 -23 -105t-24.5 -86.5t-30.5 -73.5t-39.5 -56t-53 -44t-69.5 -28t-90 -17zM1024 748l137 727h144l-140 -727h-141zM1192 748 l137 727h144l-140 -727h-141zM1360 748l137 727h143l-137 -727h-143z" />
<glyph unicode="W" horiz-adv-x="2152" d="M0 1475h143l138 -719l-144 2zM145 735h142q21 -100 40.5 -171t48.5 -140.5t66.5 -115t89 -83t120 -57.5t157.5 -27v-141q-111 8 -198.5 33t-153 71.5t-114 104.5t-85.5 143t-62.5 173.5t-50.5 209.5zM168 1475h143l138 -719h-142zM313 735h142q13 -66 24 -110t26.5 -91 t33 -76.5t42.5 -58.5t57 -46t74.5 -29t96.5 -17v-141q-102 8 -177 36.5t-125 71.5t-87.5 116t-60 150t-46.5 195zM336 1475h143l137 -719h-141zM479 735h142q8 -37 11 -51t9.5 -43t10 -39.5t11.5 -31.5t14 -28t16 -20.5t21 -18.5t25.5 -12.5t31.5 -10.5t38 -5v-141 q-59 5 -102.5 17.5t-76.5 38t-54.5 53.5t-40 77t-30 95t-26.5 120zM680 1475h141l140 -719h-144zM823 735h142q12 -58 21.5 -97t22.5 -82.5t26.5 -71.5t33 -57.5t43 -47.5t54 -34t68.5 -25t85 -13v-141h-488v141h154q-57 66 -93 167.5t-69 260.5zM831 0v141h488v-141h-488z M848 1475h143l137 -719h-143zM991 735h142q28 -138 46 -175q27 -59 90 -76q21 -6 50 -9v-141q-50 4 -89.5 15.5t-69 26.5t-53 42.5t-39.5 54.5t-30.5 72t-24 85.5t-22.5 104.5zM1343 0v141q89 7 157.5 27t120.5 57.5t89 83.5t66 115t48.5 140t39.5 171h141 q-24 -121 -49.5 -209.5t-62.5 -173.5t-85 -143t-113.5 -104.5t-153 -71.5t-198.5 -33zM1343 166v141q54 5 96 17t74 29t57.5 46t43 58.5t33.5 76.5t26.5 91t24.5 110h141q-20 -98 -38.5 -165t-46 -134t-62.5 -110t-84 -79t-114.5 -55t-150.5 -26zM1343 334v141 q26 3 46.5 7.5t37 14.5t27.5 18t21.5 28.5t16.5 33t14.5 44.5t12.5 51t13 63h139q-13 -64 -22.5 -104.5t-24 -85.5t-30.5 -72t-39.5 -54.5t-53 -42.5t-69 -26.5t-89.5 -15.5zM1534 756l139 719h142l-138 -719h-143zM1702 756l139 719h141l-137 -719h-143zM1872 756l137 719 h143l-139 -717z" />
<glyph unicode="X" horiz-adv-x="1628" d="M0 0l55 289h144l-58 -289h-141zM61 313q28 139 58.5 237.5t76 188.5t110 151.5t151.5 98.5q-91 63 -140 176.5t-88 309.5h142q15 -78 27.5 -127.5t32 -101t43 -81.5t59 -56.5t82.5 -40t110 -19.5v-142q-89 -7 -157.5 -27.5t-120 -58t-89 -83t-66.5 -114.5t-48.5 -140 t-40.5 -171h-142zM168 0l55 289h144l-58 -289h-141zM229 313q17 83 32.5 143t37 120.5t47.5 102.5t62 80t81 62t104 40t132 22v-142q-63 -6 -110.5 -20t-82.5 -41.5t-58.5 -57.5t-43 -81.5t-31.5 -100.5t-28 -127h-142zM336 0l55 289h141l-55 -289h-141zM395 313 q15 74 26.5 120t30 94.5t40 77t54.5 53.5t76.5 38t102.5 19v-142q-41 -4 -69 -17t-44.5 -24t-31.5 -52t-20 -61.5t-20 -92.5q-2 -9 -3 -13h-142zM395 1475h142q28 -137 46 -174q27 -58 90 -75q22 -6 52 -9v-142q-59 5 -102.5 17.5t-76.5 37.5t-54.5 53t-40 76.5t-30 94.5 t-26.5 121zM745 573v142h138v-142h-138zM745 741v142h138v-142h-138zM745 907v142h138v-142h-138zM905 573v142q51 -5 90 -16.5t68.5 -27t53 -42.5t39.5 -54t30.5 -72t24 -85.5t22.5 -104.5h-141q-1 3 -2 10q-28 134 -48 173q-29 56 -100 71q-16 4 -37 6zM905 741v142 q73 -6 132 -22t104 -40t80.5 -62.5t61.5 -80t48 -102.5t37.5 -120.5t32.5 -142.5h-141q-14 66 -24.5 110t-26.5 91t-33.5 76t-42.5 58t-57.5 46t-74.5 29.5t-96 17.5zM905 907v142q63 6 109.5 19.5t82 40t59 56.5t43 81.5t32.5 101t29 127.5h141q-41 -198 -89.5 -310.5 t-137.5 -175.5q86 -37 150 -98.5t109.5 -151.5t75.5 -188.5t58 -237.5h-142q-20 100 -39.5 171t-48.5 140t-66 114.5t-88.5 83t-120 58t-157.5 27.5zM905 1075v142q21 2 38 5t31.5 10.5t25 12t21 18.5t16.5 20t13.5 28t11 31t10.5 39t9.5 43t10.5 51h141q-13 -64 -22.5 -105 t-24 -86t-30.5 -72t-39.5 -54t-53 -42t-68.5 -26t-90 -15zM1098 291h141l55 -291h-141zM1264 291h141l57 -291h-141zM1432 291h141l55 -291h-141z" />
<glyph unicode="Y" horiz-adv-x="1605" d="M0 1475h141l56 -299h-142zM59 1153h142q18 -87 33.5 -148t38 -125.5t48.5 -107.5t63 -83.5t83 -65t107 -41.5t137 -23v-559h-148l2 438q-82 18 -147 49.5t-114 80.5t-85.5 104.5t-66 135.5t-50.5 158t-43 187zM166 1475h141l58 -299h-142zM227 1153h142q12 -61 20.5 -98 t21 -82.5t24.5 -72t31 -57t41 -47.5t52 -33t67.5 -25t84.5 -13v-141q-57 4 -105 15t-86.5 26t-71 39t-57.5 50t-46 63.5t-37 74.5t-31 88.5t-26 99t-24 113.5zM334 1475h141l55 -299h-141zM393 1153h142q3 -16 9 -45q8 -40 12 -58t11.5 -45.5t14.5 -39t19 -27.5t27 -23 t35.5 -13t47.5 -9v-141q-44 4 -79 11.5t-63 23.5t-48 31t-37.5 44.5t-28.5 53t-23 68t-19.5 77t-19.5 92.5zM735 0v725h135v-725h-135zM893 0v559q76 6 137 23t107 41.5t83 65t63 83.5t48.5 107.5t38 125.5t33.5 148h141q-22 -108 -42.5 -187t-50 -158t-66 -135.5 t-85.5 -105.5t-114 -81t-146 -50v-436h-147zM893 584v141q54 5 96 17.5t73 28t55.5 46t40 57t31 77.5t24.5 91t24 111h141q-18 -86 -32.5 -143.5t-36 -120t-45.5 -103t-59 -79.5t-78.5 -62t-102 -39t-131.5 -22zM893 752v141q27 3 47.5 9t35.5 13t26.5 22.5t19 28t15 38.5 t12 46t11.5 58q6 29 9 45h141q-10 -48 -15.5 -75t-15 -65t-17 -59t-19 -49.5t-23.5 -43.5t-28.5 -34t-36 -29.5t-44 -21t-54 -16t-64.5 -8.5zM1075 1176l55 299h142l-55 -299h-142zM1241 1176l55 299h142l-56 -299h-141zM1409 1176l55 299h142l-58 -299h-139z" />
<glyph unicode="Z" horiz-adv-x="1552" d="M23 303q0 92 55.5 172t152.5 133l533 291v-162l-479 -264q-121 -66 -121 -164q0 -78 53 -123t148 -45h399v-141h-402q-76 0 -136.5 19t-97.5 49.5t-61.5 71.5t-34 81t-9.5 82zM86 999v142h678v-142h-678zM86 1165v142h678v-142h-678zM86 1333v142h678v-142h-678zM188 307 q0 86 111 148l465 258v-154l-410 -229q-8 -5 -8 -13q0 -10 14 -10h404v-141h-402q-89 0 -131.5 40.5t-42.5 100.5zM786 0v141h678v-141h-678zM786 166v141h678v-141h-678zM786 334v141h678v-141h-678zM788 571v162l480 264q121 66 121 168q0 77 -53.5 122.5t-147.5 45.5 h-400v142h396q146 0 247 -82.5t101 -225.5q0 -91 -57 -171t-154 -134zM788 758v153l408 228q12 7 10 16.5t-16 9.5h-402v142h400q80 0 128 -34.5t48 -105.5q0 -49 -28 -84.5t-83 -66.5z" />
<glyph unicode="[" horiz-adv-x="595" d="M82 -276v1001h141v-1001h-141zM82 748v1007h141v-1007h-141zM248 -276v1001h141v-860l166 -2l-2 -142zM248 748v1007h305l2 -141h-166v-866h-141zM414 31h139v-142h-139v142zM414 1446v141h139v-141h-139z" />
<glyph unicode="\" horiz-adv-x="1155" d="M0 1475h156l311 -727h-154zM184 1475h154l313 -727h-155zM322 725h155l311 -725h-155zM367 1475h155l314 -727h-156zM504 725h155l314 -725h-156zM688 725h156l311 -727l-154 2z" />
<glyph unicode="]" horiz-adv-x="595" d="M41 31h141v-142h-141v142zM41 -137l164 2v860h141v-1001l-305 -3v142zM41 1446v141h141v-141h-141zM41 1614v141h305v-1007h-141v866h-164zM373 -276v1001h141v-1001h-141zM373 748v1007h141v-1007h-141z" />
<glyph unicode="^" horiz-adv-x="786" d="M20 485l66 242q21 77 58.5 133.5t83 87t93 43.5t95.5 10q112 -7 189.5 -87t107.5 -207l53 -222h-145l-52 207q-41 156 -159 166q-139 13 -181 -151l-61 -222h-148zM195 485l57 215q41 143 154 136q103 -8 141 -152l51 -199h-139l-45 179q-3 11 -8 14.5t-9.5 -1 t-7.5 -15.5l-47 -177h-147z" />
<glyph unicode="_" horiz-adv-x="1339" d="M82 -135h1175v-141h-1175v141z" />
<glyph unicode="`" horiz-adv-x="1470" d="M571 1772h142q0 -25 1 -37t6 -30.5t16.5 -27.5t32 -19t53.5 -14t79 -4v-141q-54 0 -98 6t-88.5 24t-75 47t-49.5 79t-19 117z" />
<glyph unicode="a" horiz-adv-x="1550" d="M61 586h142q0 -114 36.5 -199.5t90.5 -133.5t128.5 -77t137.5 -38t131 -9v-141q-313 0 -489.5 158.5t-176.5 439.5zM61 891q0 281 176 438.5t490 157.5v-139q-68 0 -131 -9t-137.5 -38t-128.5 -77t-90.5 -133.5t-36.5 -199.5h-142zM227 586h142q0 -38 5 -69t17.5 -65.5 t38 -61t63.5 -48.5t97.5 -33.5t136.5 -11.5v-141q-119 0 -210 26.5t-144.5 68t-87.5 100t-46 115t-12 120.5zM227 891q0 64 12 120.5t46 115t87.5 100t144.5 68t210 26.5v-141q-77 0 -136.5 -11.5t-97.5 -33.5t-63.5 -48.5t-38 -61t-17.5 -65.5t-5 -69h-142zM395 586h142 q0 -21 0.5 -31t4 -26t10.5 -23.5t20.5 -17.5t34 -14.5t50.5 -7.5t70 -3v-141q-55 0 -98 5t-89 21.5t-76 44.5t-49.5 77t-19.5 116zM395 608q0 67 19.5 116t49.5 76.5t76 43.5t89 21t98 5v-139q-40 0 -70 -3t-50.5 -7.5t-34 -14.5t-20.5 -17.5t-10.5 -23.5t-4.5 -26t0 -31 h-142zM395 891q0 67 19.5 116t49.5 77t76 44.5t89 21.5t98 5v-141q-40 0 -70 -3t-50.5 -7.5t-34 -14.5t-20.5 -17.5t-10.5 -23.5t-4.5 -26t0 -31h-142zM750 156v141q226 0 328 101.5t102 326.5v2h141v-727h-141v326q-140 -170 -430 -170zM750 322v141q157 0 210.5 53.5 t53.5 210.5h141q0 -216 -94.5 -310.5t-310.5 -94.5zM750 1014v141q215 0 310 -95t95 -310h-141q0 157 -53.5 210.5t-210.5 53.5zM750 1180v141q571 0 571 -571h-141q0 226 -102 328t-328 102zM750 1348v139q352 0 545.5 -192.5t193.5 -544.5h-141q0 293 -152.5 445.5 t-445.5 152.5zM1348 0v727h141v-727h-141z" />
<glyph unicode="b" horiz-adv-x="1603" d="M61 725h142q0 -292 152.5 -444t445.5 -152v-141q-352 0 -546 193t-194 544zM61 750v725h142v-725h-142zM61 1497v256h142v-256h-142zM229 725h142q0 -226 102 -328t328 -102v-141q-284 0 -428 143.5t-144 427.5zM229 750v725h142v-324q68 98 171 134t259 36v-141 q-226 0 -328 -102t-102 -328h-142zM229 1497v256h142v-256h-142zM397 725h142q0 -157 52.5 -209.5t209.5 -52.5v-141q-215 0 -309.5 94t-94.5 309zM397 750q0 215 94.5 310t309.5 95v-143q-157 0 -209.5 -52.5t-52.5 -209.5h-142zM825 -12v141q292 0 444 152t152 444h142 q0 -352 -193 -544.5t-545 -192.5zM825 154v141q226 0 328 102t102 328h142q0 -284 -144 -427.5t-428 -143.5zM825 322v141q157 0 209.5 52.5t52.5 209.5h142q0 -215 -94.5 -309t-309.5 -94zM825 1012v143q215 0 309.5 -95t94.5 -310h-142q0 157 -52.5 209.5t-209.5 52.5z M825 1180v141q284 0 428 -143.5t144 -427.5h-142q0 226 -102 328t-328 102zM825 1348v141q352 0 545 -193.5t193 -545.5h-142q0 293 -152 445.5t-444 152.5z" />
<glyph unicode="c" horiz-adv-x="1570" d="M41 725h141q0 -290 151.5 -437t444.5 -147v-141q-353 0 -545 187.5t-192 537.5zM41 750q0 352 192.5 544.5t544.5 192.5v-141q-292 0 -444 -152t-152 -444h-141zM207 725h141q0 -224 101.5 -321t328.5 -97v-141q-286 0 -428.5 138t-142.5 421zM207 750q0 571 571 571 v-141q-226 0 -328 -102t-102 -328h-141zM375 725h141q0 -81 11 -128t42.5 -76t79 -38.5t129.5 -9.5v-139q-217 0 -310 88.5t-93 302.5zM375 750q0 215 94 309t309 94v-141q-157 0 -209.5 -52.5t-52.5 -209.5h-141zM803 0v141h665v-141h-665zM803 166v141h665v-141h-665z M803 334v139h665v-139h-665zM803 1012v141q215 0 309 -94t94 -309h-141q0 157 -52.5 209.5t-209.5 52.5zM803 1180v141q571 0 571 -571h-141q0 226 -102 328t-328 102zM803 1346v141q352 0 544.5 -192.5t192.5 -544.5h-141q0 292 -152 444t-444 152z" />
<glyph unicode="d" horiz-adv-x="1603" d="M41 725h141q0 -292 152.5 -444t445.5 -152v-141q-353 0 -546 192.5t-193 544.5zM41 750q0 352 193 545.5t546 193.5v-141q-293 0 -445.5 -152.5t-152.5 -445.5h-141zM209 725h141q0 -226 101.5 -328t328.5 -102v-141q-571 0 -571 571zM209 750q0 571 571 571v-141 q-227 0 -328.5 -102t-101.5 -328h-141zM375 725h141q0 -156 53.5 -209t210.5 -53v-141q-217 0 -311 94t-94 309zM375 750q0 216 94.5 310.5t310.5 94.5v-143q-157 0 -210.5 -53t-53.5 -209h-141zM803 -12v141q293 0 445.5 152t152.5 444h141q0 -352 -193.5 -544.5 t-545.5 -192.5zM803 154v141q226 0 328 102t102 328h141q0 -571 -571 -571zM803 322v141q157 0 210.5 53t53.5 209h141q0 -215 -94 -309t-311 -94zM803 1012v143q216 0 310.5 -94.5t94.5 -310.5h-141q0 156 -53.5 209t-210.5 53zM803 1180v141q147 0 249 -39t181 -127v320 h141v-725h-141q0 226 -102 328t-328 102zM1233 1497v256h141v-256h-141zM1401 750v725h141v-725h-141zM1401 1497v256h141v-256h-141z" />
<glyph unicode="e" horiz-adv-x="1581" d="M41 725h141q0 -290 151.5 -437t444.5 -147v-141q-353 0 -545 187.5t-192 537.5zM41 750q0 352 192.5 544.5t544.5 192.5v-141q-292 0 -444 -152t-152 -444h-141zM207 725h141q0 -224 101.5 -321t328.5 -97v-141q-286 0 -428.5 138t-142.5 421zM207 750q0 571 571 571 v-141q-226 0 -328 -102t-102 -328h-141zM375 725h141q0 -81 11 -128t42.5 -76t79 -38.5t129.5 -9.5v-139q-217 0 -310 88.5t-93 302.5zM375 750q0 215 94 309t309 94v-141q-114 0 -170.5 -26.5t-77.5 -94.5h248v-141h-403zM803 0v141h647v-141h-647zM803 166v141h647v-141 h-647zM803 334v139h647v-139h-647zM803 586v139h737v-139h-737zM803 750v141h248q-20 68 -76.5 94.5t-171.5 26.5v141q215 0 309 -94t94 -309h-403zM803 1180v141q571 0 571 -571h-141q0 226 -102 328t-328 102zM803 1346v141q352 0 544.5 -192.5t192.5 -544.5h-141 q0 292 -152 444t-444 152z" />
<glyph unicode="f" horiz-adv-x="1550" d="M61 0v725h142v-725h-142zM61 750q0 349 192 543t529 194v-141q-281 0 -430 -152.5t-149 -443.5h-142zM227 0v725h142v-236q74 86 171.5 123t243.5 37v-141q-225 0 -320 -101t-95 -329v-78h-142zM227 750q0 283 141.5 427t413.5 144v-141q-216 0 -314.5 -102.5 t-98.5 -327.5h-142zM395 0v78q0 218 87.5 310.5t301.5 92.5v-139q-80 0 -127 -11t-74.5 -43.5t-36.5 -79.5t-9 -130v-78h-142zM395 750q0 215 91 309t296 94v-141q-149 0 -197 -52t-48 -210h-142zM807 342v139h389l-2 -139h-387zM807 508v141h389v-141h-389zM807 1012v141 q206 0 297.5 -94t91.5 -309h-143q0 157 -48.5 209.5t-197.5 52.5zM807 1180v141q273 0 414 -144t141 -427h-141q0 225 -99 327.5t-315 102.5zM807 1346v141q339 0 531 -193.5t192 -543.5h-141q0 290 -150.5 443t-431.5 153z" />
<glyph unicode="g" horiz-adv-x="1601" d="M41 725h141q0 -292 152 -444t444 -152v-141q-352 0 -544.5 192.5t-192.5 544.5zM41 750q0 350 192 537.5t545 187.5v-142q-293 0 -444.5 -146.5t-151.5 -436.5h-141zM207 725h141q0 -226 102 -328t328 -102v-141q-571 0 -571 571zM207 750q0 283 142.5 421t428.5 138 v-142q-228 0 -329 -96.5t-101 -320.5h-141zM375 725h141q0 -157 52.5 -209.5t209.5 -52.5v-141q-215 0 -309 94t-94 309zM375 750q0 214 93 302.5t310 88.5v-142q-83 0 -130 -9t-78.5 -37.5t-42.5 -75t-11 -127.5h-141zM799 584v141h407q0 -215 -94 -309t-309 -94v141 q116 0 172 26t76 95h-252zM803 154v141q226 0 328 102t102 328h141v-725h-141v299q-145 -145 -430 -145zM803 999v142h567v-142h-567zM803 1167v142h567v-142h-567zM803 1333v142h567v-142h-567zM1399 0v725h141v-725h-141z" />
<glyph unicode="h" horiz-adv-x="1644" d="M82 0v725h141v-725h-141zM82 750v725h141v-725h-141zM82 1499v254h141v-254h-141zM250 0v725h141v-725h-141zM250 750v725h141v-314q134 160 430 160v-141q-226 0 -328 -102t-102 -328h-141zM250 1499v254h141v-254h-141zM418 0v725h141v-725h-141zM418 750q0 215 94 309 t309 94v-141q-157 0 -209.5 -52.5t-52.5 -209.5h-141zM846 1012v141q215 0 309 -94t94 -309h-141q0 157 -52.5 209.5t-209.5 52.5zM846 1180v141q571 0 571 -571h-141q0 226 -102 328t-328 102zM846 1348v141q352 0 544.5 -193.5t192.5 -545.5h-141q0 293 -152 445.5 t-444 152.5zM1108 0v725h141v-725h-141zM1276 0v725h141v-725h-141zM1442 0v725h141v-725h-141z" />
<glyph unicode="i" d="M82 0v725h141v-725h-141zM82 750v725h141v-725h-141zM250 0v725h141v-725h-141zM250 750v725h141v-725h-141zM416 0v725h141v-725h-141zM416 750v725h141v-725h-141z" />
<glyph unicode="j" horiz-adv-x="819" d="M20 -8v141q293 0 444.5 150t151.5 442h142q0 -351 -193 -542t-545 -191zM20 160v141q227 0 329 99.5t102 324.5h141q0 -565 -572 -565zM20 326v141q158 0 210.5 51t52.5 207h141q0 -215 -94 -307t-310 -92zM283 750v725h141v-725h-141zM451 750v725h141v-725h-141z M616 750v725h142v-725h-142z" />
<glyph unicode="k" horiz-adv-x="1533" d="M82 0v725h141v-725h-141zM82 750v725h141v-725h-141zM250 0v725h141v-725h-141zM250 750v725h141v-725h-141zM416 0v725h370v-141h-229v-584h-141zM416 750v725h141v-584h229v-141h-370zM580 918v141h206v-141h-206zM809 584v141q59 -6 102.5 -19t76.5 -38t54.5 -53 t40 -76.5t30 -94.5t26.5 -120h-142q-7 36 -10.5 51t-10 43t-10.5 39t-11 31.5t-13.5 27.5t-16.5 20.5t-21 18.5t-25.5 12.5t-31.5 11t-38 5.5zM809 750v141q85 -7 151 -26t115 -54.5t84 -78.5t62 -109.5t45.5 -134t38.5 -164.5h-142q-19 94 -34 149.5t-41 111.5t-61 86 t-88.5 51t-129.5 28zM809 918v141q64 6 111 19t82.5 38.5t59 55t43 79t32.5 98.5t28 126h142q-38 -191 -88 -301.5t-142 -174.5q87 -38 151.5 -99.5t110 -151t76 -187.5t58.5 -237h-142q-21 100 -40.5 171t-48.5 140t-66.5 114.5t-89 83t-120 58t-157.5 27.5zM809 1083v142 q35 4 59.5 10.5t43.5 22t30 30t22 47t17.5 59.5t17.5 81h142q-15 -74 -27 -119.5t-30.5 -92.5t-40.5 -74t-55 -51.5t-76.5 -36.5t-102.5 -18zM1001 299h142l55 -299h-141zM1167 299h144l55 -299h-141zM1335 299h142l57 -299h-141z" />
<glyph unicode="l" horiz-adv-x="1103" d="M61 725h142q0 -290 151.5 -437t444.5 -147v-141q-353 0 -545.5 187.5t-192.5 537.5zM61 750v725h142v-725h-142zM227 725h142q0 -224 101.5 -321t328.5 -97v-141q-286 0 -429 138t-143 421zM227 750v725h142v-725h-142zM395 725h142q0 -81 11 -128t42.5 -76t79 -38.5 t129.5 -9.5v-139q-217 0 -310.5 89t-93.5 302zM395 750v725h142v-725h-142zM823 0v141h260v-141h-260zM823 166v141h260v-141h-260zM823 334v139h260v-139h-260z" />
<glyph unicode="m" horiz-adv-x="2152" d="M0 0l137 717h144l-138 -717h-143zM141 739q30 145 62 247t83.5 195.5t120 151.5t169 95.5t233.5 46.5v-142q-89 -7 -157.5 -27.5t-120.5 -58t-89.5 -83t-66.5 -114.5t-49 -140t-41 -171h-144zM168 0l139 717h142l-138 -717h-143zM311 739q20 97 38.5 164.5t46 134 t62.5 109.5t84.5 79t115.5 55t151 26v-142q-63 -6 -110 -19.5t-82.5 -40.5t-59.5 -57.5t-43.5 -81.5t-32.5 -100.5t-28 -126.5h-142zM336 0l139 717h141l-137 -717h-143zM479 739q15 74 26.5 120t30 94.5t40 77t54.5 53.5t76.5 38t102.5 19v-142q-39 -3 -66.5 -14.5 t-45.5 -27.5t-32 -51t-22.5 -69t-21.5 -98h-142zM831 999v142q59 -6 102.5 -19t76.5 -38t54.5 -53.5t40 -77t30 -94.5t26.5 -120h-141q-9 43 -13 62.5t-12.5 51t-14.5 44.5t-16.5 33t-21.5 28t-27.5 18.5t-37 15t-46.5 7.5zM831 1165v142h488v-142h-178q75 -58 112.5 -154 t73.5 -272h-141q-16 78 -28 126.5t-31.5 100.5t-43 82t-58.5 57t-82.5 40.5t-111.5 19.5zM831 1333v142h488v-142h-488zM1024 717h141l140 -717h-144zM1192 717h141l140 -717h-144zM1343 999v142q67 -4 115.5 -23t81.5 -48t57.5 -81.5t40 -107.5t33.5 -142h-141 q-9 43 -13.5 63t-12.5 51.5t-14 45.5t-16.5 34t-22 28.5t-27.5 18.5t-36 13.5t-45 5.5zM1343 1165v142q73 -6 132 -22t104 -39.5t80.5 -62t61.5 -79.5t48 -102t37.5 -120.5t32.5 -142.5h-141q-16 77 -29.5 127t-33 101.5t-44 82.5t-59.5 58t-81.5 40t-107.5 17zM1343 1333 v142q111 -8 198.5 -33.5t153 -72t113.5 -104.5t85 -143t62.5 -173.5t49.5 -209.5h-141q-20 100 -39.5 171t-48.5 140t-66 114.5t-89 83t-120.5 58t-157.5 27.5zM1534 717h143l138 -717h-142zM1702 717h143l137 -717h-141zM1872 717h141l139 -717h-143z" />
<glyph unicode="n" horiz-adv-x="1599" d="M82 0v725h141v-725h-141zM82 750v725h141v-725h-141zM250 0v725h141v-725h-141zM250 750v725h141v-326q106 172 408 172v-141q-224 0 -316 -100.5t-92 -329.5h-141zM418 0v725h141v-725h-141zM418 750q0 219 84 311t297 92v-141q-80 0 -126 -10.5t-72 -43t-34 -78.5 t-8 -130h-141zM821 1012v141q213 0 297 -92t84 -311h-141q0 84 -8 130t-34 78.5t-72 43t-126 10.5zM821 1180v141q282 0 415.5 -142t133.5 -429h-141q0 229 -92.5 329.5t-315.5 100.5zM821 1348v141q349 0 532 -192t183 -547h-141q0 598 -574 598zM1061 0v725h141v-725h-141 zM1229 0v725h141v-725h-141zM1395 0v725h143v-725h-143z" />
<glyph unicode="o" horiz-adv-x="1581" d="M41 725h141q0 -292 152 -444t444 -152v-141q-352 0 -544.5 192.5t-192.5 544.5zM41 750q0 352 192.5 544.5t544.5 192.5v-141q-292 0 -444 -152t-152 -444h-141zM207 725h141q0 -226 102 -328t328 -102v-141q-571 0 -571 571zM207 750q0 571 571 571v-141 q-226 0 -328 -102t-102 -328h-141zM375 725h141q0 -157 52.5 -209.5t209.5 -52.5v-141q-215 0 -309 94t-94 309zM375 750q0 215 94 309t309 94v-141q-157 0 -209.5 -52.5t-52.5 -209.5h-141zM803 -12v141q292 0 444 152t152 444h141q0 -352 -192.5 -544.5t-544.5 -192.5z M803 154v141q226 0 328 102t102 328h141q0 -571 -571 -571zM803 322v141q157 0 209.5 52.5t52.5 209.5h141q0 -215 -94 -309t-309 -94zM803 1012v141q215 0 309 -94t94 -309h-141q0 157 -52.5 209.5t-209.5 52.5zM803 1180v141q571 0 571 -571h-141q0 226 -102 328t-328 102 zM803 1346v141q352 0 544.5 -192.5t192.5 -544.5h-141q0 292 -152 444t-444 152z" />
<glyph unicode="p" horiz-adv-x="1603" d="M61 0v725h142v-725h-142zM61 -25h142v-254h-142v254zM61 750q0 352 194 545.5t546 193.5v-141q-293 0 -445.5 -152.5t-152.5 -445.5h-142zM229 0v725h142q0 -226 102 -328t328 -102v-141q-285 0 -430 145v-299h-142zM229 -25h142v-254h-142v254zM229 750q0 284 144 427.5 t428 143.5v-141q-226 0 -328 -102t-102 -328h-142zM397 725h142q0 -157 52.5 -209.5t209.5 -52.5v-141q-215 0 -309.5 94t-94.5 309zM397 750q0 215 94.5 310t309.5 95v-143q-157 0 -209.5 -52.5t-52.5 -209.5h-142zM825 -12v141q292 0 444 152t152 444h142 q0 -352 -193 -544.5t-545 -192.5zM825 154v141q226 0 328 102t102 328h142q0 -284 -144 -427.5t-428 -143.5zM825 322v141q157 0 209.5 52.5t52.5 209.5h142q0 -215 -94.5 -309t-309.5 -94zM825 1012v143q215 0 309.5 -95t94.5 -310h-142q0 157 -52.5 209.5t-209.5 52.5z M825 1180v141q284 0 428 -143.5t144 -427.5h-142q0 226 -102 328t-328 102zM825 1348v141q352 0 545 -193.5t193 -545.5h-142q0 293 -152 445.5t-444 152.5z" />
<glyph unicode="q" horiz-adv-x="1603" d="M41 725h141q0 -292 152.5 -444t445.5 -152v-141q-353 0 -546 192.5t-193 544.5zM41 750q0 352 193 545.5t546 193.5v-141q-293 0 -445.5 -152.5t-152.5 -445.5h-141zM209 725h141q0 -226 101.5 -328t328.5 -102v-141q-571 0 -571 571zM209 750q0 571 571 571v-141 q-227 0 -328.5 -102t-101.5 -328h-141zM375 725h141q0 -156 53.5 -209t210.5 -53v-141q-217 0 -311 94t-94 309zM375 750q0 216 94.5 310.5t310.5 94.5v-143q-157 0 -210.5 -53t-53.5 -209h-141zM803 154v141q226 0 328 102t102 328h141v-725h-141v299q-142 -145 -430 -145z M803 322v141q157 0 210.5 53t53.5 209h141q0 -215 -94 -309t-311 -94zM803 1012v143q216 0 310.5 -94.5t94.5 -310.5h-141q0 156 -53.5 209t-210.5 53zM803 1180v141q571 0 571 -571h-141q0 226 -102 328t-328 102zM803 1348v141q352 0 545.5 -193.5t193.5 -545.5h-141 q0 293 -152.5 445.5t-445.5 152.5zM1233 -25h141v-254h-141v254zM1401 0v725h141v-725h-141zM1401 -25h141v-254h-141v254z" />
<glyph unicode="r" horiz-adv-x="1568" d="M82 0v725h141v-725h-141zM82 750v725h141v-725h-141zM250 0v725h141v-725h-141zM250 750v725h141v-318q64 90 165.5 127t246.5 37v-141q-216 0 -314 -102.5t-98 -327.5h-141zM418 0v725h141v-725h-141zM418 750q0 215 89.5 309t295.5 94v-141q-148 0 -196 -52t-48 -210 h-141zM825 1012v141q206 0 297.5 -94t91.5 -309h-141q0 157 -49 209.5t-199 52.5zM825 1180v141q273 0 415 -144t142 -427h-141q0 225 -99.5 327.5t-316.5 102.5zM825 1348v141q339 0 531 -194.5t192 -544.5h-141q0 292 -150 445t-432 153z" />
<glyph unicode="s" horiz-adv-x="1071" d="M20 0v141h238v-141h-238zM20 166v141h238v-141h-238zM20 332v141h238v-141h-238zM170 974q-4 40 -4 76q0 54 8 98q14 74 51 131t90 94t128.5 60t159 32.5t188.5 9.5v-140q-124 0 -209.5 -14.5t-151.5 -52.5t-94 -104q-26 -59 -27 -149q0 -9 1 -19q3 -103 42 -246h-139 q-34 124 -43 224zM281 0v141q103 0 178 9.5t138.5 34t99.5 67.5q35 42 53 106q12 42 12 97q0 29 -3 59q-9 92 -42 211h141q40 -143 46 -255q1 -22 2 -43q0 -85 -22 -149q-27 -79 -77.5 -133.5t-132 -86t-176 -45t-217.5 -13.5zM281 166v141q61 0 102.5 2.5t80.5 10t62 20.5 t41 35.5t23 52.5q4 23 4 54v20q-2 44 -12.5 97.5t-30.5 125.5h141q28 -101 38 -179q6 -50 6 -92q0 -24 -2 -46q-6 -59 -30.5 -101t-60.5 -69.5t-92.5 -43t-120 -22t-149.5 -6.5zM281 332v141q42 0 62.5 0.5t42.5 6.5t28 12.5t10 26t0 40.5t-13 61.5t-20 82.5q-4 15 -6 22 h141q19 -69 30 -119q12 -50 14 -92q1 -16 0 -30q0 -22 -2 -40q-4 -28 -20 -49t-36.5 -32.5t-57 -19t-75.5 -9.5t-98 -2zM338 954q-3 32 -3 60q0 50 10 90q16 62 49 102.5t93.5 63.5t132 32t171.5 9v-142q-82 0 -133 -5t-94 -21t-61 -43q-19 -28 -25 -76q-2 -18 -2 -38 q0 -34 7 -76q11 -66 37 -160h-141q-32 116 -41 204zM502 962q-1 16 -1 29q0 22 2 40q4 28 20 49t37 32.5t57.5 19t75.5 9.5t98 2v-142q-38 0 -56.5 -0.5t-40 -4t-28.5 -9t-15 -17.5t-6 -27.5t5.5 -41.5t11 -56.5t19.5 -75.5q3 -13 5 -19h-141q-19 69 -30 119.5t-13 92.5z M813 1001v142h238v-142h-238zM813 1169v142h238v-142h-238zM813 1335v140h238v-140h-238z" />
<glyph unicode="t" horiz-adv-x="1079" d="M61 727h142q0 -292 151.5 -439t446.5 -147v-141q-353 0 -546.5 188.5t-193.5 538.5zM61 750v557h142v-557h-142zM61 1333v142q24 0 36 0.5t33 4t32 10.5t26 20.5t22 33.5t13 50.5t6 70.5v88h142v-88q0 -332 -310 -332zM229 727h142q0 -226 101 -323t329 -97v-141 q-286 0 -429 138.5t-143 422.5zM229 750v557h142v-557h-142zM395 727h142q0 -81 11 -128.5t43 -76t80 -38t130 -9.5v-141q-218 0 -312 89t-94 304zM395 748v727h406v-142h-264v-585h-142zM397 1499v254h142v-254h-142zM561 1165v142h240v-142h-240zM823 0v141h215v-141h-215 zM823 166v141h215v-141h-215zM823 334v141h215v-141h-215zM823 1165v142h215v-142h-215zM823 1333v142h215v-142h-215z" />
<glyph unicode="u" horiz-adv-x="1599" d="M61 750v725h144v-725h-144zM63 725h142q0 -598 573 -598v-141q-349 0 -532 192t-183 547zM229 725h142q0 -229 92 -329.5t315 -100.5v-141q-282 0 -415.5 142t-133.5 429zM229 750v725h142v-725h-142zM397 725h142q0 -84 7.5 -130t34 -78.5t72 -43t125.5 -10.5v-141 q-213 0 -297 92t-84 311zM397 750v725h142v-725h-142zM801 154v141q224 0 315.5 100t91.5 330h142v-725h-142v326q-106 -172 -407 -172zM801 322v141q80 0 125.5 10.5t72 43t34 78.5t7.5 130h142q0 -219 -84 -311t-297 -92zM1040 750v725h142v-725h-142zM1208 750v725h142 v-725h-142zM1376 0v725h142v-725h-142zM1376 750v725h142v-725h-142z" />
<glyph unicode="v" horiz-adv-x="1640" d="M0 1475h143l138 -727h-144zM145 727h142q21 -101 40.5 -171.5t48.5 -141t66.5 -117t89 -85t120 -59.5t157.5 -28v-141q-95 7 -173 28t-138.5 53.5t-109.5 82.5t-84.5 106.5t-65.5 134t-51 156.5t-42 182zM168 1475h143l138 -727h-142zM313 727h142q19 -95 34 -151.5 t41.5 -113.5t61.5 -88t88.5 -52.5t128.5 -28.5v-141q-102 8 -177 37t-125 72.5t-87.5 117.5t-60 152t-46.5 196zM336 1475h143l137 -727h-141zM479 727h142q1 -4 2 -11q28 -135 49 -176q31 -60 104 -76q15 -3 33 -5v-142q-50 5 -90 17t-69.5 28t-53 44t-39.5 56t-30.5 73.5 t-24.5 86.5t-23 105zM831 -16v141q89 7 157.5 28t120.5 59.5t89 85t66.5 116.5t49 141.5t40.5 171.5h141q-21 -103 -42 -182t-51 -156.5t-65.5 -134t-84.5 -106.5t-109.5 -82.5t-138.5 -53.5t-173 -28zM831 152v141q63 6 110.5 20t82.5 41.5t59 58.5t43.5 83.5t31.5 102 t28 128.5h141q-24 -118 -46.5 -196t-60 -152t-87.5 -117.5t-125 -72.5t-177 -37zM831 317v142q41 5 69 17t46 31t30.5 50.5t22 69.5t20.5 93q1 5 1 7h141q-13 -64 -23 -105t-24.5 -86.5t-30.5 -73.5t-39.5 -56t-53 -44t-69.5 -28t-90 -17zM1024 748l137 727h144l-140 -727 h-141zM1192 748l137 727h144l-140 -727h-141zM1360 748l137 727h143l-137 -727h-143z" />
<glyph unicode="w" horiz-adv-x="2152" d="M0 1475h143l138 -719l-144 2zM145 735h142q21 -100 40.5 -171t48.5 -140.5t66.5 -115t89 -83t120 -57.5t157.5 -27v-141q-111 8 -198.5 33t-153 71.5t-114 104.5t-85.5 143t-62.5 173.5t-50.5 209.5zM168 1475h143l138 -719h-142zM313 735h142q13 -66 24 -110t26.5 -91 t33 -76.5t42.5 -58.5t57 -46t74.5 -29t96.5 -17v-141q-102 8 -177 36.5t-125 71.5t-87.5 116t-60 150t-46.5 195zM336 1475h143l137 -719h-141zM479 735h142q8 -37 11 -51t9.5 -43t10 -39.5t11.5 -31.5t14 -28t16 -20.5t21 -18.5t25.5 -12.5t31.5 -10.5t38 -5v-141 q-59 5 -102.5 17.5t-76.5 38t-54.5 53.5t-40 77t-30 95t-26.5 120zM680 1475h141l140 -719h-144zM823 735h142q12 -58 21.5 -97t22.5 -82.5t26.5 -71.5t33 -57.5t43 -47.5t54 -34t68.5 -25t85 -13v-141h-488v141h154q-57 66 -93 167.5t-69 260.5zM831 0v141h488v-141h-488z M848 1475h143l137 -719h-143zM991 735h142q28 -138 46 -175q27 -59 90 -76q21 -6 50 -9v-141q-50 4 -89.5 15.5t-69 26.5t-53 42.5t-39.5 54.5t-30.5 72t-24 85.5t-22.5 104.5zM1343 0v141q89 7 157.5 27t120.5 57.5t89 83.5t66 115t48.5 140t39.5 171h141 q-24 -121 -49.5 -209.5t-62.5 -173.5t-85 -143t-113.5 -104.5t-153 -71.5t-198.5 -33zM1343 166v141q54 5 96 17t74 29t57.5 46t43 58.5t33.5 76.5t26.5 91t24.5 110h141q-20 -98 -38.5 -165t-46 -134t-62.5 -110t-84 -79t-114.5 -55t-150.5 -26zM1343 334v141 q26 3 46.5 7.5t37 14.5t27.5 18t21.5 28.5t16.5 33t14.5 44.5t12.5 51t13 63h139q-13 -64 -22.5 -104.5t-24 -85.5t-30.5 -72t-39.5 -54.5t-53 -42.5t-69 -26.5t-89.5 -15.5zM1534 756l139 719h142l-138 -719h-143zM1702 756l139 719h141l-137 -719h-143zM1872 756l137 719 h143l-139 -717z" />
<glyph unicode="x" horiz-adv-x="1628" d="M0 0l55 289h144l-58 -289h-141zM61 313q28 139 58.5 237.5t76 188.5t110 151.5t151.5 98.5q-91 63 -140 176.5t-88 309.5h142q15 -78 27.5 -127.5t32 -101t43 -81.5t59 -56.5t82.5 -40t110 -19.5v-142q-89 -7 -157.5 -27.5t-120 -58t-89 -83t-66.5 -114.5t-48.5 -140 t-40.5 -171h-142zM168 0l55 289l144 2l-58 -291h-141zM229 313q17 83 32.5 143t37 120.5t47.5 102.5t62 80t81 62t104 40t132 22v-142q-63 -6 -110.5 -20t-82.5 -41.5t-58.5 -57.5t-43 -81.5t-31.5 -100.5t-28 -127h-142zM336 0l55 291h141l-55 -291h-141zM395 313 q15 74 26.5 120t30 94.5t40 77t54.5 53.5t76.5 38t102.5 19v-142q-41 -4 -69 -17t-44.5 -24t-31.5 -52t-20 -61.5t-20 -92.5q-2 -9 -3 -13h-142zM395 1475h142q28 -137 46 -174q27 -58 90 -75q22 -6 52 -9v-142q-59 5 -102.5 17.5t-76.5 37.5t-54.5 53t-40 76.5t-30 94.5 t-26.5 121zM745 573v142h138v-142h-138zM745 741v142h138v-142h-138zM745 907v142h138v-142h-138zM905 573v142q51 -5 90 -16.5t68.5 -27t53 -42.5t39.5 -54t30.5 -72t24 -85.5t22.5 -104.5h-141q-1 3 -2 10q-28 134 -48 173q-29 56 -100 71q-16 4 -37 6zM905 741v142 q73 -6 132 -22t104 -40t80.5 -62.5t61.5 -80t48 -102.5t37.5 -120.5t32.5 -142.5h-141q-14 66 -24.5 110t-26.5 91t-33.5 76t-42.5 58t-57.5 46t-74.5 29.5t-96 17.5zM905 907v142q63 6 109.5 19.5t82 40t59 56.5t43 81.5t32.5 101t29 127.5h141q-41 -198 -89.5 -310.5 t-137.5 -175.5q86 -37 150 -98.5t109.5 -151.5t75.5 -188.5t58 -237.5h-142q-20 100 -39.5 171t-48.5 140t-66 114.5t-88.5 83t-120 58t-157.5 27.5zM905 1075v142q21 2 38 5t31.5 10.5t25 12t21 18.5t16.5 20t13.5 28t11 31t10.5 39t9.5 43t10.5 51h141q-13 -64 -22.5 -105 t-24 -86t-30.5 -72t-39.5 -54t-53 -42t-68.5 -26t-90 -15zM1098 291h141l55 -291h-141zM1264 291h141l57 -291h-141zM1432 291h141l55 -291h-141z" />
<glyph unicode="y" horiz-adv-x="1601" d="M41 725h141q0 -292 152 -444t444 -152v-141q-352 0 -544.5 192.5t-192.5 544.5zM41 1399v76h141v-76q3 -294 154 -446t442 -152v-142q-351 0 -544 194t-193 546zM207 725h141q0 -226 102 -328t328 -102v-141q-571 0 -571 571zM207 1399v76h141v-76q0 -226 102 -328 t328 -102v-142q-565 0 -571 572zM375 1399v76h139l2 -76q1 -81 12 -130t41.5 -80t79 -42.5t129.5 -11.5v-142q-215 0 -309 94.5t-94 311.5zM803 -12v141q292 0 444 152t152 444h141q0 -352 -192.5 -544.5t-544.5 -192.5zM803 154v141q226 0 328 102t102 328h141 q0 -571 -571 -571zM803 322v141q157 0 209.5 52.5t52.5 209.5h141q0 -215 -94 -309t-309 -94zM803 827v142q226 0 328 101.5t102 328.5v76h139l2 -725h-141v243q-75 -87 -179.5 -126.5t-250.5 -39.5zM803 993v142q157 0 210 53q52 53 52 205v6v76h141v-76q0 -217 -94 -311.5 t-309 -94.5zM1397 1475h141l2 -725h-141z" />
<glyph unicode="z" horiz-adv-x="1552" d="M20 305q0 98 51.5 172t159.5 131l533 291v-162l-479 -264q-121 -66 -121 -164q0 -78 53 -123t148 -45h399v-141h-381q-95 0 -167.5 25.5t-114 69t-61.5 96.5t-20 114zM86 999v142h678v-142h-678zM86 1165v142h678v-142h-678zM86 1333v142h678v-142h-678zM188 307 q0 86 111 148l465 258v-154l-410 -229q-13 -8 -10 -15.5t14 -7.5h406v-141h-402q-89 0 -131.5 40.5t-42.5 100.5zM786 0v141h678v-141h-678zM786 166v141h678v-141h-678zM786 334v141h678v-141h-678zM788 571v162l480 264q121 66 121 168q0 77 -53.5 122.5t-147.5 45.5h-400 v142h402q88 0 164.5 -34.5t127 -106.5t50.5 -167q0 -91 -57 -171t-154 -134zM788 758v153l408 228q15 6 13 16t-17 10h-404v142h400q76 0 126 -36t50 -104q0 -89 -111 -151z" />
<glyph unicode="{" horiz-adv-x="874" d="M41 670v141q55 0 82 1.5t65 8t52.5 22.5t28 43t10 70.5t-18.5 104.5h141q65 -237 -26 -322q91 -85 26 -321h-141q15 61 18.5 104.5t-9.5 71t-28.5 43.5t-52.5 23t-65 8.5t-82 1.5zM209.5 1403.5q2.5 63.5 20.5 114t45.5 87t71.5 63.5t92.5 44t114 27t131.5 14t149 4v-141 q-71 0 -122.5 -2.5t-105.5 -9t-89.5 -19t-69.5 -32.5t-52.5 -48.5t-31 -68t-11.5 -91t12 -116.5t33 -146h-141q-27 96 -38 176.5t-8.5 144zM213 174q9 97 43 221h141q-25 -91 -36.5 -162t-6.5 -125t18.5 -93.5t46.5 -66.5t69 -43.5t94.5 -25t114.5 -11.5t137 -3v-141 q-108 0 -189 6.5t-158.5 24.5t-128.5 49t-89.5 81.5t-51.5 121t-4 167.5zM379.5 161.5q1.5 46.5 12.5 104.5t30 129h141q-25 -94 -37 -154t-3.5 -102t19.5 -63t58.5 -31.5t84 -12t124.5 -1.5h25v-142q-63 0 -107.5 1.5t-93 6t-80.5 13t-64.5 22t-51 33.5t-35 48t-20.5 65 t-2.5 83.5zM379.5 1316.5q-1.5 46.5 2.5 83.5t20.5 65t35 48t51 33.5t64.5 22t80.5 13t93 6t107.5 1.5v-141q-171 0 -217 -9q-74 -15 -91 -70q-21 -70 35 -278l2 -8h-141q-19 71 -30 129t-12.5 104.5z" />
<glyph unicode="|" horiz-adv-x="471" d="M82 -274v1001h141v-1001h-141zM82 750v1005h141v-1005h-141zM248 -274v1001h141v-1001h-141zM248 750v1005h141v-1005h-141z" />
<glyph unicode="}" horiz-adv-x="874" d="M41 31h25q67 0 96 0.5t73 5t58.5 13t36 26.5t22.5 43.5t1 65t-11.5 90t-30.5 120.5h142q19 -71 30 -129t12.5 -104.5t-2.5 -83.5t-20.5 -65t-35 -48t-51 -33.5t-64.5 -22t-80.5 -13t-93 -6t-107.5 -1.5v142zM41 -135q71 0 122.5 2t105 9t89 19t69.5 31.5t52 48t30.5 67.5 t11.5 90.5t-11.5 116.5t-32.5 146h141q34 -124 42.5 -221t-4 -167.5t-51 -121t-89.5 -81.5t-128.5 -49t-158 -24.5t-188.5 -6.5v141zM41 1448v141q63 0 107.5 -1.5t93 -6t80.5 -13t64.5 -22t51 -33.5t35 -48t20.5 -65t2.5 -83.5t-12.5 -104.5t-30 -129h-142 q19 70 30.5 120.5t11.5 90.5t-1 65t-23 43.5t-36 27t-58.5 13t-74 5t-96.5 0.5h-23zM41 1616v141q83 0 149 -4t131 -14t113.5 -27t92.5 -44t71 -63.5t45.5 -87t21 -114t-9 -144t-37.5 -176.5h-141q20 73 31 133t12 108.5t-4.5 87.5t-22.5 68.5t-37.5 51t-54 36.5t-68.5 24.5 t-84.5 14.5t-96.5 7t-111 2zM471 418q-62 235 27 321q-89 86 -27 322h141q-15 -61 -18 -104.5t11 -70.5t29 -43t53 -22.5t65 -8t82 -1.5v-141q-54 0 -82 -1.5t-65.5 -8.5t-53 -23t-29 -43.5t-10.5 -71t18 -104.5h-141z" />
<glyph unicode="~" horiz-adv-x="714" d="M41 604q0 132 73.5 198t231.5 66v-143q-85 0 -121.5 -26.5t-36.5 -94.5h-147zM369 604v144q85 0 121 26t36 94h148q0 -132 -73.5 -198t-231.5 -66z" />
<glyph unicode="&#xa1;" d="M82 0v860h141v-860h-141zM82 999v476h141v-476h-141zM248 0v860h141v-860h-141zM248 999v476h141v-476h-141zM416 0v860h141v-860h-141zM416 999v476h141v-476h-141z" />
<glyph unicode="&#xa2;" horiz-adv-x="860" d="M41 725h141q0 -403 289 -528v-473h-141v387q-141 89 -215 244t-74 370zM41 750q0 215 74 372.5t215 249.5v383h141v-467q-289 -131 -289 -538h-141zM207 725h141q0 -224 101.5 -321t328.5 -97v-141q-67 0 -139 10v-452h-141v487q-291 115 -291 514zM207 750 q0 404 291 522v483h141v-444q72 10 139 10v-141q-226 0 -328 -102t-102 -328h-141zM375 725h141q0 -81 11 -128t42.5 -76t79 -38.5t129.5 -9.5v-139q-217 0 -310 88.5t-93 302.5zM375 750q0 215 94 309t309 94v-141q-157 0 -209.5 -52.5t-52.5 -209.5h-141zM664 4v143 q56 -6 114 -6v-141q-77 0 -114 4zM664 1339v142q56 6 114 6v-141q-49 0 -114 -7z" />
<glyph unicode="&#xa3;" horiz-adv-x="1470" d="M40 1097.5q2 67.5 24 123.5t57.5 95.5t86 69.5t104.5 48.5t117.5 30t120.5 16t118 4.5v-142q-65 0 -121.5 -5t-121 -21.5t-111.5 -42.5t-83 -71.5t-46 -106t9.5 -149.5t73.5 -197h-139q-47 103 -69 191.5t-20 156zM70 -2v141h598v-141h-598zM70 164v141h73q62 0 108 10 t81.5 38.5t46.5 74t-6 121t-66 176.5h508v-141h-311q58 -173 -8 -279h172v-141h-598zM70 330v141q25 0 41 0.5t34 2.5t27.5 6t19.5 11t13 16.5t4.5 23.5t-3 32.5t-12 42.5t-20 53t-29.5 66h138q47 -96 64 -167t8.5 -114t-39.5 -69t-72 -35.5t-99 -9.5h-75zM211 1081 q9 58 42 102t77 69t105 41t115.5 21t117.5 5v-141q-54 0 -94 -3t-83.5 -14t-70.5 -29t-46 -50.5t-19.5 -76.5t17.5 -109t58 -146h-137q-52 103 -71.5 188t-10.5 143zM380 993q-1 42 15.5 72t40 47t64.5 26.5t78 12t90 2.5v-141q-49 0 -75 -4t-45.5 -18t-18.5 -43t16 -76.5 t49 -120.5h-139q-38 78 -56 139.5t-19 103.5zM692 -2v141h699v-141h-699zM692 164v141h699v-141h-699zM692 332v141h699l-2 -141h-697zM692 1012v141q215 0 309.5 -95t94.5 -310h-142q0 157 -53 210.5t-209 53.5zM692 1178v141q284 0 428 -143.5t144 -427.5h-142 q0 226 -102 328t-328 102zM692 1343v142q352 0 545 -192.5t193 -544.5h-142q0 293 -152 444t-444 151z" />
<glyph unicode="&#xa5;" horiz-adv-x="1445" d="M0 1477l141 -2l56 -299h-142zM59 1153h142q18 -87 33.5 -148t38 -125.5t48.5 -107.5t63 -83.5t83 -65t107 -41.5t137 -23v-559h-146v416h-432v141h203q-108 76 -169 220t-108 376zM133 250v141h408v-141h-408zM166 1475h141l58 -299h-142zM227 1153h142q12 -61 20.5 -98 t21 -82.5t24.5 -72t31 -57t41 -47.5t52 -33t67.5 -25t84.5 -13v-141q-57 4 -105 15t-86.5 26t-71 39t-57.5 50t-46 63.5t-37 74.5t-31 88.5t-26 99t-24 113.5zM334 1475h141l55 -299h-141zM393 1153h142q3 -16 9 -45q8 -40 12 -58t11.5 -45.5t14.5 -39t19 -27.5t27 -23 t35.5 -13t47.5 -9v-141q-44 4 -79 11.5t-63 23.5t-48 31t-37.5 44.5t-28.5 53t-23 68t-19.5 77t-19.5 92.5zM733 0v559q67 5 121.5 17.5t98.5 35t78 49.5t62 67.5t48.5 81t39 99.5t31.5 113.5t29 130.5h141q-23 -113 -45 -194.5t-54.5 -162.5t-76 -140t-100.5 -99h203v-141 h-432v-416h-144zM733 584v141q54 5 96 17.5t73 28t55.5 46t40 57t31 77.5t24.5 91t24 111h142q-15 -74 -28 -126.5t-30.5 -109t-37 -95t-46 -77.5t-59 -64t-74.5 -46.5t-94.5 -33.5t-116.5 -17zM733 752v141q27 3 48 9t35.5 12.5t26.5 22.5t19 27t14.5 38.5t11 44.5t11.5 56 q6 32 10 50h142q-12 -60 -19.5 -92.5t-19.5 -77t-23 -68t-28.5 -53t-37.5 -44.5t-48 -31t-63 -23.5t-79 -11.5zM901 250v141h408v-141h-408zM915 1176l56 299h141l-55 -299h-142zM1081 1176l56 299h141l-55 -299h-142zM1249 1176l56 299l141 2l-57 -301h-140z" />
<glyph unicode="&#xa6;" horiz-adv-x="471" d="M82 -274v942h141v-942h-141zM82 809v946h141v-946h-141zM248 -274v942h141v-942h-141zM248 809v946h141v-946h-141z" />
<glyph unicode="&#xa8;" horiz-adv-x="1574" d="M567 1499v141h211v-141h-211zM801 1499v141h213v-141h-213z" />
<glyph unicode="&#xa9;" horiz-adv-x="1581" d="M41 725h141q0 -292 152 -444t444 -152v-141q-352 0 -544.5 192.5t-192.5 544.5zM41 750q0 352 192.5 544.5t544.5 192.5v-141q-292 0 -444 -152t-152 -444h-141zM375 725h141q0 -157 52.5 -209.5t209.5 -52.5v-141q-215 0 -309 94t-94 309zM375 750q0 215 94 309t309 94 v-141q-157 0 -209.5 -52.5t-52.5 -209.5h-141zM803 -12v141q292 0 444 152t152 444h141q0 -352 -192.5 -544.5t-544.5 -192.5zM803 322v141q69 0 115 12t69 34.5t32 48t9 60.5h141q0 -296 -366 -296zM803 1012v141q366 0 366 -295h-141q0 72 -47 113t-178 41zM803 1346v141 q352 0 544.5 -192.5t192.5 -544.5h-141q0 292 -152 444t-444 152z" />
<glyph unicode="&#xaa;" horiz-adv-x="1247" d="M41 897h141q0 -225 102 -325.5t328 -100.5v-141q-571 0 -571 567zM41 920q0 567 571 567v-141q-226 0 -328 -100.5t-102 -325.5h-141zM207 897h141q0 -156 53 -207t211 -51v-141q-216 0 -310.5 92.5t-94.5 306.5zM207 920q0 214 94.5 306.5t310.5 92.5v-141 q-158 0 -211 -51t-53 -207h-141zM371 0v141h241v-141h-241zM371 168v141h241v-141h-241zM635 0v141h242v-141h-242zM635 168v141l242 -2v-139h-242zM635 330v141q226 0 328 99t102 323v4h141v-555h-141v145q-71 -84 -176.5 -120.5t-253.5 -36.5zM635 498v141q158 0 211 51 t53 207h141q0 -215 -94 -307t-311 -92zM635 1178v141q217 0 311 -92t94 -307h-141q0 156 -53 207t-211 51zM635 1346v141q571 0 571 -567h-141q0 225 -102 325.5t-328 100.5z" />
<glyph unicode="&#xab;" horiz-adv-x="1071" d="M41 729q0 128 75.5 205t225.5 115l217 53v-146l-205 -51q-90 -23 -131 -66t-41 -110t41 -110t131 -66l205 -51v-146l-217 54q-150 38 -225.5 114.5t-75.5 204.5zM205 729q0 61 37 97t116 57l99 24v-143l-80 -21q-15 -5 -15 -14t15 -14l80 -21v-143l-99 24 q-80 21 -116.5 55.5t-36.5 98.5zM477 729q0 128 75.5 205t225.5 115l217 53v-146l-204 -51q-90 -23 -131.5 -66t-41.5 -110t41.5 -110t131.5 -66l204 -51v-146l-217 54q-150 38 -225.5 114.5t-75.5 204.5zM641 729q0 61 37.5 97t116.5 57l200 49v-144l-182 -45 q-14 -5 -14 -14t14 -14l182 -45v-144l-200 49q-80 21 -117 55.5t-37 98.5z" />
<glyph unicode="&#xad;" d="M82 498v141h475v-141h-475zM82 666v139h475v-139h-475zM82 834v139h475v-139h-475z" />
<glyph unicode="&#xae;" horiz-adv-x="1581" d="M41 723h141q0 -292 152 -444t444 -152v-141q-352 0 -544.5 192.5t-192.5 544.5zM41 748q0 352 192.5 544.5t544.5 192.5v-142q-292 0 -444 -151.5t-152 -443.5h-141zM408 397v326h370v-141h-215v-185h-155zM408 748q0 111 17.5 184.5t60 124t113.5 72.5t179 22v-141 q-54 0 -90 -4.5t-62.5 -17.5t-41 -30t-22.5 -50t-10.5 -67.5t-2.5 -92.5h-141zM803 -14v141q292 0 444 152t152 444h141q0 -352 -192.5 -544.5t-544.5 -192.5zM803 582v141q69 0 113.5 9t65.5 28.5t28.5 40.5t7.5 53h141q0 -166 -127 -209q127 -60 127 -248h-141 q0 39 -7.5 68t-28.5 57.5t-66 44t-113 15.5zM803 1010v141q356 0 356 -272h-141q0 32 -7.5 53t-28.5 40.5t-65.5 28.5t-113.5 9zM803 1343v142q352 0 544.5 -192.5t192.5 -544.5h-141q0 292 -152 443.5t-444 151.5z" />
<glyph unicode="&#xaf;" horiz-adv-x="1574" d="M551 1499v141h475v-141h-475z" />
<glyph unicode="&#xb0;" horiz-adv-x="913" d="M41 1063h141q0 -156 52.5 -207t209.5 -51v-141q-216 0 -309.5 92t-93.5 307zM41 1087q0 215 93.5 307.5t309.5 92.5v-141q-157 0 -209.5 -51.5t-52.5 -207.5h-141zM469 664v141q157 0 209.5 51t52.5 207h141q0 -215 -93.5 -307t-309.5 -92zM469 1346v141 q216 0 309.5 -92.5t93.5 -307.5h-141q0 156 -52.5 207.5t-209.5 51.5z" />
<glyph unicode="&#xb4;" horiz-adv-x="1470" d="M571 1499v141q46 0 79 4t53.5 14t32.5 19t17 27.5t6 31t1 36.5h141q0 -67 -19 -117t-49.5 -79t-75 -47t-88.5 -24t-98 -6z" />
<glyph unicode="&#xb6;" horiz-adv-x="1026" d="M41 897h141q0 -225 102 -325.5t328 -100.5v-141q-571 0 -571 567zM41 920q0 567 571 567v-141q-226 0 -328 -100.5t-102 -325.5h-141zM207 897h141q0 -156 53 -207t211 -51v-141q-216 0 -310.5 92.5t-94.5 306.5zM207 920q0 214 94.5 306.5t310.5 92.5v-141 q-158 0 -211 -51t-53 -207h-141zM635 -274v913h141v-913h-141zM637 662v825h141v-825h-141zM801 -274l2 913h141l-2 -913h-141zM803 662v825h141v-825h-141z" />
<glyph unicode="&#xb7;" d="M82 498v475h141v-475h-141zM248 498v475h141v-475h-141zM416 498v475h141v-475h-141z" />
<glyph unicode="&#xb8;" horiz-adv-x="1587" d="M645 -145q85 0 121.5 26t36.5 94h147q0 -132 -73.5 -198t-231.5 -66v144z" />
<glyph unicode="&#xba;" horiz-adv-x="1247" d="M41 897h141q0 -225 102 -325.5t328 -100.5v-141q-571 0 -571 567zM41 920q0 567 571 567v-141q-226 0 -328 -100.5t-102 -325.5h-141zM207 897h141q0 -156 53 -207t211 -51v-141q-216 0 -310.5 92.5t-94.5 306.5zM207 920q0 214 94.5 306.5t310.5 92.5v-141 q-158 0 -211 -51t-53 -207h-141zM371 0v141h241v-141h-241zM371 168v141h241v-141h-241zM635 0v141h242v-141h-242zM635 168v141l242 -2v-139h-242zM635 330v141q226 0 328 100.5t102 325.5h141q0 -567 -571 -567zM635 498v141q158 0 211 51t53 207h141q0 -215 -94 -307 t-311 -92zM635 1178v141q217 0 311 -92t94 -307h-141q0 156 -53 207t-211 51zM635 1346v141q571 0 571 -567h-141q0 225 -102 325.5t-328 100.5z" />
<glyph unicode="&#xbb;" horiz-adv-x="1071" d="M82 356v146l205 51q90 23 131 66t41 110t-41 110t-131 66l-205 51v146l217 -53q150 -38 225.5 -115t75.5 -205t-75.5 -204.5t-225.5 -114.5zM82 526v144l182 45q15 5 15 14t-15 14l-182 45v144l201 -49q79 -21 116 -57t37 -97q0 -64 -36.5 -98.5t-116.5 -55.5zM518 356 v146l205 51q90 23 131 66t41 110t-41 110t-131 66l-205 51v146l217 -53q150 -38 225.5 -115t75.5 -205t-75.5 -204.5t-225.5 -114.5zM621 551v143l79 21q15 5 15 14t-15 14l-79 21v143l98 -24q79 -21 116 -57t37 -97q0 -64 -36.5 -98.5t-116.5 -55.5z" />
<glyph unicode="&#xbf;" horiz-adv-x="751" d="M48.5 309.5q-16.5 74.5 4 182t84.5 237.5l64 133h137l-64 -133q-53 -109 -72.5 -198t-9.5 -149.5t45 -106.5t81.5 -72.5t110 -42.5t120 -21.5t121.5 -5.5v-141q-80 0 -153.5 7.5t-154 29.5t-142.5 56t-108.5 92t-63 132.5zM193 1001l2 476h141l-2 -476h-141zM217.5 397 q-8.5 58 11 143t70.5 189l66 133h137l-66 -133q-40 -81 -59 -146t-19 -109.5t18.5 -77t45.5 -51t70 -29t83.5 -14t94.5 -3.5v-141q-63 0 -117.5 5t-114.5 21t-103.5 41t-76 69.5t-41 102.5zM360 1001v476h142v-476h-142zM386.5 458.5q-4.5 30.5 2.5 69t24.5 89.5t47.5 112 l65 133h138l-66 -133q-29 -60 -45.5 -102.5t-20 -72t2 -46.5t26 -26.5t44.5 -12t65 -2.5v-141q-41 0 -71 1.5t-63.5 6.5t-56.5 13.5t-45 23.5t-32.5 36t-15 51.5zM528 1001v476h142v-476h-142z" />
<glyph unicode="&#xc0;" horiz-adv-x="1640" d="M0 0l137 725h144l-138 -725h-143zM145 748q21 103 42 181.5t51 156t65.5 134t84.5 106.5t109 82.5t138.5 53.5t173.5 27v-141q-76 -6 -137.5 -23t-109 -42.5t-85.5 -66t-65.5 -85t-50.5 -108.5t-39.5 -126.5t-34.5 -148.5h-142zM168 0l139 725h142l-46 -236q96 65 265 80 v-141q-54 -5 -96.5 -17.5t-75 -29.5t-57.5 -45.5t-43 -58.5t-33.5 -76.5t-26 -90.5t-23.5 -110h-145zM313 748q17 83 32.5 143t37.5 121.5t47.5 103.5t61.5 81t81 63t104 40.5t132 22.5v-141q-63 -6 -110 -20t-82 -42t-59 -59t-43 -83.5t-31.5 -102t-28.5 -127.5h-142z M338 0q15 74 26.5 120t30 94.5t40 76.5t54.5 53t76.5 38t102.5 19v-141q-26 -3 -46.5 -7.5t-37 -14.5t-27.5 -18t-21.5 -28.5t-16.5 -33t-14.5 -44.5t-12.5 -51t-13 -63h-141zM477 1786h141q0 -29 1.5 -43.5t11 -34.5t29 -29.5t57 -16.5t92.5 -7v-142q-54 0 -98 6t-89 24 t-75.5 47t-50 79t-19.5 117zM479 748q13 64 23 105t24.5 86.5t30.5 73t39.5 55.5t53 44t69.5 27.5t90 15.5v-141q-41 -4 -68.5 -16t-45.5 -29.5t-31 -50.5t-21 -67t-20 -92q-1 -7 -2 -11h-142zM690 430v139h326v-139h-326zM692 260v141h324v-141h-324zM831 1014v141 q50 -4 90 -15.5t69.5 -27.5t53 -44t39.5 -55.5t30.5 -73t24.5 -86.5t23 -105h-141q-29 140 -48 180q-30 62 -98 79q-19 5 -43 7zM831 1182v141q73 -6 132 -22.5t104 -40.5t81 -63t61.5 -81t47.5 -103.5t37.5 -121.5t32.5 -143h-141q-16 78 -28 127t-31.5 102t-43.5 84 t-59 59t-82.5 42t-110.5 20zM831 1348v141q95 -6 173.5 -27t138.5 -53.5t109 -82.5t84.5 -106.5t65.5 -134t51 -156t42 -181.5h-141q-18 86 -34.5 149t-40 126.5t-51 108t-65.5 85t-85.5 66t-109 42.5t-137.5 23zM1024 725h141l140 -725h-144zM1192 725h141l140 -725h-144z M1360 725h143l137 -725h-143z" />
<glyph unicode="&#xc1;" horiz-adv-x="1640" d="M0 0l137 725h144l-138 -725h-143zM145 748q21 103 42 181.5t51 156t65.5 134t84.5 106.5t109 82.5t138.5 53.5t173.5 27v-141q-76 -6 -137.5 -23t-109 -42.5t-85.5 -66t-65.5 -85t-50.5 -108.5t-39.5 -126.5t-34.5 -148.5h-142zM168 0l139 725h142l-46 -236q96 65 265 80 v-141q-54 -5 -96.5 -17.5t-75 -29.5t-57.5 -45.5t-43 -58.5t-33.5 -76.5t-26 -90.5t-23.5 -110h-145zM313 748q17 83 32.5 143t37.5 121.5t47.5 103.5t61.5 81t81 63t104 40.5t132 22.5v-141q-63 -6 -110 -20t-82 -42t-59 -59t-43 -83.5t-31.5 -102t-28.5 -127.5h-142z M338 0q15 74 26.5 120t30 94.5t40 76.5t54.5 53t76.5 38t102.5 19v-141q-26 -3 -46.5 -7.5t-37 -14.5t-27.5 -18t-21.5 -28.5t-16.5 -33t-14.5 -44.5t-12.5 -51t-13 -63h-141zM479 748q13 64 23 105t24.5 86.5t30.5 73t39.5 55.5t53 44t69.5 27.5t90 15.5v-141 q-41 -4 -68.5 -16t-45.5 -29.5t-31 -50.5t-21 -67t-20 -92q-1 -7 -2 -11h-142zM690 430v139h326v-139h-326zM692 260v141h324v-141h-324zM831 1014v141q50 -4 90 -15.5t69.5 -27.5t53 -44t39.5 -55.5t30.5 -73t24.5 -86.5t23 -105h-141q-29 140 -48 180q-30 62 -98 79 q-19 5 -43 7zM831 1182v141q73 -6 132 -22.5t104 -40.5t81 -63t61.5 -81t47.5 -103.5t37.5 -121.5t32.5 -143h-141q-16 78 -28 127t-31.5 102t-43.5 84t-59 59t-82.5 42t-110.5 20zM831 1348v141q95 -6 173.5 -27t138.5 -53.5t109 -82.5t84.5 -106.5t65.5 -134t51 -156 t42 -181.5h-141q-18 86 -34.5 149t-40 126.5t-51 108t-65.5 85t-85.5 66t-109 42.5t-137.5 23zM831 1513v142q55 0 92.5 7t57 16.5t29 29.5t11 34.5t1.5 43.5h141q0 -67 -19.5 -117t-50 -79t-75.5 -47t-89 -24t-98 -6zM1024 725h141l140 -725h-144zM1192 725h141l140 -725 h-144zM1360 725h143l137 -725h-143z" />
<glyph unicode="&#xc2;" horiz-adv-x="1640" d="M0 0l137 725h144l-138 -725h-143zM145 748q21 103 42 181.5t51 156t65.5 134t84.5 106.5t109 82.5t138.5 53.5t173.5 27v-141q-76 -6 -137.5 -23t-109 -42.5t-85.5 -66t-65.5 -85t-50.5 -108.5t-39.5 -126.5t-34.5 -148.5h-142zM168 0l139 725h142l-46 -236q96 65 265 80 v-141q-54 -5 -96.5 -17.5t-75 -29.5t-57.5 -45.5t-43 -58.5t-33.5 -76.5t-26 -90.5t-23.5 -110h-145zM313 748q17 83 32.5 143t37.5 121.5t47.5 103.5t61.5 81t81 63t104 40.5t132 22.5v-141q-63 -6 -110 -20t-82 -42t-59 -59t-43 -83.5t-31.5 -102t-28.5 -127.5h-142z M338 0q15 74 26.5 120t30 94.5t40 76.5t54.5 53t76.5 38t102.5 19v-141q-26 -3 -46.5 -7.5t-37 -14.5t-27.5 -18t-21.5 -28.5t-16.5 -33t-14.5 -44.5t-12.5 -51t-13 -63h-141zM479 748q13 64 23 105t24.5 86.5t30.5 73t39.5 55.5t53 44t69.5 27.5t90 15.5v-141 q-41 -4 -68.5 -16t-45.5 -29.5t-31 -50.5t-21 -67t-20 -92q-1 -7 -2 -11h-142zM518 1499q42 123 113.5 194.5t191.5 71.5q122 0 193.5 -72t111.5 -194h-147q-47 123 -162 123q-109 0 -153 -123h-148zM690 430v139h326v-139h-326zM692 260v141h324v-141h-324zM831 1014v141 q50 -4 90 -15.5t69.5 -27.5t53 -44t39.5 -55.5t30.5 -73t24.5 -86.5t23 -105h-141q-29 140 -48 180q-30 62 -98 79q-19 5 -43 7zM831 1182v141q73 -6 132 -22.5t104 -40.5t81 -63t61.5 -81t47.5 -103.5t37.5 -121.5t32.5 -143h-141q-16 78 -28 127t-31.5 102t-43.5 84 t-59 59t-82.5 42t-110.5 20zM831 1348v141q95 -6 173.5 -27t138.5 -53.5t109 -82.5t84.5 -106.5t65.5 -134t51 -156t42 -181.5h-141q-18 86 -34.5 149t-40 126.5t-51 108t-65.5 85t-85.5 66t-109 42.5t-137.5 23zM1024 725h141l140 -725h-144zM1192 725h141l140 -725h-144z M1360 725h143l137 -725h-143z" />
<glyph unicode="&#xc3;" horiz-adv-x="1640" d="M0 0l137 725h144l-138 -725h-143zM145 748q21 103 42 181.5t51 156t65.5 134t84.5 106.5t109 82.5t138.5 53.5t173.5 27v-141q-76 -6 -137.5 -23t-109 -42.5t-85.5 -66t-65.5 -85t-50.5 -108.5t-39.5 -126.5t-34.5 -148.5h-142zM168 0l139 725h142l-46 -236q96 65 265 80 v-141q-54 -5 -96.5 -17.5t-75 -29.5t-57.5 -45.5t-43 -58.5t-33.5 -76.5t-26 -90.5t-23.5 -110h-145zM313 748q17 83 32.5 143t37.5 121.5t47.5 103.5t61.5 81t81 63t104 40.5t132 22.5v-141q-63 -6 -110 -20t-82 -42t-59 -59t-43 -83.5t-31.5 -102t-28.5 -127.5h-142z M338 0q15 74 26.5 120t30 94.5t40 76.5t54.5 53t76.5 38t102.5 19v-141q-26 -3 -46.5 -7.5t-37 -14.5t-27.5 -18t-21.5 -28.5t-16.5 -33t-14.5 -44.5t-12.5 -51t-13 -63h-141zM479 748q13 64 23 105t24.5 86.5t30.5 73t39.5 55.5t53 44t69.5 27.5t90 15.5v-141 q-41 -4 -68.5 -16t-45.5 -29.5t-31 -50.5t-21 -67t-20 -92q-1 -7 -2 -11h-142zM504 1509q0 133 74 199t231 66v-144q-85 0 -121.5 -26.5t-36.5 -94.5h-147zM690 430v139h326v-139h-326zM692 260v141h324v-141h-324zM831 1014v141q50 -4 90 -15.5t69.5 -27.5t53 -44 t39.5 -55.5t30.5 -73t24.5 -86.5t23 -105h-141q-29 140 -48 180q-30 62 -98 79q-19 5 -43 7zM831 1182v141q73 -6 132 -22.5t104 -40.5t81 -63t61.5 -81t47.5 -103.5t37.5 -121.5t32.5 -143h-141q-16 78 -28 127t-31.5 102t-43.5 84t-59 59t-82.5 42t-110.5 20zM831 1348 v141q95 -6 173.5 -27t138.5 -53.5t109 -82.5t84.5 -106.5t65.5 -134t51 -156t42 -181.5h-141q-18 86 -34.5 149t-40 126.5t-51 108t-65.5 85t-85.5 66t-109 42.5t-137.5 23zM831 1509v144q85 0 121.5 26.5t36.5 94.5h148q0 -133 -74 -199t-232 -66zM1024 725h141l140 -725 h-144zM1192 725h141l140 -725h-144zM1360 725h143l137 -725h-143z" />
<glyph unicode="&#xc4;" horiz-adv-x="1640" d="M0 0l137 725h144l-138 -725h-143zM143 748q25 121 50.5 210t63 174.5t86 144.5t114.5 106t153.5 73t198.5 33v-141q-76 -6 -138 -23t-109.5 -42.5t-85.5 -66t-65.5 -85t-51 -108t-40 -127t-34.5 -148.5h-142zM168 0l139 725h142l-46 -236q96 65 265 80v-141 q-54 -5 -96.5 -17.5t-75 -29.5t-57.5 -45.5t-43 -58.5t-33.5 -76.5t-26 -90.5t-23.5 -110h-145zM313 748q17 83 32.5 143t37.5 121.5t47.5 103.5t61.5 81t81 63t104 40.5t132 22.5v-141q-63 -6 -110 -20t-82 -42t-59 -59t-43 -83.5t-31.5 -102t-28.5 -127.5h-142zM338 0 q15 74 26.5 120t30 94.5t40 76.5t54.5 53t76.5 38t102.5 19v-141q-26 -3 -46.5 -7.5t-37 -14.5t-27.5 -18t-21.5 -28.5t-16.5 -33t-14.5 -44.5t-12.5 -51t-13 -63h-141zM479 748q13 64 23 105t24.5 86.5t30.5 73t39.5 55.5t53 44t69.5 27.5t90 15.5v-141q-41 -4 -68.5 -16 t-45.5 -29.5t-31 -50.5t-21 -67t-20 -92q-1 -7 -2 -11h-142zM598 1509v142h211v-142h-211zM690 430v139h326v-139h-326zM692 260v141h324v-141h-324zM831 1014v141q50 -4 90 -15.5t69.5 -27.5t53 -44t39.5 -55.5t30.5 -73t24.5 -86.5t23 -105h-141q-29 140 -48 180 q-30 62 -98 79q-19 5 -43 7zM831 1182v141q73 -6 132 -22.5t104 -40.5t81 -63t61.5 -81t47.5 -103.5t37.5 -121.5t32.5 -143h-141q-16 78 -28 127t-31.5 102t-43.5 84t-59 59t-82.5 42t-110.5 20zM831 1348v141q95 -6 173.5 -27t138.5 -53.5t109 -82.5t84.5 -106.5 t65.5 -134t51 -156t42 -181.5h-141q-18 86 -34.5 149t-40 126.5t-51 108t-65.5 85t-85.5 66t-109 42.5t-137.5 23zM831 1509v142h213l-2 -142h-211zM1024 725h141l140 -725h-144zM1192 725h141l140 -725h-144zM1360 725h143l137 -725h-143z" />
<glyph unicode="&#xc5;" horiz-adv-x="1640" d="M0 0l137 725h144l-138 -725h-143zM143 748q23 112 47.5 198.5t61 169.5t81 142t106.5 105t139 71q-34 28 -54 76t-20 104h147q0 -68 36.5 -95.5t121.5 -27.5v-143q-76 -6 -138 -23t-109.5 -42.5t-85.5 -66t-65.5 -85t-51 -108t-40 -127t-34.5 -148.5h-142zM168 0l139 725 h142l-46 -236q96 65 265 80v-141q-54 -5 -96.5 -17.5t-75 -29.5t-57.5 -45.5t-43 -58.5t-33.5 -76.5t-26 -90.5t-23.5 -110h-145zM313 748q17 83 32.5 143t37.5 121.5t47.5 103.5t61.5 81t81 63t104 40.5t132 22.5v-141q-63 -6 -110 -20t-82 -42t-59 -59t-43 -83.5 t-31.5 -102t-28.5 -127.5h-142zM338 0q15 74 26.5 120t30 94.5t40 76.5t54.5 53t76.5 38t102.5 19v-141q-26 -3 -46.5 -7.5t-37 -14.5t-27.5 -18t-21.5 -28.5t-16.5 -33t-14.5 -44.5t-12.5 -51t-13 -63h-141zM479 748q13 64 23 105t24.5 86.5t30.5 73t39.5 55.5t53 44 t69.5 27.5t90 15.5v-141q-41 -4 -68.5 -16t-45.5 -29.5t-31 -50.5t-21 -67t-20 -92q-1 -7 -2 -11h-142zM504 1636q0 133 74 199t231 66v-144q-85 0 -121.5 -26.5t-36.5 -94.5h-147zM690 430v139h326v-139h-326zM692 260v141h324v-141h-324zM831 1014v141q50 -4 90 -15.5 t69.5 -27.5t53 -44t39.5 -55.5t30.5 -73t24.5 -86.5t23 -105h-141q-29 140 -48 180q-30 62 -98 79q-19 5 -43 7zM831 1182v141q73 -6 132 -22.5t104 -40.5t81 -63t61.5 -81t47.5 -103.5t37.5 -121.5t32.5 -143h-141q-16 78 -28 127t-31.5 102t-43.5 84t-59 59t-82.5 42 t-110.5 20zM831 1348v143q85 0 121.5 27.5t36.5 95.5h148q0 -56 -20 -104t-54 -76q96 -31 168 -91.5t122 -154t82.5 -195.5t61.5 -245h-141q-18 85 -34.5 148.5t-40 126.5t-51.5 108t-66 85.5t-85.5 66t-109.5 42.5t-138 23zM831 1757v144q158 0 232 -66t74 -199h-148 q0 68 -36.5 94.5t-121.5 26.5zM1024 725h141l140 -725h-144zM1192 725h141l140 -725h-144zM1360 725h143l137 -725h-143z" />
<glyph unicode="&#xc6;" horiz-adv-x="2457" d="M0 0l137 725h144l-138 -725h-143zM145 750q21 103 42 181.5t51 156t65.5 133.5t84.5 106t109.5 82t138.5 53t173 27v-141q-76 -6 -137.5 -23t-109 -42.5t-85.5 -65.5t-65.5 -84.5t-50.5 -108t-39.5 -126t-34.5 -148.5h-142zM168 0l139 725h142l-46 -236q96 65 265 80 v-141q-54 -5 -96.5 -17.5t-75 -29.5t-57.5 -45.5t-43 -58.5t-33.5 -76.5t-26 -90.5t-23.5 -110h-145zM313 750q24 118 46.5 195t60 151t87.5 117.5t125 72.5t177 37v-141q-75 -7 -128.5 -28.5t-88.5 -52.5t-61.5 -88t-41.5 -113t-34 -150h-142zM338 0q15 74 26.5 120 t30 94.5t40 76.5t54.5 53t76.5 38t102.5 19v-141q-26 -3 -46.5 -7.5t-37 -14.5t-27.5 -18t-21.5 -28.5t-16.5 -33t-14.5 -44.5t-12.5 -51t-13 -63h-141zM479 750q13 64 23 104.5t24.5 86t30.5 73t39.5 55.5t53.5 43.5t69.5 27t89.5 15.5v-141q-95 -10 -125.5 -59t-60.5 -196 q-1 -6 -2 -9h-142zM690 430v139h326v-139h-326zM692 260v141h324v-141h-324zM831 1014v141q50 -4 89.5 -15.5t69.5 -27t53.5 -43t39.5 -55t30.5 -72.5t24.5 -86t23 -104h-141q-9 44 -13 63t-12.5 51t-14 45t-16.5 33.5t-22 28.5t-27.5 18.5t-37 15t-46.5 7.5zM831 1182v141 q163 -13 256.5 -75t149.5 -183q73 201 248 305.5t438 104.5v-142q-596 0 -596 -573v-8h-141q-11 58 -20.5 97.5t-22.5 82.5t-26.5 71.5t-33 58t-43 47.5t-54.5 34.5t-69 25.5t-86 13zM1024 725h141l140 -725h-144zM1192 725h139l139 -725h-141zM1354 752q0 283 141.5 420 t427.5 137v-142q-228 0 -328 -95.5t-100 -319.5h-141zM1358 725l137 2q0 -224 100.5 -321t327.5 -97v-141q-211 0 -332 78l49 -246h-145zM1520 727l405 -2v-141l-248 2q20 -64 75.5 -87.5t170.5 -23.5v-141q-217 0 -310 89t-93 304zM1520 752q0 213 93 301t310 88v-142 q-117 0 -172 -21.5t-74 -84.5h248v-141h-405zM1948 0v141h448v-141h-448zM1948 168v141h448v-141h-448zM1948 334v141h448v-141h-448zM1948 586v141l329 -2v-141zM1948 752v141h329v-141h-329zM1948 999v142h448v-142h-448zM1948 1167v142h448v-142h-448zM1948 1333v142h448 v-142h-448z" />
<glyph unicode="&#xc7;" horiz-adv-x="1560" d="M41 725h141q0 -290 151.5 -437t444.5 -147v-141q-353 0 -545 187.5t-192 537.5zM41 750q0 352 192.5 544.5t544.5 192.5v-141q-292 0 -444 -152t-152 -444h-141zM207 725h141q0 -224 101.5 -321t328.5 -97v-141q-286 0 -428.5 138t-142.5 421zM207 750q0 571 571 571 v-141q-226 0 -328 -102t-102 -328h-141zM375 725h141q0 -81 11 -128t42.5 -76t79 -38.5t129.5 -9.5v-139q-217 0 -310 88.5t-93 302.5zM375 750q0 215 94 309t309 94v-141q-157 0 -209.5 -52.5t-52.5 -209.5h-141zM645 -145q85 0 121.5 26t36.5 94h147q0 -132 -73.5 -198 t-231.5 -66v144zM803 0v141h665v-141h-665zM803 166v141h665v-141h-665zM803 334v139h665v-139h-665zM803 1012v141q215 0 309 -94t94 -309h-141q0 157 -52.5 209.5t-209.5 52.5zM803 1180v141q571 0 571 -571h-141q0 226 -102 328t-328 102zM803 1346v141 q352 0 544.5 -192.5t192.5 -544.5h-141q0 292 -152 444t-444 152z" />
<glyph unicode="&#xc8;" horiz-adv-x="1312" d="M41 727h141q0 -292 151.5 -439t444.5 -147v-141q-353 0 -545 188t-192 539zM41 752q0 350 192 536.5t545 186.5v-142q-294 0 -445 -145t-151 -436h-141zM207 727h141q0 -224 101.5 -321t328.5 -97v-141q-286 0 -428.5 138t-142.5 421zM207 752q0 283 142.5 420t428.5 137 v-142q-228 0 -329 -95.5t-101 -319.5h-141zM375 727l405 -2l-2 -141l-246 2q20 -64 75.5 -87.5t170.5 -23.5v-141q-217 0 -310 89t-93 304zM375 752q0 213 93 301t310 88v-142q-117 0 -172 -21.5t-74 -84.5h246v-141h-403zM449 1772h141q0 -25 1 -37t6 -30.5t16.5 -27.5 t32 -19t53.5 -14t79 -4v-141q-54 0 -97.5 6t-88.5 24t-75 47t-49 79t-19 117zM803 0v141h448v-141h-448zM803 168v141h448v-141h-448zM803 334v141h448v-141h-448zM803 586v141l330 -2v-141zM803 752v141h330v-141h-330zM803 999v142h448v-142h-448zM803 1167v142h448v-142 h-448zM803 1333v142h448v-142h-448z" />
<glyph unicode="&#xc9;" horiz-adv-x="1312" d="M41 727h141q0 -292 151.5 -439t444.5 -147v-141q-353 0 -545 188t-192 539zM41 752q0 350 192 536.5t545 186.5v-142q-294 0 -445 -145t-151 -436h-141zM207 727h141q0 -224 101.5 -321t328.5 -97v-141q-286 0 -428.5 138t-142.5 421zM207 752q0 283 142.5 420t428.5 137 v-142q-228 0 -329 -95.5t-101 -319.5h-141zM375 727l405 -2l-2 -139h-246q20 -64 75.5 -87.5t170.5 -23.5v-141q-217 0 -310 89t-93 304zM375 752q0 213 93 301t310 88v-142q-117 0 -172 -21.5t-74 -84.5h246v-141h-403zM803 0v141h448v-141h-448zM803 168v141h448v-141 h-448zM803 334v141h448v-141h-448zM803 586v139h330v-139h-330zM803 752v141h330v-141h-330zM803 999v142h448v-142h-448zM803 1167v142h448v-142h-448zM803 1333v142h448v-142h-448zM803 1499v141q55 0 92.5 7.5t56.5 16.5t28.5 29.5t11 34.5t1.5 44h142q0 -67 -19.5 -117 t-50 -79t-75.5 -47t-89 -24t-98 -6z" />
<glyph unicode="&#xca;" horiz-adv-x="1312" d="M41 727h141q0 -292 151.5 -439t444.5 -147v-141q-353 0 -545 188t-192 539zM41 752q0 350 192 536.5t545 186.5v-142q-294 0 -445 -145t-151 -436h-141zM207 727h141q0 -224 101.5 -321t328.5 -97v-141q-286 0 -428.5 138t-142.5 421zM207 752q0 283 142.5 420t428.5 137 v-142q-228 0 -329 -95.5t-101 -319.5h-141zM375 727l405 -2l-2 -141l-246 2q20 -64 75.5 -87.5t170.5 -23.5v-141q-217 0 -310 89t-93 304zM375 752q0 213 93 301t310 88v-142q-117 0 -172 -21.5t-74 -84.5h246v-141h-403zM479 1499q44 123 115 194.5t190 71.5 q123 0 195.5 -72t112.5 -194h-148q-47 123 -162 123q-109 0 -153 -123h-150zM803 0v141h448v-141h-448zM803 168v141h448v-141h-448zM803 334v141h448v-141h-448zM803 586v141l330 -2v-141zM803 752v141h330v-141h-330zM803 999v142h448v-142h-448zM803 1167v142h448v-142 h-448zM803 1333v142h448v-142h-448z" />
<glyph unicode="&#xcb;" horiz-adv-x="1312" d="M41 727h141q0 -292 151.5 -439t444.5 -147v-141q-353 0 -545 188t-192 539zM41 752q0 350 192 536.5t545 186.5v-142q-294 0 -445 -145t-151 -436h-141zM207 727h141q0 -224 101.5 -321t328.5 -97v-141q-286 0 -428.5 138t-142.5 421zM207 752q0 283 142.5 420t428.5 137 v-142q-228 0 -329 -95.5t-101 -319.5h-141zM375 727l405 -2l-2 -141l-246 2q20 -64 75.5 -87.5t170.5 -23.5v-141q-217 0 -310 89t-93 304zM375 752q0 213 93 301t310 88v-142q-117 0 -172 -21.5t-74 -84.5h246v-141h-403zM567 1499v141h211v-141h-211zM803 0v141h448v-141 h-448zM803 168v141h448v-141h-448zM803 334v141h448v-141h-448zM803 586v141l330 -2v-141zM803 752v141h330v-141h-330zM803 999v142h448v-142h-448zM803 1167v142h448v-142h-448zM803 1333v142h448v-142h-448zM803 1499v141h211v-141h-211z" />
<glyph unicode="&#xcc;" d="M82 0v725h141v-725h-141zM82 750v725h141v-725h-141zM154 1774h141q0 -21 0.5 -31.5t4 -28t10.5 -26t20.5 -19.5t33.5 -16t50.5 -9t70.5 -4v-141q-54 0 -98 6t-89 24t-75.5 47.5t-49.5 80t-19 117.5zM250 0v725h141v-725h-141zM250 750v725h141v-725h-141zM416 0v725h141 v-725h-141zM416 750v725h141v-725h-141z" />
<glyph unicode="&#xcd;" d="M82 0v725h141v-725h-141zM82 750v725h141v-725h-141zM158 1499v141q55 0 92.5 7.5t56.5 16.5t28.5 29.5t11 34.5t1.5 44h141q0 -67 -19 -117t-49.5 -79t-75.5 -47t-89 -24t-98 -6zM250 0v725h141v-725h-141zM250 750v725h141v-725h-141zM416 0v725h141v-725h-141z M416 750v725h141v-725h-141z" />
<glyph unicode="&#xce;" d="M16 1499q20 58 44.5 102.5t60 83.5t86 59.5t112.5 20.5q123 0 195.5 -72t112.5 -194h-148q-47 123 -162 123q-109 0 -153 -123h-148zM82 0v725h141v-725h-141zM82 750v725h141v-725h-141zM250 0v725h141v-725h-141zM250 750v725h141v-725h-141zM416 0v725h141v-725h-141z M416 750v725h141v-725h-141z" />
<glyph unicode="&#xcf;" d="M82 0v725h141v-725h-141zM82 750v725h141v-725h-141zM82 1499v141h225v-141h-225zM250 0v725h141v-725h-141zM250 750v725h141v-725h-141zM332 1499v141h225v-141h-225zM416 0v725h141v-725h-141zM416 750v725h141v-725h-141z" />
<glyph unicode="&#xd0;" horiz-adv-x="1681" d="M41 586v139h338l2 -725h-141l-2 584zM41 748v145h197l2 582h141l-2 -727h-338zM406 0v725h141v-725h-141zM406 748v727h141v-727h-141zM573 0v725h142v-586h164l-2 -141zM573 748v727h304l2 -142h-164v-585h-142zM737 166v141h142v-141h-142zM737 334v141h142v-141h-142z M737 997v142h142v-142h-142zM737 1165v142h142v-142h-142zM901 0v141q295 0 446.5 145.5t151.5 436.5h141q0 -350 -192.5 -536.5t-546.5 -186.5zM901 166v141q228 0 329 96t101 320h142q0 -282 -143 -419.5t-429 -137.5zM901 334v141q83 0 130.5 9t79.5 37t43 75t11 127h142 q0 -213 -94 -301t-312 -88zM901 997v142q217 0 311.5 -89t94.5 -302h-142q0 80 -11 127t-43 75.5t-79.5 37.5t-130.5 9zM901 1165v142q286 0 429 -138t143 -421h-142q0 224 -101 320.5t-329 96.5zM901 1333v142q353 0 546 -189t193 -538h-141q0 291 -152 438t-446 147z" />
<glyph unicode="&#xd1;" horiz-adv-x="1613" d="M82 1130q0 153 72.5 242.5t173.5 110.5q110 24 212.5 -33t159.5 -168l269 -532h-156l-248 479q-36 70 -92.5 99t-114.5 18q-64 -12 -99.5 -63.5t-35.5 -137.5l2 -395h-141zM84 0v725h141v-725h-141zM246 750v399q0 79 34 122.5t85 53.5q54 10 102.5 -19t79.5 -89 l241 -467h-153l-213 409q-8 18 -20.5 16t-12.5 -26v-399h-143zM248 0v725h141v-725h-141zM414 0v725h141l-2 -725h-139zM555 1499q0 134 73.5 200t231.5 66v-143q-85 0 -121.5 -27.5t-36.5 -95.5h-147zM645 725h156l248 -479q36 -70 92 -99t114 -18q66 12 101.5 63.5 t34.5 137.5v395h141v-381q1 -153 -71 -242t-175 -110q-110 -24 -212 33t-159 168zM825 725h156l211 -410q9 -18 21 -15.5t12 26.5v399h143v-399q0 -79 -33.5 -122.5t-83.5 -53.5q-54 -10 -102.5 19t-79.5 89zM883 1499v143q85 0 121 27.5t36 95.5h148q0 -134 -73.5 -200 t-231.5 -66zM1061 750v725h139v-725h-139zM1225 750v725h141v-725h-141zM1391 750v725h141v-725h-141z" />
<glyph unicode="&#xd2;" horiz-adv-x="1581" d="M41 725h141q0 -292 152 -444t444 -152v-141q-352 0 -544.5 192.5t-192.5 544.5zM41 750q0 352 192.5 544.5t544.5 192.5v-141q-292 0 -444 -152t-152 -444h-141zM207 725h141q0 -226 102 -328t328 -102v-141q-571 0 -571 571zM207 750q0 571 571 571v-141 q-226 0 -328 -102t-102 -328h-141zM375 725h141q0 -157 52.5 -209.5t209.5 -52.5v-141q-215 0 -309 94t-94 309zM375 750q0 215 94 309t309 94v-141q-157 0 -209.5 -52.5t-52.5 -209.5h-141zM446 1784h142q0 -21 0.5 -31.5t4 -27.5t10.5 -25.5t20.5 -19.5t33.5 -16t50.5 -9 t70.5 -4v-142q-54 0 -98 6t-89 24.5t-75.5 48t-50 79.5t-19.5 117zM803 -12v141q292 0 444 152t152 444h141q0 -352 -192.5 -544.5t-544.5 -192.5zM803 154v141q226 0 328 102t102 328h141q0 -571 -571 -571zM803 322v141q157 0 209.5 52.5t52.5 209.5h141q0 -215 -94 -309 t-309 -94zM803 1012v141q215 0 309 -94t94 -309h-141q0 157 -52.5 209.5t-209.5 52.5zM803 1180v141q571 0 571 -571h-141q0 226 -102 328t-328 102zM803 1346v141q352 0 544.5 -192.5t192.5 -544.5h-141q0 292 -152 444t-444 152z" />
<glyph unicode="&#xd3;" horiz-adv-x="1581" d="M41 725h141q0 -292 152 -444t444 -152v-141q-352 0 -544.5 192.5t-192.5 544.5zM41 750q0 352 192.5 544.5t544.5 192.5v-141q-292 0 -444 -152t-152 -444h-141zM207 725h141q0 -226 102 -328t328 -102v-141q-571 0 -571 571zM207 750q0 571 571 571v-141 q-226 0 -328 -102t-102 -328h-141zM375 725h141q0 -157 52.5 -209.5t209.5 -52.5v-141q-215 0 -309 94t-94 309zM375 750q0 215 94 309t309 94v-141q-157 0 -209.5 -52.5t-52.5 -209.5h-141zM803 -12v141q292 0 444 152t152 444h141q0 -352 -192.5 -544.5t-544.5 -192.5z M803 154v141q226 0 328 102t102 328h141q0 -571 -571 -571zM803 322v141q157 0 209.5 52.5t52.5 209.5h141q0 -215 -94 -309t-309 -94zM803 1012v141q215 0 309 -94t94 -309h-141q0 157 -52.5 209.5t-209.5 52.5zM803 1180v141q571 0 571 -571h-141q0 226 -102 328t-328 102 zM803 1346v141q352 0 544.5 -192.5t192.5 -544.5h-141q0 292 -152 444t-444 152zM803 1509v142q40 0 70.5 4t50.5 9t33.5 16t20.5 19.5t10.5 25.5t4 27.5t0.5 31.5h142q0 -67 -19.5 -117t-50 -79.5t-75.5 -48t-89 -24.5t-98 -6z" />
<glyph unicode="&#xd4;" horiz-adv-x="1581" d="M41 725h141q0 -292 152 -444t444 -152v-141q-352 0 -544.5 192.5t-192.5 544.5zM41 750q0 352 192.5 544.5t544.5 192.5v-141q-292 0 -444 -152t-152 -444h-141zM207 725h141q0 -226 102 -328t328 -102v-141q-571 0 -571 571zM207 750q0 571 571 571v-141 q-226 0 -328 -102t-102 -328h-141zM375 725h141q0 -157 52.5 -209.5t209.5 -52.5v-141q-215 0 -309 94t-94 309zM375 750q0 215 94 309t309 94v-141q-157 0 -209.5 -52.5t-52.5 -209.5h-141zM485 1499q44 123 115.5 194.5t190.5 71.5q64 0 115.5 -20.5t87.5 -59.5 t60.5 -83.5t43.5 -102.5h-148q-47 123 -162 123q-109 0 -153 -123h-150zM803 -12v141q292 0 444 152t152 444h141q0 -352 -192.5 -544.5t-544.5 -192.5zM803 154v141q226 0 328 102t102 328h141q0 -571 -571 -571zM803 322v141q157 0 209.5 52.5t52.5 209.5h141 q0 -215 -94 -309t-309 -94zM803 1012v141q215 0 309 -94t94 -309h-141q0 157 -52.5 209.5t-209.5 52.5zM803 1180v141q571 0 571 -571h-141q0 226 -102 328t-328 102zM803 1346v141q352 0 544.5 -192.5t192.5 -544.5h-141q0 292 -152 444t-444 152z" />
<glyph unicode="&#xd5;" horiz-adv-x="1581" d="M41 725h141q0 -292 152 -444t444 -152v-141q-352 0 -544.5 192.5t-192.5 544.5zM41 750q0 352 192.5 544.5t544.5 192.5v-141q-292 0 -444 -152t-152 -444h-141zM207 725h141q0 -226 102 -328t328 -102v-141q-571 0 -571 571zM207 750q0 571 571 571v-141 q-226 0 -328 -102t-102 -328h-141zM375 725h141q0 -157 52.5 -209.5t209.5 -52.5v-141q-215 0 -309 94t-94 309zM375 750q0 215 94 309t309 94v-141q-157 0 -209.5 -52.5t-52.5 -209.5h-141zM473 1509q0 134 73.5 200.5t231.5 66.5v-144q-84 0 -119.5 -27.5t-35.5 -95.5 h-150zM803 -12v141q292 0 444 152t152 444h141q0 -352 -192.5 -544.5t-544.5 -192.5zM803 154v141q226 0 328 102t102 328h141q0 -571 -571 -571zM803 322v141q157 0 209.5 52.5t52.5 209.5h141q0 -215 -94 -309t-309 -94zM803 1012v141q215 0 309 -94t94 -309h-141 q0 157 -52.5 209.5t-209.5 52.5zM803 1180v141q571 0 571 -571h-141q0 226 -102 328t-328 102zM803 1346v141q352 0 544.5 -192.5t192.5 -544.5h-141q0 292 -152 444t-444 152zM803 1509v144q84 0 119.5 27.5t35.5 95.5h150q0 -134 -73.5 -200.5t-231.5 -66.5z" />
<glyph unicode="&#xd6;" horiz-adv-x="1581" d="M41 725h141q0 -292 152 -444t444 -152v-141q-352 0 -544.5 192.5t-192.5 544.5zM41 750q0 352 192.5 544.5t544.5 192.5v-141q-292 0 -444 -152t-152 -444h-141zM207 725h141q0 -226 102 -328t328 -102v-141q-571 0 -571 571zM207 750q0 571 571 571v-141 q-226 0 -328 -102t-102 -328h-141zM375 725h141q0 -157 52.5 -209.5t209.5 -52.5v-141q-215 0 -309 94t-94 309zM375 750q0 215 94 309t309 94v-141q-157 0 -209.5 -52.5t-52.5 -209.5h-141zM567 1509v142h211v-142h-211zM803 -12v141q292 0 444 152t152 444h141 q0 -352 -192.5 -544.5t-544.5 -192.5zM803 154v141q226 0 328 102t102 328h141q0 -571 -571 -571zM803 322v141q157 0 209.5 52.5t52.5 209.5h141q0 -215 -94 -309t-309 -94zM803 1012v141q215 0 309 -94t94 -309h-141q0 157 -52.5 209.5t-209.5 52.5zM803 1180v141 q571 0 571 -571h-141q0 226 -102 328t-328 102zM803 1346v141q352 0 544.5 -192.5t192.5 -544.5h-141q0 292 -152 444t-444 152zM803 1509v142h211v-142h-211z" />
<glyph unicode="&#xd7;" horiz-adv-x="731" d="M41 514l207 207l100 -100l-207 -207zM43 961l100 98l547 -547l-100 -100zM381 854l207 207l100 -98l-207 -209z" />
<glyph unicode="&#xd8;" horiz-adv-x="1581" d="M41 725h141q0 -248 109 -395t321 -187l-57 -131q-249 56 -381.5 239.5t-132.5 473.5zM41 750q0 330 171 521t486 214l123 270l142 2l-185 -411h-2q-292 0 -443 -152t-151 -444h-141zM207 725h141q0 -226 102 -328t328 -102v-158l-186 -420h-141l196 447q-440 62 -440 561 zM207 750q0 571 571 571v-141q-226 0 -328 -102t-102 -328h-141zM375 725h141q0 -157 52.5 -209.5t209.5 -52.5v-141q-215 0 -309 94t-94 309zM375 750q0 215 94 309t309 94v-141q-157 0 -209.5 -52.5t-52.5 -209.5h-141zM618 -283l185 412h2q292 0 443 152t151 444h141 q0 -330 -171 -521t-486 -214l-123 -273h-142zM803 154v141q226 0 328 102t102 328h141q0 -571 -571 -571zM803 322v141q157 0 209.5 52.5t52.5 209.5h141q0 -215 -94 -309t-309 -94zM803 1012v141q215 0 309 -94t94 -309h-141q0 157 -52.5 209.5t-209.5 52.5zM803 1180v155 l186 422h144l-199 -446q440 -62 440 -561h-141q0 226 -102 328t-328 102zM971 1331l55 131q249 -56 381.5 -239t132.5 -473h-141q0 247 -108.5 394t-319.5 187z" />
<glyph unicode="&#xd9;" horiz-adv-x="1574" d="M61 725h142q0 -596 573 -596v-141q-349 0 -532 191.5t-183 545.5zM61 750v725h142v-725h-142zM227 725h142q0 -229 92 -329.5t315 -100.5v-141q-282 0 -415.5 142t-133.5 429zM227 750v725h142v-725h-142zM395 725h142q0 -84 7.5 -130t34 -78.5t72 -43t125.5 -10.5v-141 q-212 0 -296.5 92t-84.5 311zM395 750v725h142v-725h-142zM616 1772h142q0 -21 0.5 -31.5t4 -27.5t10.5 -25.5t20.5 -19.5t33.5 -16t50.5 -8.5t70.5 -3.5v-141q-54 0 -98 6t-89 24t-75.5 47t-50 79t-19.5 117zM799 -12v141q573 0 573 596h141q0 -355 -182.5 -546 t-531.5 -191zM799 154v141q223 0 315 100.5t92 329.5h142q0 -287 -133.5 -429t-415.5 -142zM799 322v141q80 0 125.5 10.5t72 43t34 78.5t7.5 130h142q0 -219 -84 -311t-297 -92zM1038 750v725h142v-725h-142zM1206 750v725h142v-725h-142zM1372 750v725h141v-725h-141z" />
<glyph unicode="&#xda;" horiz-adv-x="1574" d="M61 725h142q0 -596 573 -596v-141q-349 0 -532 191.5t-183 545.5zM61 750v725h142v-725h-142zM227 725h142q0 -229 92 -329.5t315 -100.5v-141q-282 0 -415.5 142t-133.5 429zM227 750v725h142v-725h-142zM395 725h142q0 -84 7.5 -130t34 -78.5t72 -43t125.5 -10.5v-141 q-212 0 -296.5 92t-84.5 311zM395 750v725h142v-725h-142zM629 1499v141q55 0 92.5 7.5t56.5 16.5t28.5 29.5t11 34.5t1.5 44h142q0 -67 -19.5 -117t-50 -79t-75.5 -47t-89 -24t-98 -6zM799 -12v141q573 0 573 596h141q0 -355 -182.5 -546t-531.5 -191zM799 154v141 q223 0 315 100.5t92 329.5h142q0 -287 -133.5 -429t-415.5 -142zM799 322v141q80 0 125.5 10.5t72 43t34 78.5t7.5 130h142q0 -219 -84 -311t-297 -92zM1038 750v725h142v-725h-142zM1206 750v725h142v-725h-142zM1372 750v725h141v-725h-141z" />
<glyph unicode="&#xdb;" horiz-adv-x="1574" d="M61 725h142q0 -596 573 -596v-141q-349 0 -532 191.5t-183 545.5zM61 750v725h142v-725h-142zM227 725h142q0 -229 92 -329.5t315 -100.5v-141q-282 0 -415.5 142t-133.5 429zM227 750v725h142v-725h-142zM395 725h142q0 -84 7.5 -130t34 -78.5t72 -43t125.5 -10.5v-141 q-212 0 -296.5 92t-84.5 311zM395 750v725h142v-725h-142zM479 1499q44 123 115 194.5t190 71.5q123 0 195.5 -72t112.5 -194h-148q-47 123 -162 123q-109 0 -153 -123h-150zM799 -12v141q573 0 573 596h141q0 -355 -182.5 -546t-531.5 -191zM799 154v141q223 0 315 100.5 t92 329.5h142q0 -287 -133.5 -429t-415.5 -142zM799 322v141q80 0 125.5 10.5t72 43t34 78.5t7.5 130h142q0 -219 -84 -311t-297 -92zM1038 750v725h142v-725h-142zM1206 750v725h142v-725h-142zM1372 750v725h141v-725h-141z" />
<glyph unicode="&#xdc;" horiz-adv-x="1574" d="M61 725h142q0 -596 573 -596v-141q-349 0 -532 191.5t-183 545.5zM61 750v725h142v-725h-142zM227 725h142q0 -229 92 -329.5t315 -100.5v-141q-282 0 -415.5 142t-133.5 429zM227 750v725h142v-725h-142zM395 725h142q0 -84 7.5 -130t34 -78.5t72 -43t125.5 -10.5v-141 q-212 0 -296.5 92t-84.5 311zM395 750v725h142v-725h-142zM565 1499v141h211v-141h-211zM799 -12v141q573 0 573 596h141q0 -355 -182.5 -546t-531.5 -191zM799 154v141q223 0 315 100.5t92 329.5h142q0 -287 -133.5 -429t-415.5 -142zM799 322v141q80 0 125.5 10.5t72 43 t34 78.5t7.5 130h142q0 -219 -84 -311t-297 -92zM799 1499v141h213v-141h-213zM1038 750v725h142v-725h-142zM1206 750v725h142v-725h-142zM1372 750v725h141v-725h-141z" />
<glyph unicode="&#xdd;" horiz-adv-x="1605" d="M0 1477l141 -2l56 -299h-142zM59 1153h142q18 -87 33.5 -148t38 -125.5t48.5 -107.5t63 -83.5t83 -65t107 -41.5t137 -23v-559h-148l2 438q-82 18 -147 49.5t-114 80.5t-85.5 104.5t-66 135.5t-50.5 158t-43 187zM166 1475h141l58 -299h-142zM227 1153h142 q12 -61 20.5 -98t21 -82.5t24.5 -72t31 -57t41 -47.5t52 -33t67.5 -25t84.5 -13v-141q-57 4 -105 15t-86.5 26t-71 39t-57.5 50t-46 63.5t-37 74.5t-31 88.5t-26 99t-24 113.5zM334 1475h141l55 -299h-141zM393 1153h142q3 -16 9 -45q8 -40 12 -58t11.5 -45.5t14.5 -39 t19 -27.5t27 -23t35.5 -13t47.5 -9v-141q-44 4 -79 11.5t-63 23.5t-48 31t-37.5 44.5t-28.5 53t-23 68t-19.5 77t-19.5 92.5zM645 1499v141q40 0 70.5 3.5t50.5 9t34 16t21 19t10.5 25.5t4 27.5t0.5 31.5h141q0 -67 -19.5 -117t-50 -79t-75.5 -47t-89 -24t-98 -6zM735 0v725 h135v-725h-135zM893 0v559q76 6 137 23t107 41.5t83 65t63 83.5t48.5 107.5t38 125.5t33.5 148h141q-22 -108 -42.5 -187t-50 -158t-66 -135.5t-85.5 -105.5t-114 -81t-146 -50v-436h-147zM893 584v141q54 5 96 17.5t73 28t55.5 46t40 57t31 77.5t24.5 91t24 111h141 q-18 -86 -32.5 -143.5t-36 -120t-45.5 -103t-59 -79.5t-78.5 -62t-102 -39t-131.5 -22zM893 752v141q27 3 47.5 9t35.5 13t26.5 22.5t19 28t15 38.5t12 46t11.5 58q6 29 9 45h141q-10 -48 -15.5 -75t-15 -65t-17 -59t-19 -49.5t-23.5 -43.5t-28.5 -34t-36 -29.5t-44 -21 t-54 -16t-64.5 -8.5zM1075 1176l55 299h142l-55 -299h-142zM1241 1176l55 299h142l-56 -299h-141zM1409 1176l55 299l142 2l-58 -301h-139z" />
<glyph unicode="&#xde;" horiz-adv-x="1492" d="M82 0v594h141v-594h-141zM82 618v857h141v-857h-141zM250 0v594h141v-594h-141zM250 618v857h141v-857h-141zM416 0v594h141v-594h-141zM416 618v725h348v-141h-207v-584h-141zM580 285v141h184v-141h-184zM580 453v141h184v-141h-184zM580 866v142h184v-142h-184z M580 1036v142h184v-142h-184zM788 119v141q48 0 93.5 4.5t99 18t99 34.5t89 57t74.5 82.5t49.5 114.5t18.5 150h141q0 -283 -173 -442.5t-491 -159.5zM788 287v141q357 0 357 293h141q0 -65 -12 -121.5t-45.5 -116t-87 -101t-144 -68.5t-209.5 -27zM788 453v141 q51 0 86.5 6.5t55.5 16t30.5 27.5t13.5 34.5t3 42.5h141q0 -67 -19 -116.5t-49 -78t-75.5 -45.5t-88.5 -22.5t-98 -5.5zM788 866v142q55 0 98 -5t88.5 -21.5t75 -44t49 -76.5t19.5 -116h-141q0 33 -5.5 52t-23.5 36.5t-57 25t-103 7.5zM788 1034v144q119 0 209.5 -27 t144 -69t87 -101t45.5 -115.5t12 -120.5h-141q0 289 -357 289zM788 1202v141q318 0 491 -158t173 -440h-141q0 82 -18.5 149.5t-49 114t-74.5 82t-89.5 56t-99.5 33.5t-99 17.5t-93 4.5z" />
<glyph unicode="&#xdf;" horiz-adv-x="2416" d="M20 0v141h261v-141h-261zM20 168v141h261v-141h-261zM20 334v141h261v-141h-261zM307 6v141q89 7 157.5 26.5t120.5 56t89 80.5t66 111.5t48.5 137.5t40.5 170h140q-24 -120 -49.5 -208t-62.5 -171.5t-85 -140t-113.5 -101.5t-153 -69.5t-198.5 -32.5zM307 174v141 q63 6 109.5 19t82 38t59 54t43 79t32.5 98.5t29 125.5h141q-17 -83 -32.5 -142t-37.5 -118.5t-48 -99.5t-61.5 -76.5t-80.5 -59.5t-104 -38t-132 -21zM307 340v141q35 4 59.5 10t43.5 21.5t30 29.5t22 47t17 59t17 81h141q-13 -63 -23.5 -103.5t-25 -83.5t-30.5 -69.5 t-39 -52t-53 -40t-69 -25t-90 -15.5zM500 754q21 103 42 180.5t50.5 153t65 129.5t84 102t108.5 78.5t137.5 50.5t173.5 27v-144q-89 -7 -157.5 -26.5t-120 -55t-88 -79t-65.5 -110.5t-48.5 -136.5t-40.5 -169.5h-141zM666 754q17 83 32.5 142t37.5 118t47.5 98.5t61 76 t81 58.5t103.5 37t132 21v-142q-54 -5 -96 -16t-74.5 -26.5t-57 -42t-42.5 -54.5t-33.5 -73t-26 -88t-24.5 -109h-141zM834 754q15 74 26.5 119t29.5 91.5t39 72.5t54 49.5t76 35t102 17.5v-144q-27 -3 -46.5 -6.5t-36 -12.5t-27.5 -15.5t-21.5 -24.5t-16 -30t-13.5 -41 t-12 -48.5t-13 -62.5h-141zM969 0v141h262v-141h-262zM969 168v141h262v-141h-262zM969 334v141h262v-141h-262zM1186 997v142h260v-142h-260zM1186 1163v142h260v-142h-260zM1186 1331v144h260v-144h-260zM1255 6v141q107 9 185 37.5t131.5 72.5t93 117.5t64 154 t49.5 200.5h141q-18 -89 -36.5 -159t-42.5 -139t-52.5 -120.5t-65.5 -99.5t-83 -81.5t-103 -60t-127 -42t-154 -21.5zM1255 174v141q64 6 110.5 19t82 38t59.5 54t43.5 79t32.5 98.5t29 125.5h141q-17 -82 -33 -141.5t-38 -119t-48 -99.5t-62 -76.5t-81 -59.5t-104 -38 t-132 -21zM1255 340v141q27 3 47 7t37 13t28 16.5t21.5 26t16.5 31t14 42.5t12 49.5t13 62.5h141q-18 -88 -32.5 -140t-38.5 -102t-56.5 -76.5t-82 -45t-120.5 -25.5zM1448 754q21 103 42 180.5t51 153t65.5 129.5t84 102t109 78.5t138 50.5t173.5 27v-144 q-89 -7 -157.5 -26.5t-120.5 -55t-89 -79t-66 -110t-48.5 -136.5t-40.5 -170h-141zM1616 754q20 97 38 163.5t45.5 131t62 105.5t84 74.5t114.5 51.5t151 25v-142q-63 -6 -109.5 -18.5t-82 -37t-59.5 -53.5t-43 -77.5t-32 -97.5t-28 -125h-141zM1782 754q18 88 32.5 139.5 t38 101t56.5 75.5t82 44t120 25v-144q-30 -3 -52 -9t-39 -13t-30 -23t-21.5 -29.5t-17 -43.5t-13.5 -53t-15 -70h-141zM2136 997v142h260v-142h-260zM2136 1163v142h260v-142h-260zM2136 1331v144h260v-144h-260z" />
<glyph unicode="&#xe0;" horiz-adv-x="1529" d="M41 588h141q0 -82 19 -150t50 -114.5t75.5 -82t90.5 -56t100 -33t98.5 -17t91.5 -4.5v-141q-313 0 -489.5 158.5t-176.5 439.5zM41 893q0 281 176 437.5t490 156.5v-137q-47 0 -91.5 -4.5t-98.5 -17t-100 -33t-90.5 -56t-75.5 -82t-50 -114.5t-19 -150h-141zM207 588h141 q0 -46 6.5 -82.5t29 -77t60 -67.5t105 -44.5t158.5 -17.5v-141q-119 0 -210 26.5t-144.5 68t-87.5 100t-46 115t-12 120.5zM207 893q0 64 12 120.5t46 115t87.5 100t144.5 68t210 26.5v-141q-91 0 -158.5 -17.5t-105 -44.5t-60 -67.5t-29 -77t-6.5 -82.5h-141zM375 588h141 q0 -29 1.5 -43t11 -32.5t29 -26.5t56.5 -14.5t93 -6.5v-141q-55 0 -98 5t-89 21.5t-76 44.5t-49.5 77t-19.5 116zM375 610q0 67 19.5 116t49.5 76.5t76 43.5t89 21t98 5v-139q-56 0 -93 -6.5t-56.5 -14.5t-29 -26.5t-11 -32.5t-1.5 -43h-141zM375 893q0 67 19.5 116t49.5 77 t76 44.5t89 21.5t98 5v-141q-56 0 -93 -6.5t-56.5 -14.5t-29 -26.5t-11 -32.5t-1.5 -43h-141zM375 1782h141q0 -29 1.5 -43.5t11 -34.5t29 -29.5t57 -16.5t92.5 -7v-142q-54 0 -98 6t-89 24t-75.5 47t-50 79t-19.5 117zM729 158v141q226 0 328 101.5t102 326.5v2h141v-727 h-141v326q-140 -170 -430 -170zM729 324v141q157 0 210.5 53.5t53.5 210.5h142q0 -216 -95 -310.5t-311 -94.5zM729 1016v141q215 0 310.5 -95t95.5 -310h-142q0 157 -53.5 210.5t-210.5 53.5zM729 1182v141q571 0 571 -571h-141q0 226 -102 328t-328 102zM729 1350v137 q352 0 545.5 -192t193.5 -543h-141q0 293 -152.5 445.5t-445.5 152.5zM1327 2v727h141v-727h-141z" />
<glyph unicode="&#xe1;" horiz-adv-x="1529" d="M41 588h141q0 -82 19 -150t50 -114.5t75.5 -82t90.5 -56t100 -33t98.5 -17t91.5 -4.5v-141q-313 0 -489.5 158.5t-176.5 439.5zM41 893q0 281 176 437.5t490 156.5v-137q-47 0 -91.5 -4.5t-98.5 -17t-100 -33t-90.5 -56t-75.5 -82t-50 -114.5t-19 -150h-141zM207 588h141 q0 -46 6.5 -82.5t29 -77t60 -67.5t105 -44.5t158.5 -17.5v-141q-119 0 -210 26.5t-144.5 68t-87.5 100t-46 115t-12 120.5zM207 893q0 64 12 120.5t46 115t87.5 100t144.5 68t210 26.5v-141q-91 0 -158.5 -17.5t-105 -44.5t-60 -67.5t-29 -77t-6.5 -82.5h-141zM375 588h141 q0 -29 1.5 -43t11 -32.5t29 -26.5t56.5 -14.5t93 -6.5v-141q-55 0 -98 5t-89 21.5t-76 44.5t-49.5 77t-19.5 116zM375 610q0 67 19.5 116t49.5 76.5t76 43.5t89 21t98 5v-139q-56 0 -93 -6.5t-56.5 -14.5t-29 -26.5t-11 -32.5t-1.5 -43h-141zM375 893q0 67 19.5 116t49.5 77 t76 44.5t89 21.5t98 5v-141q-56 0 -93 -6.5t-56.5 -14.5t-29 -26.5t-11 -32.5t-1.5 -43h-141zM729 158v141q226 0 328 101.5t102 326.5v2h141v-727h-141v326q-140 -170 -430 -170zM729 324v141q157 0 210.5 53.5t53.5 210.5h142q0 -216 -95 -310.5t-311 -94.5zM729 1016v141 q215 0 310.5 -95t95.5 -310h-142q0 157 -53.5 210.5t-210.5 53.5zM729 1182v141q571 0 571 -571h-141q0 226 -102 328t-328 102zM729 1350v137q352 0 545.5 -192t193.5 -543h-141q0 293 -152.5 445.5t-445.5 152.5zM729 1509v142q55 0 92.5 7t57 16.5t29 29.5t11 34.5 t1.5 43.5h141q0 -67 -19.5 -117t-50 -79t-75.5 -47t-89 -24t-98 -6zM1327 2v727h141v-727h-141z" />
<glyph unicode="&#xe2;" horiz-adv-x="1529" d="M41 588h141q0 -82 19 -150t50 -114.5t75.5 -82t90.5 -56t100 -33t98.5 -17t91.5 -4.5v-141q-313 0 -489.5 158.5t-176.5 439.5zM41 893q0 281 176 437.5t490 156.5v-137q-47 0 -91.5 -4.5t-98.5 -17t-100 -33t-90.5 -56t-75.5 -82t-50 -114.5t-19 -150h-141zM207 588h141 q0 -46 6.5 -82.5t29 -77t60 -67.5t105 -44.5t158.5 -17.5v-141q-119 0 -210 26.5t-144.5 68t-87.5 100t-46 115t-12 120.5zM207 893q0 64 12 120.5t46 115t87.5 100t144.5 68t210 26.5v-141q-91 0 -158.5 -17.5t-105 -44.5t-60 -67.5t-29 -77t-6.5 -82.5h-141zM375 588h141 q0 -29 1.5 -43t11 -32.5t29 -26.5t56.5 -14.5t93 -6.5v-141q-55 0 -98 5t-89 21.5t-76 44.5t-49.5 77t-19.5 116zM375 610q0 67 19.5 116t49.5 76.5t76 43.5t89 21t98 5v-139q-56 0 -93 -6.5t-56.5 -14.5t-29 -26.5t-11 -32.5t-1.5 -43h-141zM375 893q0 67 19.5 116t49.5 77 t76 44.5t89 21.5t98 5v-141q-56 0 -93 -6.5t-56.5 -14.5t-29 -26.5t-11 -32.5t-1.5 -43h-141zM414 1499q21 58 46 101.5t60.5 82.5t86 59.5t112.5 20.5q123 0 195 -71.5t112 -192.5h-147q-47 121 -162 121q-110 0 -154 -121h-149zM729 158v141q226 0 328 101.5t102 326.5v2 h141v-727h-141v326q-140 -170 -430 -170zM729 324v141q157 0 210.5 53.5t53.5 210.5h142q0 -216 -95 -310.5t-311 -94.5zM729 1016v141q215 0 310.5 -95t95.5 -310h-142q0 157 -53.5 210.5t-210.5 53.5zM729 1182v141q571 0 571 -571h-141q0 226 -102 328t-328 102z M729 1350v137q352 0 545.5 -192t193.5 -543h-141q0 293 -152.5 445.5t-445.5 152.5zM1327 2v727h141v-727h-141z" />
<glyph unicode="&#xe3;" horiz-adv-x="1529" d="M41 588h141q0 -82 19 -150t50 -114.5t75.5 -82t90.5 -56t100 -33t98.5 -17t91.5 -4.5v-141q-313 0 -489.5 158.5t-176.5 439.5zM41 893q0 281 176 437.5t490 156.5v-137q-47 0 -91.5 -4.5t-98.5 -17t-100 -33t-90.5 -56t-75.5 -82t-50 -114.5t-19 -150h-141zM207 588h141 q0 -46 6.5 -82.5t29 -77t60 -67.5t105 -44.5t158.5 -17.5v-141q-119 0 -210 26.5t-144.5 68t-87.5 100t-46 115t-12 120.5zM207 893q0 64 12 120.5t46 115t87.5 100t144.5 68t210 26.5v-141q-91 0 -158.5 -17.5t-105 -44.5t-60 -67.5t-29 -77t-6.5 -82.5h-141zM375 588h141 q0 -29 1.5 -43t11 -32.5t29 -26.5t56.5 -14.5t93 -6.5v-141q-55 0 -98 5t-89 21.5t-76 44.5t-49.5 77t-19.5 116zM375 610q0 67 19.5 116t49.5 76.5t76 43.5t89 21t98 5v-139q-56 0 -93 -6.5t-56.5 -14.5t-29 -26.5t-11 -32.5t-1.5 -43h-141zM375 893q0 67 19.5 116t49.5 77 t76 44.5t89 21.5t98 5v-141q-56 0 -93 -6.5t-56.5 -14.5t-29 -26.5t-11 -32.5t-1.5 -43h-141zM401 1509q0 133 74 199t232 66v-144q-85 0 -121.5 -26.5t-36.5 -94.5h-148zM729 158v141q226 0 328 101.5t102 326.5v2h141v-727h-141v326q-140 -170 -430 -170zM729 324v141 q157 0 210.5 53.5t53.5 210.5h142q0 -216 -95 -310.5t-311 -94.5zM729 1016v141q215 0 310.5 -95t95.5 -310h-142q0 157 -53.5 210.5t-210.5 53.5zM729 1182v141q571 0 571 -571h-141q0 226 -102 328t-328 102zM729 1350v137q352 0 545.5 -192t193.5 -543h-141 q0 293 -152.5 445.5t-445.5 152.5zM729 1509v144q85 0 121.5 26.5t36.5 94.5h147q0 -133 -74 -199t-231 -66zM1327 2v727h141v-727h-141z" />
<glyph unicode="&#xe4;" horiz-adv-x="1529" d="M41 588h141q0 -82 19 -150t50 -114.5t75.5 -82t90.5 -56t100 -33t98.5 -17t91.5 -4.5v-141q-313 0 -489.5 158.5t-176.5 439.5zM41 893q0 281 176 438.5t490 157.5v-139q-47 0 -91.5 -4.5t-98.5 -17t-100 -33t-90.5 -56t-75.5 -82t-50 -114.5t-19 -150h-141zM207 588h141 q0 -46 6.5 -82.5t29 -77t60 -67.5t105 -44.5t158.5 -17.5v-141q-119 0 -210 26.5t-144.5 68t-87.5 100t-46 115t-12 120.5zM207 893q0 64 12 120.5t46 115t87.5 100t144.5 68t210 26.5v-141q-91 0 -158.5 -17.5t-105 -44.5t-60 -67.5t-29 -77t-6.5 -82.5h-141zM375 588h141 q0 -29 1.5 -43t11 -32.5t29 -26.5t56.5 -14.5t93 -6.5v-141q-55 0 -98 5t-89 21.5t-76 44.5t-49.5 77t-19.5 116zM375 610q0 67 19.5 116t49.5 76.5t76 43.5t89 21t98 5v-139q-56 0 -93 -6.5t-56.5 -14.5t-29 -26.5t-11 -32.5t-1.5 -43h-141zM375 893q0 67 19.5 116t49.5 77 t76 44.5t89 21.5t98 5v-141q-56 0 -93 -6.5t-56.5 -14.5t-29 -26.5t-11 -32.5t-1.5 -43h-141zM496 1509v142h211v-142h-211zM729 158v141q226 0 328 101.5t102 326.5v2h141v-727h-141v326q-140 -170 -430 -170zM729 324v141q157 0 210.5 53.5t53.5 210.5h142 q0 -216 -95 -310.5t-311 -94.5zM729 1016v141q215 0 310.5 -95t95.5 -310h-142q0 157 -53.5 210.5t-210.5 53.5zM729 1182v141q571 0 571 -571h-141q0 226 -102 328t-328 102zM729 1350v139q352 0 545.5 -192.5t193.5 -544.5h-141q0 293 -152.5 445.5t-445.5 152.5z M729 1509v142h213l-2 -142h-211zM1327 2v727h141v-727h-141z" />
<glyph unicode="&#xe5;" horiz-adv-x="1529" d="M41 588h141q0 -82 19 -150t50 -114.5t75.5 -82t90.5 -56t100 -33t98.5 -17t91.5 -4.5v-141q-313 0 -489.5 158.5t-176.5 439.5zM41 893q0 216 104.5 359.5t305.5 201.5q-50 71 -50 160h148q0 -68 37 -97.5t121 -29.5v-137q-47 0 -91.5 -4.5t-98.5 -17t-100 -33t-90.5 -56 t-75.5 -82t-50 -114.5t-19 -150h-141zM207 588h141q0 -46 6.5 -82.5t29 -77t60 -67.5t105 -44.5t158.5 -17.5v-141q-119 0 -210 26.5t-144.5 68t-87.5 100t-46 115t-12 120.5zM207 893q0 64 12 120.5t46 115t87.5 100t144.5 68t210 26.5v-141q-91 0 -158.5 -17.5t-105 -44.5 t-60 -67.5t-29 -77t-6.5 -82.5h-141zM375 588h141q0 -29 1.5 -43t11 -32.5t29 -26.5t56.5 -14.5t93 -6.5v-141q-55 0 -98 5t-89 21.5t-76 44.5t-49.5 77t-19.5 116zM375 610q0 67 19.5 116t49.5 76.5t76 43.5t89 21t98 5v-139q-56 0 -93 -6.5t-56.5 -14.5t-29 -26.5 t-11 -32.5t-1.5 -43h-141zM375 893q0 67 19.5 116t49.5 77t76 44.5t89 21.5t98 5v-141q-56 0 -93 -6.5t-56.5 -14.5t-29 -26.5t-11 -32.5t-1.5 -43h-141zM401 1636q0 134 74 199.5t232 65.5v-144q-85 0 -121.5 -26.5t-36.5 -94.5h-148zM729 158v141q226 0 328 101.5 t102 326.5v2h141v-727h-141v326q-140 -170 -430 -170zM729 324v141q157 0 210.5 53.5t53.5 210.5h142q0 -216 -95 -310.5t-311 -94.5zM729 1016v141q215 0 310.5 -95t95.5 -310h-142q0 157 -53.5 210.5t-210.5 53.5zM729 1182v141q571 0 571 -571h-141q0 226 -102 328 t-328 102zM729 1350v137q84 0 121 29.5t37 97.5h147q0 -86 -51 -158q243 -65 364 -244t121 -460h-141q0 293 -152.5 445.5t-445.5 152.5zM729 1757v144q158 0 231.5 -65.5t73.5 -199.5h-147q0 68 -36.5 94.5t-121.5 26.5zM1327 2v727h141v-727h-141z" />
<glyph unicode="&#xe6;" horiz-adv-x="2678" d="M41 586h141q0 -82 19 -150t50 -114.5t75.5 -82t90.5 -56t100 -33t98.5 -17t91.5 -4.5v-141q-313 0 -489.5 158.5t-176.5 439.5zM41 891q0 281 176 438.5t490 157.5v-139q-47 0 -91.5 -4.5t-98.5 -17t-100 -33t-90.5 -56t-75.5 -82t-50 -114.5t-19 -150h-141zM207 586h141 q0 -46 6.5 -82.5t29 -77t60 -67.5t105 -44.5t158.5 -17.5v-141q-119 0 -210 26.5t-144.5 68t-87.5 100t-46 115t-12 120.5zM207 891q0 64 12 120.5t46 115t87.5 100t144.5 68t210 26.5v-141q-91 0 -158.5 -17.5t-105 -44.5t-60 -67.5t-29 -77t-6.5 -82.5h-141zM375 586h141 q0 -29 1.5 -43t11 -32.5t29 -26.5t56.5 -14.5t93 -6.5v-141q-55 0 -98 5t-89 21.5t-76 44.5t-49.5 77t-19.5 116zM375 608q0 67 19.5 116t49.5 76.5t76 43.5t89 21t98 5v-139q-56 0 -93 -6.5t-56.5 -14.5t-29 -26.5t-11 -32.5t-1.5 -43h-141zM375 891q0 67 19.5 116t49.5 77 t76 44.5t89 21.5t98 5v-141q-56 0 -93 -6.5t-56.5 -14.5t-29 -26.5t-11 -32.5t-1.5 -43h-141zM729 156v141q226 0 328 101.5t102 326.5v2h141v-727h-141v326q-140 -170 -430 -170zM729 322v141q157 0 210.5 53.5t53.5 210.5h142q0 -216 -95 -310.5t-311 -94.5zM729 1014v141 q215 0 310.5 -95t95.5 -310h-142q0 157 -53.5 210.5t-210.5 53.5zM729 1180v141q360 0 494 -227q78 190 250 290.5t423 100.5v-142q-291 0 -442 -150.5t-154 -442.5v-2h-141v2q1 225 -101.5 327.5t-328.5 102.5zM1327 0v727h141v-4q0 -224 100.5 -321t327.5 -97v-141 q-289 0 -428 139v-303h-141zM1327 748q0 571 569 571v-141q-225 0 -326.5 -102t-101.5 -328h-141zM1493 723h141q0 -81 11 -128t42.5 -76t79 -38.5t129.5 -9.5v-139q-217 0 -310 88.5t-93 302.5zM1493 748q0 215 94 309t309 94v-141q-114 0 -170 -26.5t-77 -94.5h249 l-2 -141h-403zM1921 0v139h571v-139h-571zM1921 164v141h571v-141h-571zM1921 332v139h571v-139h-571zM1921 584v141l737 -2v-141zM1921 748v141h248q-20 68 -76.5 94.5t-171.5 26.5v141q215 0 309 -94t94 -309h-403zM1921 1178v141q571 0 571 -571h-141q0 226 -102 328 t-328 102zM1921 1343v142q352 0 544.5 -192.5t192.5 -544.5h-141q0 292 -151.5 443.5t-444.5 151.5z" />
<glyph unicode="&#xe7;" horiz-adv-x="1560" d="M41 725h141q0 -290 151.5 -437t444.5 -147v-141q-353 0 -545 187.5t-192 537.5zM41 750q0 352 192.5 544.5t544.5 192.5v-141q-292 0 -444 -152t-152 -444h-141zM207 725h141q0 -224 101.5 -321t328.5 -97v-141q-286 0 -428.5 138t-142.5 421zM207 750q0 571 571 571 v-141q-226 0 -328 -102t-102 -328h-141zM375 725h141q0 -81 11 -128t42.5 -76t79 -38.5t129.5 -9.5v-139q-217 0 -310 88.5t-93 302.5zM375 750q0 215 94 309t309 94v-141q-157 0 -209.5 -52.5t-52.5 -209.5h-141zM645 -145q85 0 121.5 26t36.5 94h147q0 -132 -73.5 -198 t-231.5 -66v144zM803 0v141h665v-141h-665zM803 166v141h665v-141h-665zM803 334v139h665v-139h-665zM803 1012v141q215 0 309 -94t94 -309h-141q0 157 -52.5 209.5t-209.5 52.5zM803 1180v141q571 0 571 -571h-141q0 226 -102 328t-328 102zM803 1346v141 q352 0 544.5 -192.5t192.5 -544.5h-141q0 292 -152 444t-444 152z" />
<glyph unicode="&#xe8;" horiz-adv-x="1560" d="M41 725h141q0 -290 151.5 -437t444.5 -147v-141q-353 0 -545 187.5t-192 537.5zM41 750q0 352 192.5 544.5t544.5 192.5v-141q-292 0 -444 -152t-152 -444h-141zM207 725h141q0 -224 101.5 -321t328.5 -97v-141q-286 0 -428.5 138t-142.5 421zM207 750q0 571 571 571 v-141q-226 0 -328 -102t-102 -328h-141zM375 725h141q0 -81 11 -128t42.5 -76t79 -38.5t129.5 -9.5v-139q-217 0 -310 88.5t-93 302.5zM375 750q0 215 94 309t309 94v-141q-114 0 -170.5 -26.5t-77.5 -94.5h248v-141h-403zM449 1784h141q0 -19 0.5 -28t2.5 -24.5t7 -23.5 t13.5 -19t22.5 -16.5t33.5 -11t46.5 -8t62 -2.5v-142q-54 0 -98 6t-88.5 24.5t-74.5 48t-49 79.5t-19 117zM803 0v141h647v-141h-647zM803 166v141h647v-141h-647zM803 334v139h647v-139h-647zM803 586v139h737v-139h-737zM803 750v141h248q-20 68 -76.5 94.5t-171.5 26.5 v141q215 0 309 -94t94 -309h-403zM803 1180v141q571 0 571 -571h-141q0 226 -102 328t-328 102zM803 1346v141q352 0 544.5 -192.5t192.5 -544.5h-141q0 292 -152 444t-444 152z" />
<glyph unicode="&#xe9;" horiz-adv-x="1560" d="M41 725h141q0 -290 151.5 -437t444.5 -147v-141q-353 0 -545 187.5t-192 537.5zM41 750q0 352 192.5 544.5t544.5 192.5v-141q-292 0 -444 -152t-152 -444h-141zM207 725h141q0 -224 101.5 -321t328.5 -97v-141q-286 0 -428.5 138t-142.5 421zM207 750q0 571 571 571 v-141q-226 0 -328 -102t-102 -328h-141zM375 725h141q0 -81 11 -128t42.5 -76t79 -38.5t129.5 -9.5v-139q-217 0 -310 88.5t-93 302.5zM375 750q0 215 94 309t309 94v-141q-114 0 -170.5 -26.5t-77.5 -94.5h248v-141h-403zM803 0v141h647v-141h-647zM803 166v141h647v-141 h-647zM803 334v139h647v-139h-647zM803 586v139h737v-139h-737zM803 750v141h248q-20 68 -76.5 94.5t-171.5 26.5v141q215 0 309 -94t94 -309h-403zM803 1180v141q571 0 571 -571h-141q0 226 -102 328t-328 102zM803 1346v141q352 0 544.5 -192.5t192.5 -544.5h-141 q0 292 -152 444t-444 152zM803 1509v142q40 0 70.5 4t50.5 9t33.5 16t20.5 19.5t10.5 25.5t4 27.5t0.5 31.5h142q0 -67 -19.5 -117t-50 -79.5t-75.5 -48t-89 -24.5t-98 -6z" />
<glyph unicode="&#xea;" horiz-adv-x="1560" d="M41 725h141q0 -290 151.5 -437t444.5 -147v-141q-353 0 -545 187.5t-192 537.5zM41 750q0 352 192.5 544.5t544.5 192.5v-141q-292 0 -444 -152t-152 -444h-141zM207 725h141q0 -224 101.5 -321t328.5 -97v-141q-286 0 -428.5 138t-142.5 421zM207 750q0 571 571 571 v-141q-226 0 -328 -102t-102 -328h-141zM375 725h141q0 -81 11 -128t42.5 -76t79 -38.5t129.5 -9.5v-139q-217 0 -310 88.5t-93 302.5zM375 750q0 215 94 309t309 94v-141q-114 0 -170.5 -26.5t-77.5 -94.5h248v-141h-403zM481 1499q21 58 46 101.5t60.5 82.5t86 59.5 t112.5 20.5q123 0 195.5 -71.5t112.5 -192.5h-148q-47 121 -162 121q-109 0 -153 -121h-150zM803 0v141h647v-141h-647zM803 166v141h647v-141h-647zM803 334v139h647v-139h-647zM803 586v139h737v-139h-737zM803 750v141h248q-20 68 -76.5 94.5t-171.5 26.5v141 q215 0 309 -94t94 -309h-403zM803 1180v141q571 0 571 -571h-141q0 226 -102 328t-328 102zM803 1346v141q352 0 544.5 -192.5t192.5 -544.5h-141q0 292 -152 444t-444 152z" />
<glyph unicode="&#xeb;" horiz-adv-x="1560" d="M41 725h141q0 -290 151.5 -437t444.5 -147v-141q-353 0 -545 187.5t-192 537.5zM41 750q0 352 192.5 544.5t544.5 192.5v-141q-292 0 -444 -152t-152 -444h-141zM207 725h141q0 -224 101.5 -321t328.5 -97v-141q-286 0 -428.5 138t-142.5 421zM207 750q0 571 571 571 v-141q-226 0 -328 -102t-102 -328h-141zM375 725h141q0 -81 11 -128t42.5 -76t79 -38.5t129.5 -9.5v-139q-217 0 -310 88.5t-93 302.5zM375 750q0 215 94 309t309 94v-141q-114 0 -170.5 -26.5t-77.5 -94.5h248v-141h-403zM567 1509v142h211v-142h-211zM803 0v141h647v-141 h-647zM803 166v141h647v-141h-647zM803 334v139h647v-139h-647zM803 586v139h737v-139h-737zM803 750v141h248q-20 68 -76.5 94.5t-171.5 26.5v141q215 0 309 -94t94 -309h-403zM803 1180v141q571 0 571 -571h-141q0 226 -102 328t-328 102zM803 1346v141 q352 0 544.5 -192.5t192.5 -544.5h-141q0 292 -152 444t-444 152zM803 1509v142h213v-142h-213z" />
<glyph unicode="&#xec;" d="M82 0v725h141v-725h-141zM82 750v725h141v-725h-141zM154 1774h141q0 -21 0.5 -31.5t4 -28t10.5 -26t20.5 -19.5t33.5 -16t50.5 -9t70.5 -4v-141q-54 0 -98 6t-89 24t-75.5 47.5t-49.5 80t-19 117.5zM250 0v725h141v-725h-141zM250 750v725h141v-725h-141zM416 0v725h141 v-725h-141zM416 750v725h141v-725h-141z" />
<glyph unicode="&#xed;" d="M82 0v725h141v-725h-141zM82 750v725h141v-725h-141zM158 1499v141q55 0 92.5 7.5t56.5 16.5t28.5 29.5t11 34.5t1.5 44h141q0 -67 -19 -117t-49.5 -79t-75.5 -47t-89 -24t-98 -6zM250 0v725h141v-725h-141zM250 750v725h141v-725h-141zM416 0v725h141v-725h-141z M416 750v725h141v-725h-141z" />
<glyph unicode="&#xee;" d="M16 1499q20 58 44.5 102.5t60 83.5t86 59.5t112.5 20.5q123 0 195.5 -72t112.5 -194h-148q-47 123 -162 123q-109 0 -153 -123h-148zM82 0v725h141v-725h-141zM82 750v725h141v-725h-141zM250 0v725h141v-725h-141zM250 750v725h141v-725h-141zM416 0v725h141v-725h-141z M416 750v725h141v-725h-141z" />
<glyph unicode="&#xef;" d="M82 0v725h141v-725h-141zM82 750v725h141v-725h-141zM82 1499v141h225v-141h-225zM250 0v725h141v-725h-141zM250 750v725h141v-725h-141zM332 1499v141h225v-141h-225zM416 0v725h141v-725h-141zM416 750v725h141v-725h-141z" />
<glyph unicode="&#xf0;" horiz-adv-x="1603" d="M41 725h141q0 -292 152.5 -444t445.5 -152v-141q-353 0 -546 192.5t-193 544.5zM41 750q0 352 193 545.5t546 193.5v-141q-293 0 -445.5 -152.5t-152.5 -445.5h-141zM209 725h141q0 -226 101.5 -328t328.5 -102v-141q-571 0 -571 571zM209 750q0 571 571 571v-141 q-227 0 -328.5 -102t-101.5 -328h-141zM375 725h141q0 -156 53.5 -209t210.5 -53v-141q-217 0 -311 94t-94 309zM375 750q0 216 94.5 310.5t310.5 94.5v-143q-157 0 -210.5 -53t-53.5 -209h-141zM803 -12v141q293 0 445.5 152t152.5 444h141q0 -352 -193.5 -544.5 t-545.5 -192.5zM803 154v141q226 0 328 102t102 328h141q0 -571 -571 -571zM803 322v141q157 0 210.5 53t53.5 209h141q0 -215 -94 -309t-311 -94zM803 1012v143q216 0 310.5 -94.5t94.5 -310.5h-141q0 156 -53.5 209t-210.5 53zM803 1180v141q147 0 249 -39t181 -127v320 h141v-725h-141q0 226 -102 328t-328 102zM1008 1499v141h225v113h141v-254h-366zM1401 750v725h141v-725h-141zM1401 1499v254h141v-254h-141z" />
<glyph unicode="&#xf1;" horiz-adv-x="1599" d="M82 0v725h141v-725h-141zM82 750v725h141v-725h-141zM250 0v725h141v-725h-141zM250 750v725h141v-326q106 172 408 172v-141q-224 0 -316 -100.5t-92 -329.5h-141zM418 0v725h141v-725h-141zM418 750q0 219 84 311t297 92v-141q-80 0 -126 -10.5t-72 -43t-34 -78.5 t-8 -130h-141zM494 1509q0 134 73.5 200.5t231.5 66.5v-144q-85 0 -121.5 -27.5t-36.5 -95.5h-147zM821 1012v141q213 0 297 -92t84 -311h-141q0 84 -8 130t-34 78.5t-72 43t-126 10.5zM821 1180v141q282 0 415.5 -142t133.5 -429h-141q0 229 -92.5 329.5t-315.5 100.5z M821 1348v141q349 0 532 -192t183 -547h-141q0 598 -574 598zM821 1509v144q85 0 121.5 27.5t36.5 95.5h147q0 -134 -73.5 -200.5t-231.5 -66.5zM1061 0v725h141v-725h-141zM1229 0v725h141v-725h-141zM1395 0v725h143v-725h-143z" />
<glyph unicode="&#xf2;" horiz-adv-x="1581" d="M41 725h141q0 -292 152 -444t444 -152v-141q-352 0 -544.5 192.5t-192.5 544.5zM41 750q0 352 192.5 544.5t544.5 192.5v-141q-292 0 -444 -152t-152 -444h-141zM207 725h141q0 -226 102 -328t328 -102v-141q-571 0 -571 571zM207 750q0 571 571 571v-141 q-226 0 -328 -102t-102 -328h-141zM375 725h141q0 -157 52.5 -209.5t209.5 -52.5v-141q-215 0 -309 94t-94 309zM375 750q0 215 94 309t309 94v-141q-157 0 -209.5 -52.5t-52.5 -209.5h-141zM446 1784h142q0 -21 0.5 -31.5t4 -27.5t10.5 -25.5t20.5 -19.5t33.5 -16t50.5 -9 t70.5 -4v-142q-54 0 -98 6t-89 24.5t-75.5 48t-50 79.5t-19.5 117zM803 -12v141q292 0 444 152t152 444h141q0 -352 -192.5 -544.5t-544.5 -192.5zM803 154v141q226 0 328 102t102 328h141q0 -571 -571 -571zM803 322v141q157 0 209.5 52.5t52.5 209.5h141q0 -215 -94 -309 t-309 -94zM803 1012v141q215 0 309 -94t94 -309h-141q0 157 -52.5 209.5t-209.5 52.5zM803 1180v141q571 0 571 -571h-141q0 226 -102 328t-328 102zM803 1346v141q352 0 544.5 -192.5t192.5 -544.5h-141q0 292 -152 444t-444 152z" />
<glyph unicode="&#xf3;" horiz-adv-x="1581" d="M41 725h141q0 -292 152 -444t444 -152v-141q-352 0 -544.5 192.5t-192.5 544.5zM41 750q0 352 192.5 544.5t544.5 192.5v-141q-292 0 -444 -152t-152 -444h-141zM207 725h141q0 -226 102 -328t328 -102v-141q-571 0 -571 571zM207 750q0 571 571 571v-141 q-226 0 -328 -102t-102 -328h-141zM375 725h141q0 -157 52.5 -209.5t209.5 -52.5v-141q-215 0 -309 94t-94 309zM375 750q0 215 94 309t309 94v-141q-157 0 -209.5 -52.5t-52.5 -209.5h-141zM803 -12v141q292 0 444 152t152 444h141q0 -352 -192.5 -544.5t-544.5 -192.5z M803 154v141q226 0 328 102t102 328h141q0 -571 -571 -571zM803 322v141q157 0 209.5 52.5t52.5 209.5h141q0 -215 -94 -309t-309 -94zM803 1012v141q215 0 309 -94t94 -309h-141q0 157 -52.5 209.5t-209.5 52.5zM803 1180v141q571 0 571 -571h-141q0 226 -102 328t-328 102 zM803 1346v141q352 0 544.5 -192.5t192.5 -544.5h-141q0 292 -152 444t-444 152zM803 1509v142q40 0 70.5 4t50.5 9t33.5 16t20.5 19.5t10.5 25.5t4 27.5t0.5 31.5h142q0 -67 -19.5 -117t-50 -79.5t-75.5 -48t-89 -24.5t-98 -6z" />
<glyph unicode="&#xf4;" horiz-adv-x="1581" d="M41 725h141q0 -292 152 -444t444 -152v-141q-352 0 -544.5 192.5t-192.5 544.5zM41 750q0 352 192.5 544.5t544.5 192.5v-141q-292 0 -444 -152t-152 -444h-141zM207 725h141q0 -226 102 -328t328 -102v-141q-571 0 -571 571zM207 750q0 571 571 571v-141 q-226 0 -328 -102t-102 -328h-141zM375 725h141q0 -157 52.5 -209.5t209.5 -52.5v-141q-215 0 -309 94t-94 309zM375 750q0 215 94 309t309 94v-141q-157 0 -209.5 -52.5t-52.5 -209.5h-141zM485 1499q42 121 114 192.5t192 71.5q64 0 115 -20.5t86.5 -59t60 -83 t43.5 -101.5h-148q-47 121 -162 121q-109 0 -153 -121h-148zM803 -12v141q292 0 444 152t152 444h141q0 -352 -192.5 -544.5t-544.5 -192.5zM803 154v141q226 0 328 102t102 328h141q0 -571 -571 -571zM803 322v141q157 0 209.5 52.5t52.5 209.5h141q0 -215 -94 -309 t-309 -94zM803 1012v141q215 0 309 -94t94 -309h-141q0 157 -52.5 209.5t-209.5 52.5zM803 1180v141q571 0 571 -571h-141q0 226 -102 328t-328 102zM803 1346v141q352 0 544.5 -192.5t192.5 -544.5h-141q0 292 -152 444t-444 152z" />
<glyph unicode="&#xf5;" horiz-adv-x="1581" d="M41 725h141q0 -292 152 -444t444 -152v-141q-352 0 -544.5 192.5t-192.5 544.5zM41 750q0 352 192.5 544.5t544.5 192.5v-141q-292 0 -444 -152t-152 -444h-141zM207 725h141q0 -226 102 -328t328 -102v-141q-571 0 -571 571zM207 750q0 571 571 571v-141 q-226 0 -328 -102t-102 -328h-141zM375 725h141q0 -157 52.5 -209.5t209.5 -52.5v-141q-215 0 -309 94t-94 309zM375 750q0 215 94 309t309 94v-141q-157 0 -209.5 -52.5t-52.5 -209.5h-141zM473 1509q0 134 73.5 200.5t231.5 66.5v-144q-84 0 -119.5 -27.5t-35.5 -95.5 h-150zM803 -12v141q292 0 444 152t152 444h141q0 -352 -192.5 -544.5t-544.5 -192.5zM803 154v141q226 0 328 102t102 328h141q0 -571 -571 -571zM803 322v141q157 0 209.5 52.5t52.5 209.5h141q0 -215 -94 -309t-309 -94zM803 1012v141q215 0 309 -94t94 -309h-141 q0 157 -52.5 209.5t-209.5 52.5zM803 1180v141q571 0 571 -571h-141q0 226 -102 328t-328 102zM803 1346v141q352 0 544.5 -192.5t192.5 -544.5h-141q0 292 -152 444t-444 152zM803 1509v144q84 0 119.5 27.5t35.5 95.5h150q0 -134 -73.5 -200.5t-231.5 -66.5z" />
<glyph unicode="&#xf6;" horiz-adv-x="1581" d="M41 725h141q0 -292 152 -444t444 -152v-141q-352 0 -544.5 192.5t-192.5 544.5zM41 750q0 352 192.5 544.5t544.5 192.5v-141q-292 0 -444 -152t-152 -444h-141zM207 725h141q0 -226 102 -328t328 -102v-141q-571 0 -571 571zM207 750q0 571 571 571v-141 q-226 0 -328 -102t-102 -328h-141zM375 725h141q0 -157 52.5 -209.5t209.5 -52.5v-141q-215 0 -309 94t-94 309zM375 750q0 215 94 309t309 94v-141q-157 0 -209.5 -52.5t-52.5 -209.5h-141zM567 1509v142h211v-142h-211zM803 -12v141q292 0 444 152t152 444h141 q0 -352 -192.5 -544.5t-544.5 -192.5zM803 154v141q226 0 328 102t102 328h141q0 -571 -571 -571zM803 322v141q157 0 209.5 52.5t52.5 209.5h141q0 -215 -94 -309t-309 -94zM803 1012v141q215 0 309 -94t94 -309h-141q0 157 -52.5 209.5t-209.5 52.5zM803 1180v141 q571 0 571 -571h-141q0 226 -102 328t-328 102zM803 1346v141q352 0 544.5 -192.5t192.5 -544.5h-141q0 292 -152 444t-444 152zM803 1509v142h211v-142h-211z" />
<glyph unicode="&#xf7;" horiz-adv-x="872" d="M82 666v141l709 -2v-141zM360 524h142l2 -143h-142zM360 946l2 144h142l-2 -144h-142z" />
<glyph unicode="&#xf8;" horiz-adv-x="1581" d="M41 725h141q0 -248 109 -395t321 -187l-57 -131q-249 56 -381.5 239.5t-132.5 473.5zM41 750q0 330 171 521t486 214l123 270l142 2l-185 -411h-2q-292 0 -443 -152t-151 -444h-141zM207 725h141q0 -226 102 -328t328 -102v-158l-186 -420h-141l196 447q-440 62 -440 561 zM207 750q0 571 571 571v-141q-226 0 -328 -102t-102 -328h-141zM375 725h141q0 -157 52.5 -209.5t209.5 -52.5v-141q-215 0 -309 94t-94 309zM375 750q0 215 94 309t309 94v-141q-157 0 -209.5 -52.5t-52.5 -209.5h-141zM618 -283l185 412h2q292 0 443 152t151 444h141 q0 -330 -171 -521t-486 -214l-123 -273h-142zM803 154v141q226 0 328 102t102 328h141q0 -571 -571 -571zM803 322v141q157 0 209.5 52.5t52.5 209.5h141q0 -215 -94 -309t-309 -94zM803 1012v141q215 0 309 -94t94 -309h-141q0 157 -52.5 209.5t-209.5 52.5zM803 1180v155 l186 422h144l-199 -446q440 -62 440 -561h-141q0 226 -102 328t-328 102zM971 1331l55 131q249 -56 381.5 -239t132.5 -473h-141q0 247 -108.5 394t-319.5 187z" />
<glyph unicode="&#xf9;" horiz-adv-x="1599" d="M61 750v725h144v-725h-144zM63 725h142q0 -598 573 -598v-141q-349 0 -532 192t-183 547zM229 725h142q0 -229 92 -329.5t315 -100.5v-141q-282 0 -415.5 142t-133.5 429zM229 750v725h142v-725h-142zM397 725h142q0 -84 7.5 -130t34 -78.5t72 -43t125.5 -10.5v-141 q-213 0 -297 92t-84 311zM397 750v725h142v-725h-142zM635 1772h141q0 -24 1 -36.5t6 -31t17 -27.5t32.5 -19t53.5 -14t79 -4v-141q-54 0 -98 6t-88.5 24t-75 47t-49.5 79t-19 117zM801 154v141q224 0 315.5 100t91.5 330h142v-725h-142v326q-106 -172 -407 -172zM801 322 v141q80 0 125.5 10.5t72 43t34 78.5t7.5 130h142q0 -219 -84 -311t-297 -92zM1040 750v725h142v-725h-142zM1208 750v725h142v-725h-142zM1376 0v725h142v-725h-142zM1376 750v725h142v-725h-142z" />
<glyph unicode="&#xfa;" horiz-adv-x="1599" d="M61 750v725h144v-725h-144zM63 725h142q0 -598 573 -598v-141q-349 0 -532 192t-183 547zM229 725h142q0 -229 92 -329.5t315 -100.5v-141q-282 0 -415.5 142t-133.5 429zM229 750v725h142v-725h-142zM397 725h142q0 -84 7.5 -130t34 -78.5t72 -43t125.5 -10.5v-141 q-213 0 -297 92t-84 311zM397 750v725h142v-725h-142zM635 1499v141q46 0 79 4t53.5 14t32 19t16.5 27.5t6 30.5t1 37h142q0 -67 -19 -117t-49.5 -79t-75 -47t-88.5 -24t-98 -6zM801 154v141q224 0 315.5 100t91.5 330h142v-725h-142v326q-106 -172 -407 -172zM801 322v141 q80 0 125.5 10.5t72 43t34 78.5t7.5 130h142q0 -219 -84 -311t-297 -92zM1040 750v725h142v-725h-142zM1208 750v725h142v-725h-142zM1376 0v725h142v-725h-142zM1376 750v725h142v-725h-142z" />
<glyph unicode="&#xfb;" horiz-adv-x="1599" d="M61 750v725h144v-725h-144zM63 725h142q0 -598 573 -598v-141q-349 0 -532 192t-183 547zM229 725h142q0 -229 92 -329.5t315 -100.5v-141q-282 0 -415.5 142t-133.5 429zM229 750v725h142v-725h-142zM397 725h142q0 -84 7.5 -130t34 -78.5t72 -43t125.5 -10.5v-141 q-213 0 -297 92t-84 311zM397 750v725h142v-725h-142zM485 1499q42 121 114 192.5t192 71.5q122 0 193.5 -71t113.5 -193h-150q-47 123 -162 123q-106 0 -153 -123h-148zM801 154v141q224 0 315.5 100t91.5 330h142v-725h-142v326q-106 -172 -407 -172zM801 322v141 q80 0 125.5 10.5t72 43t34 78.5t7.5 130h142q0 -219 -84 -311t-297 -92zM1040 750v725h142v-725h-142zM1208 750v725h142v-725h-142zM1376 0v725h142v-725h-142zM1376 750v725h142v-725h-142z" />
<glyph unicode="&#xfc;" horiz-adv-x="1599" d="M61 750v725h144v-725h-144zM63 725h142q0 -598 573 -598v-141q-349 0 -532 192t-183 547zM229 725h142q0 -229 92 -329.5t315 -100.5v-141q-282 0 -415.5 142t-133.5 429zM229 750v725h142v-725h-142zM397 725h142q0 -84 7.5 -130t34 -78.5t72 -43t125.5 -10.5v-141 q-213 0 -297 92t-84 311zM397 750v725h142v-725h-142zM567 1499v141h211v-141h-211zM801 154v141q224 0 315.5 100t91.5 330h142v-725h-142v326q-106 -172 -407 -172zM801 322v141q80 0 125.5 10.5t72 43t34 78.5t7.5 130h142q0 -219 -84 -311t-297 -92zM801 1499v141h213 v-141h-213zM1040 750v725h142v-725h-142zM1208 750v725h142v-725h-142zM1376 0v725h142v-725h-142zM1376 750v725h142v-725h-142z" />
<glyph unicode="&#xfd;" horiz-adv-x="1601" d="M41 725h141q0 -292 152 -444t444 -152v-141q-352 0 -544.5 192.5t-192.5 544.5zM41 1399v76h141v-76q3 -294 154 -446t442 -152v-142q-351 0 -544 194t-193 546zM207 725h141q0 -226 102 -328t328 -102v-141q-571 0 -571 571zM207 1399v76h141v-76q0 -226 102 -328 t328 -102v-142q-565 0 -571 572zM375 1399v76h139l2 -76q1 -81 12 -130t41.5 -80t79 -42.5t129.5 -11.5v-142q-215 0 -309 94.5t-94 311.5zM645 1499v141q40 0 70.5 3.5t50.5 9t34 16t21 19t10.5 25.5t4 27.5t0.5 31.5h141q0 -67 -19.5 -117t-50 -79t-75.5 -47t-89 -24 t-98 -6zM803 -12v141q292 0 444 152t152 444h141q0 -352 -192.5 -544.5t-544.5 -192.5zM803 154v141q226 0 328 102t102 328h141q0 -571 -571 -571zM803 322v141q157 0 209.5 52.5t52.5 209.5h141q0 -215 -94 -309t-309 -94zM803 827v142q226 0 328 101.5t102 328.5v76h139 l2 -725h-141v243q-75 -87 -179.5 -126.5t-250.5 -39.5zM803 993v142q157 0 210 53.5t52 210.5v76h141v-76q0 -217 -94 -311.5t-309 -94.5zM1397 1475h141l2 -725h-141z" />
<glyph unicode="&#xfe;" horiz-adv-x="1492" d="M82 0v594h141v-594h-141zM82 618v857h141v-857h-141zM250 0v594h141v-594h-141zM250 618v857h141v-857h-141zM416 0v594h141v-594h-141zM416 618v725h348v-141h-207v-584h-141zM580 285v141h184v-141h-184zM580 453v141h184v-141h-184zM580 866v142h184v-142h-184z M580 1036v142h184v-142h-184zM788 119v141q48 0 93.5 4.5t99 18t99 34.5t89 57t74.5 82.5t49.5 114.5t18.5 150h141q0 -283 -173 -442.5t-491 -159.5zM788 287v141q357 0 357 293h141q0 -65 -12 -121.5t-45.5 -116t-87 -101t-144 -68.5t-209.5 -27zM788 453v141 q51 0 86.5 6.5t55.5 16t30.5 27.5t13.5 34.5t3 42.5h141q0 -67 -19 -116.5t-49 -78t-75.5 -45.5t-88.5 -22.5t-98 -5.5zM788 866v142q55 0 98 -5t88.5 -21.5t75 -44t49 -76.5t19.5 -116h-141q0 33 -5.5 52t-23.5 36.5t-57 25t-103 7.5zM788 1034v144q119 0 209.5 -27 t144 -69t87 -101t45.5 -115.5t12 -120.5h-141q0 289 -357 289zM788 1202v141q318 0 491 -158t173 -440h-141q0 82 -18.5 149.5t-49 114t-74.5 82t-89.5 56t-99.5 33.5t-99 17.5t-93 4.5z" />
<glyph unicode="&#xff;" horiz-adv-x="1601" d="M41 725h141q0 -292 152 -444t444 -152v-141q-352 0 -544.5 192.5t-192.5 544.5zM41 1399v76h141v-76q3 -294 154 -446t442 -152v-142q-351 0 -544 194t-193 546zM207 725h141q0 -226 102 -328t328 -102v-141q-571 0 -571 571zM207 1399v76h141v-76q0 -226 102 -328 t328 -102v-142q-565 0 -571 572zM375 1399v76h139l2 -76q1 -81 12 -130t41.5 -80t79 -42.5t129.5 -11.5v-142q-215 0 -309 94.5t-94 311.5zM567 1499v141h211v-141h-211zM803 -12v141q292 0 444 152t152 444h141q0 -352 -192.5 -544.5t-544.5 -192.5zM803 154v141 q226 0 328 102t102 328h141q0 -571 -571 -571zM803 322v141q157 0 209.5 52.5t52.5 209.5h141q0 -215 -94 -309t-309 -94zM803 827v142q226 0 328 101.5t102 328.5v76h139l2 -725h-141v243q-75 -87 -179.5 -126.5t-250.5 -39.5zM803 993v142q157 0 210 53.5t52 210.5v76h141 v-76q0 -217 -94 -311.5t-309 -94.5zM803 1499v141h211v-141h-211zM1397 1475h141l2 -725h-141z" />
<glyph unicode="&#x152;" horiz-adv-x="2525" d="M41 727h141q0 -293 152 -445.5t444 -152.5v-141q-352 0 -544.5 193.5t-192.5 545.5zM41 750q0 352 192.5 545.5t544.5 193.5v-141q-292 0 -444 -152.5t-152 -445.5h-141zM207 727h141q0 -226 102 -328t328 -102v-141q-571 0 -571 571zM207 750q0 571 571 571v-141 q-226 0 -328 -102t-102 -328h-141zM375 727h141q0 -157 53 -210.5t209 -53.5v-141q-215 0 -309 94t-94 311zM375 750q0 216 94 310.5t309 94.5v-141q-156 0 -209 -53.5t-53 -210.5h-141zM803 -12v141q292 0 444 152.5t152 445.5h141q0 -224 101.5 -321t328.5 -97v-141 q-180 0 -309.5 62t-181.5 176q-58 -199 -238.5 -308.5t-437.5 -109.5zM803 156v141q226 0 328 102t102 328h141q0 -571 -571 -571zM803 322v141q156 0 209 53.5t53 210.5h141q0 -217 -94 -311t-309 -94zM803 1014v141q215 0 309 -94.5t94 -310.5h-141q0 157 -53 210.5 t-209 53.5zM803 1180v141q178 0 315.5 -68.5t175.5 -175.5q29 117 125 208t239.5 140.5t311.5 49.5v-142q-296 0 -446.5 -145t-149.5 -436v-2h-141v2q0 225 -102 326.5t-328 101.5zM1399 752q0 283 142.5 420t428.5 137v-142q-228 0 -329 -95.5t-101 -319.5h-141zM1567 727 l403 -2v-141l-248 2q21 -64 76.5 -87.5t171.5 -23.5v-141q-217 0 -310 89t-93 304zM1567 752q0 213 93 301t310 88v-142q-118 0 -172.5 -21.5t-75.5 -84.5h248v-141h-403zM1993 0v141h450v-141h-450zM1993 168v141h450v-141h-450zM1993 334v141h450v-141h-450zM1993 586 l2 141l329 -2l-2 -141zM1993 752v141h329v-141h-329zM1993 999v142h450v-142h-450zM1993 1167v142h450v-142h-450zM1993 1333v142h450v-142h-450z" />
<glyph unicode="&#x153;" horiz-adv-x="2752" d="M41 725h141q0 -292 152 -444t444 -152v-141q-352 0 -544.5 192.5t-192.5 544.5zM41 750q0 352 192.5 544.5t544.5 192.5v-141q-292 0 -444 -152t-152 -444h-141zM207 725h141q0 -226 102 -328t328 -102v-141q-571 0 -571 571zM207 750q0 571 571 571v-141 q-226 0 -328 -102t-102 -328h-141zM375 725h141q0 -157 52.5 -209.5t209.5 -52.5v-141q-215 0 -309 94t-94 309zM375 750q0 215 94 309t309 94v-141q-157 0 -209.5 -52.5t-52.5 -209.5h-141zM803 -12v141q292 0 444 152t152 444h141q0 -224 101.5 -321t328.5 -97v-141 q-180 0 -315.5 62t-179.5 167q-51 -184 -234.5 -295.5t-437.5 -111.5zM803 154v141q226 0 328 102t102 328h141q0 -571 -571 -571zM803 322v141q157 0 209.5 52.5t52.5 209.5h141q0 -215 -94 -309t-309 -94zM803 1012v141q215 0 309 -94t94 -309h-141q0 157 -52.5 209.5 t-209.5 52.5zM803 1180v141q180 0 308.5 -62t180.5 -178q64 194 243.5 300t434.5 106v-141q-293 0 -444.5 -152t-151.5 -444h-141q0 226 -102 328t-328 102zM1399 750q0 571 571 571v-141q-226 0 -328 -102t-102 -328h-141zM1567 725h141q0 -81 11 -128t42.5 -76t79 -38.5 t129.5 -9.5v-139q-217 0 -310 88.5t-93 302.5zM1567 750q0 215 94 309t309 94v-141q-115 0 -171.5 -26.5t-76.5 -94.5h248v-141h-403zM1993 586l2 141l737 -2v-141zM1993 750v141h250q-21 68 -77.5 94.5t-170.5 26.5v141q215 0 309 -94t94 -309h-405zM1995 0v141h571v-141 h-571zM1995 166v141h571v-141h-571zM1995 334v139h571v-139h-571zM1995 1180v141q569 0 569 -571h-141q0 226 -101.5 328t-326.5 102zM1995 1346v141q351 0 544 -193t193 -544h-141q0 292 -152 444t-444 152z" />
<glyph unicode="&#x178;" horiz-adv-x="1605" d="M0 1477l141 -2l56 -299h-142zM59 1153h142q18 -87 33.5 -148t38 -125.5t48.5 -107.5t63 -83.5t83 -65t107 -41.5t137 -23v-559h-148l2 438q-82 18 -147 49.5t-114 80.5t-85.5 104.5t-66 135.5t-50.5 158t-43 187zM166 1475h141l58 -299h-142zM227 1153h142 q12 -61 20.5 -98t21 -82.5t24.5 -72t31 -57t41 -47.5t52 -33t67.5 -25t84.5 -13v-141q-57 4 -105 15t-86.5 26t-71 39t-57.5 50t-46 63.5t-37 74.5t-31 88.5t-26 99t-24 113.5zM334 1475h141l55 -299h-141zM393 1153h142q3 -16 9 -45q8 -40 12 -58t11.5 -45.5t14.5 -39 t19 -27.5t27 -23t35.5 -13t47.5 -9v-141q-44 4 -79 11.5t-63 23.5t-48 31t-37.5 44.5t-28.5 53t-23 68t-19.5 77t-19.5 92.5zM567 1499v141h211v-141h-211zM735 0v725h135v-725h-135zM803 1499v141h211v-141h-211zM893 0v559q76 6 137 23t107 41.5t83 65t63 83.5t48.5 107.5 t38 125.5t33.5 148h141q-22 -108 -42.5 -187t-50 -158t-66 -135.5t-85.5 -105.5t-114 -81t-146 -50v-436h-147zM893 584v141q54 5 96 17.5t73 28t55.5 46t40 57t31 77.5t24.5 91t24 111h141q-18 -86 -32.5 -143.5t-36 -120t-45.5 -103t-59 -79.5t-78.5 -62t-102 -39 t-131.5 -22zM893 752v141q27 3 47.5 9t35.5 13t26.5 22.5t19 28t15 38.5t12 46t11.5 58q6 29 9 45h141q-10 -48 -15.5 -75t-15 -65t-17 -59t-19 -49.5t-23.5 -43.5t-28.5 -34t-36 -29.5t-44 -21t-54 -16t-64.5 -8.5zM1075 1176l55 299h142l-55 -299h-142zM1241 1176l55 299 h142l-56 -299h-141zM1409 1176l55 299l142 2l-58 -301h-139z" />
<glyph unicode="&#x2c6;" horiz-adv-x="1585" d="M487 1499q42 121 114 192.5t192 71.5q122 0 193.5 -71t113.5 -193h-150q-47 123 -162 123q-106 0 -153 -123h-148z" />
<glyph unicode="&#x2dc;" horiz-adv-x="1587" d="M477 1499q0 134 73.5 200t231.5 66v-143q-85 0 -121 -27.5t-36 -95.5h-148zM807 1499v143q83 0 119.5 27.5t36.5 95.5h147q0 -134 -73 -200t-230 -66z" />
<glyph unicode="&#x2000;" horiz-adv-x="950" />
<glyph unicode="&#x2001;" horiz-adv-x="1901" />
<glyph unicode="&#x2002;" horiz-adv-x="950" />
<glyph unicode="&#x2003;" horiz-adv-x="1901" />
<glyph unicode="&#x2004;" horiz-adv-x="633" />
<glyph unicode="&#x2005;" horiz-adv-x="475" />
<glyph unicode="&#x2006;" horiz-adv-x="316" />
<glyph unicode="&#x2007;" horiz-adv-x="316" />
<glyph unicode="&#x2008;" horiz-adv-x="237" />
<glyph unicode="&#x2009;" horiz-adv-x="380" />
<glyph unicode="&#x200a;" horiz-adv-x="105" />
<glyph unicode="&#x2010;" d="M82 498v141h475v-141h-475zM82 666v139h475v-139h-475zM82 834v139h475v-139h-475z" />
<glyph unicode="&#x2011;" d="M82 498v141h475v-141h-475zM82 666v139h475v-139h-475zM82 834v139h475v-139h-475z" />
<glyph unicode="&#x2012;" d="M82 498v141h475v-141h-475zM82 666v139h475v-139h-475zM82 834v139h475v-139h-475z" />
<glyph unicode="&#x2013;" horiz-adv-x="872" d="M82 498v141h709v-141h-709zM82 666v141h709v-141h-709zM82 834v141h709v-141h-709z" />
<glyph unicode="&#x2014;" horiz-adv-x="1339" d="M82 498v141h1175v-141h-1175zM82 666v141h1175v-141h-1175zM82 834v141h1175v-141h-1175z" />
<glyph unicode="&#x2018;" horiz-adv-x="749" d="M48.5 1054q-16.5 74 2 182t78.5 239h139q-54 -109 -73.5 -197.5t-9.5 -148t46 -104t83 -69.5t111.5 -40.5t120.5 -20t122 -4.5v-141q-81 0 -153 6.5t-153 26.5t-141.5 52.5t-108 88.5t-64 130zM209 1202.5q2 52.5 22.5 122t61.5 150.5h137q-40 -82 -58 -146.5t-18 -107.5 t20 -74.5t46 -48.5t70.5 -26.5t83.5 -12t94 -2.5v-142q-48 0 -90.5 2.5t-91.5 10.5t-88.5 21t-76.5 35t-61.5 51.5t-38.5 72t-12 95zM382.5 1206.5q-5.5 29.5 1.5 67.5t24 89t47 112h139q-19 -41 -31.5 -73t-21.5 -57t-10 -43t-0.5 -31.5t10 -21.5t18.5 -13t28.5 -7.5 t35.5 -3t45 -0.5v-142q-42 0 -70.5 1t-64 5.5t-57.5 12t-45 21.5t-33 34t-15.5 49.5z" />
<glyph unicode="&#x2019;" horiz-adv-x="749" d="M82 1012v141q55 0 90.5 -2t77.5 -10.5t64.5 -24t40 -44t15.5 -69.5t-19.5 -102t-55.5 -139h-137q21 46 35 80t20.5 61t8.5 44.5t-5.5 30t-16 19t-29.5 10t-39 4.5t-50 1zM82 1178v141q49 0 91 -2.5t91 -10.5t88.5 -20.5t76.5 -34.5t61.5 -51.5t38.5 -72t12 -94.5 t-22.5 -121t-61.5 -150h-138q40 81 58 145t18 107.5t-20 74.5t-45.5 48t-70 26.5t-83.5 12t-94 2.5zM82 1346v141q81 0 153 -6.5t152.5 -27t141.5 -53t108.5 -88.5t64 -130t-2 -181.5t-78.5 -238.5h-140q55 108 74.5 196.5t9.5 148t-46 104.5t-83 70t-111.5 40.5t-121 20 t-121.5 4.5z" />
<glyph unicode="&#x201a;" horiz-adv-x="718" d="M-82 -248l322 725h141l-320 -725h-143zM86 -248l322 725h143l-322 -725h-143zM256 -248l319 725h144l-322 -725h-141z" />
<glyph unicode="&#x201c;" horiz-adv-x="1478" d="M48.5 1054q-16.5 74 2 182t78.5 239h139q-54 -109 -73.5 -197.5t-9.5 -148t46 -104t83 -69.5t111.5 -40.5t120.5 -20t122 -4.5v-141q-81 0 -153 6.5t-153 26.5t-141.5 52.5t-108 88.5t-64 130zM209 1202.5q2 52.5 22.5 122t61.5 150.5h137q-40 -82 -58 -146.5t-18 -107.5 t20 -74.5t46 -48.5t70.5 -26.5t83.5 -12t94 -2.5v-142q-48 0 -90.5 2.5t-91.5 10.5t-88.5 21t-76.5 35t-61.5 51.5t-38.5 72t-12 95zM382.5 1206.5q-5.5 29.5 1.5 67.5t24 89t47 112h139q-19 -41 -31.5 -73t-21.5 -57t-10 -43t-0.5 -31.5t10 -21.5t18.5 -13t28.5 -7.5 t35.5 -3t45 -0.5v-142q-42 0 -70.5 1t-64 5.5t-57.5 12t-45 21.5t-33 34t-15.5 49.5zM777.5 1054q-16.5 74 2 182t78.5 239h139q-43 -85 -64.5 -158t-23 -127.5t14 -99t42 -75t67 -53.5t82 -36t93 -21.5t95.5 -11t94 -2.5v-141q-81 0 -153 6.5t-153 26.5t-141.5 52.5 t-108 88.5t-64 130zM938 1202.5q2 52.5 22.5 122t61.5 150.5h137q-40 -82 -58 -146.5t-18 -107.5t20 -74.5t46 -48.5t70.5 -26.5t83.5 -12t94 -2.5v-142q-48 0 -90.5 2.5t-91.5 10.5t-88.5 21t-76.5 35t-61.5 51.5t-38.5 72t-12 95zM1111.5 1206.5q-5.5 29.5 1.5 67.5t24 89 t47 112h137q-17 -37 -29 -66t-19.5 -53.5t-12 -42t-2.5 -31.5t4 -23.5t13 -16t19.5 -10t27.5 -5t34 -2t41 -0.5v-142q-42 0 -70.5 1t-64 5.5t-57.5 12t-45 21.5t-33 34t-15.5 49.5z" />
<glyph unicode="&#x201d;" horiz-adv-x="1478" d="M82 1006v141q55 0 90.5 -2t77.5 -10.5t64.5 -24t40 -44t15.5 -69.5t-19.5 -102t-55.5 -139h-137q21 46 35 80t20.5 61t8.5 44.5t-5.5 30t-16 19t-29.5 10t-39 4.5t-50 1zM82 1171v142q49 0 91 -2.5t91 -10.5t88.5 -20.5t76.5 -34.5t61.5 -51.5t38.5 -72t12 -94.5 t-22.5 -121t-61.5 -150h-138q28 57 46 106t23.5 86.5t5 68.5t-12 53t-26 39t-39.5 28t-48.5 18t-57.5 10.5t-62 4.5t-66 1zM82 1339v142q81 0 153 -6.5t152.5 -27t141.5 -53t108.5 -88.5t64 -130t-2 -181.5t-78.5 -238.5h-140q55 108 74.5 196.5t9.5 148t-46 104t-82.5 69.5 t-111.5 40.5t-121 20t-122 4.5zM811 1006v141q42 0 70.5 -1t63.5 -5.5t57 -12t45 -21.5t33.5 -34t16 -49.5t-1.5 -67.5t-24.5 -88.5t-46.5 -111.5h-139q21 46 35.5 80.5t21 61t8.5 44t-5.5 30t-16 19t-29 10t-38.5 4.5t-50 1zM811 1171v142q49 0 91 -2.5t91 -10.5 t88.5 -20.5t76.5 -34.5t61.5 -51.5t38.5 -72t12 -94.5t-22.5 -121t-61.5 -150h-137q40 81 58 145t18 107.5t-20 74t-46 47.5t-70.5 26.5t-83 12t-94.5 2.5zM811 1339v142q81 0 153 -6.5t152.5 -27t141.5 -53t108 -88.5t64 -130t-2 -181.5t-80 -238.5h-138q54 108 73.5 196.5 t9.5 148t-46 104t-82.5 69.5t-111 40.5t-120.5 20t-122 4.5z" />
<glyph unicode="&#x201e;" horiz-adv-x="1349" d="M-82 -248l322 725h141l-320 -725h-143zM86 -248l322 725h143l-322 -725h-143zM256 -248l319 725h144l-322 -725h-141zM549 -248l321 725h142l-320 -725h-143zM717 -248l321 725h144l-322 -725h-143zM887 -248l319 725h144l-322 -725h-141z" />
<glyph unicode="&#x2022;" horiz-adv-x="1247" d="M41 725h141q0 -226 102 -328t328 -102v-141q-571 0 -571 571zM41 750q0 571 571 571v-141q-226 0 -328 -102t-102 -328h-141zM207 725h141q0 -156 53.5 -209t210.5 -53v-141q-216 0 -310.5 94t-94.5 309zM207 750q0 215 94.5 309t310.5 94v-141q-157 0 -210.5 -53 t-53.5 -209h-141zM635 154v141q226 0 328 102t102 328h141q0 -571 -571 -571zM635 322v141q157 0 210.5 53t53.5 209h141q0 -215 -94 -309t-311 -94zM635 1012v141q217 0 311 -94t94 -309h-141q0 156 -53.5 209t-210.5 53zM635 1180v141q571 0 571 -571h-141q0 226 -102 328 t-328 102z" />
<glyph unicode="&#x2026;" horiz-adv-x="1865" d="M82 0v475h141v-475h-141zM248 0v475h141v-475h-141zM416 0v475h141v-475h-141zM694 0v475h142v-475h-142zM860 0l2 475h142l-3 -475h-141zM1028 0l2 475h141l-2 -475h-141zM1307 0v475h141v-475h-141zM1473 0l2 475h141l-2 -475h-141zM1640 0l2 475h142l-2 -475h-142z " />
<glyph unicode="&#x202f;" horiz-adv-x="380" />
<glyph unicode="&#x2039;" horiz-adv-x="641" d="M43 752q9 112 90 188.5t209 108.5l217 53v-146l-205 -51q-157 -41 -170 -160q-13 -138 150 -180l225 -61v-148l-248 66q-148 40 -213 133t-55 197zM209 741q8 104 153 142l197 51v-139l-178 -45q-18 -5 -18 -12.5t18 -12.5l178 -47v-148l-219 58q-74 20 -105 61t-26 92z " />
<glyph unicode="&#x203a;" horiz-adv-x="641" d="M82 356v148l225 61q161 42 148 180q-10 119 -170 160l-203 51v146l215 -53q128 -32 209.5 -108.5t91.5 -188.5q5 -66 -16.5 -127.5t-86 -118.5t-165.5 -84zM82 530v148l176 47q12 3 17 7.5t1 9.5t-16 8l-178 45v139l194 -51q148 -38 156 -142q8 -116 -133 -153z" />
<glyph unicode="&#x205f;" horiz-adv-x="475" />
<glyph unicode="&#x20ac;" horiz-adv-x="1032" d="M41 586v141q313 -2 313 0v-4q0 -296 151 -446t445 -150v-141q-312 0 -501.5 157t-227.5 441zM41 752v141h180q38 285 226.5 439.5t502.5 154.5v-141q-292 0 -444 -150.5t-152 -441.5v-2h-313zM379 727h141q0 -226 102.5 -329t327.5 -103v-141q-284 0 -427.5 144.5 t-143.5 428.5zM379 752q0 567 571 567v-139q-226 0 -328 -101.5t-102 -326.5h-141zM547 727l403 -2v-141l-245 2q20 -67 76.5 -96t168.5 -29v-142q-215 0 -309 95.5t-94 312.5zM547 752q0 215 93.5 308t309.5 93v-141q-112 0 -168.5 -27t-76.5 -92h245v-141h-403z" />
<glyph unicode="&#x25fc;" horiz-adv-x="1474" d="M0 0v1475h1475v-1475h-1475z" />
<glyph unicode="&#xfb01;" horiz-adv-x="1923" d="M102 0v725h142v-725h-142zM102 750q0 350 192.5 537.5t545.5 187.5v-142q-293 0 -444.5 -146.5t-151.5 -436.5h-142zM268 0v725h142v-158q130 160 430 160v-141q-226 0 -328 -102t-102 -328v-156h-142zM268 750q0 283 143 421t429 138v-142q-228 0 -329 -96.5 t-101 -320.5h-142zM436 0q0 211 14 291q27 152 129 214q92 54 261 54v-141q-157 0 -209.5 -52.5t-52.5 -209.5v-156h-142zM436 750q0 213 93.5 302t310.5 89v-142q-83 0 -130 -9t-78.5 -37.5t-42.5 -75t-11 -127.5h-142zM864 418v141h477v-141h-477zM864 586v141l643 -2 v-725h-141v586h-502zM864 999v142h379v-142h-379zM864 1167v142h379v-142h-379zM864 1333v142h379v-142h-379zM1364 750l2 725h141l-2 -725h-141zM1532 0v725h141v-725h-141zM1532 750v725h141v-725h-141zM1700 0v725h141v-725h-141zM1700 750v725h141v-725h-141z" />
<glyph unicode="&#xfb02;" horiz-adv-x="2344" d="M61 0v725h142v-725h-142zM61 750q0 350 192.5 537.5t545.5 187.5v-142q-293 0 -444.5 -146.5t-151.5 -436.5h-142zM227 0v725h142v-158q130 160 430 160v-141q-226 0 -328 -102t-102 -328v-156h-142zM227 750q0 283 143 421t429 138v-142q-228 0 -329 -96.5t-101 -320.5 h-142zM395 0q0 211 14 291q27 152 129 214q92 54 261 54v-141q-157 0 -209.5 -52.5t-52.5 -209.5v-156h-142zM395 750q0 213 93.5 302t310.5 89v-142q-83 0 -130 -9t-78.5 -37.5t-42.5 -75t-11 -127.5h-142zM823 418v141h379v-141h-379zM823 586v141h379v-141h-379zM823 999 v142h379v-142h-379zM823 1167v142h379v-142h-379zM823 1333v142h379v-142h-379zM1303 725h141q0 -290 151.5 -437t444.5 -147v-141q-353 0 -545 187.5t-192 537.5zM1303 750v725h141v-725h-141zM1468 725h142q0 -224 101.5 -321t328.5 -97v-141q-286 0 -429 138t-143 421z M1468 750v725h142v-725h-142zM1636 725h142q0 -81 11 -128t42.5 -76t79 -38.5t129.5 -9.5v-139q-217 0 -310.5 89t-93.5 302zM1636 750v725h142v-725h-142zM2064 0v141h260v-141h-260zM2064 166v141h260v-141h-260zM2064 334v139h260v-139h-260z" />
</font>
</defs>
</svg>
